%TF.GenerationSoftware,KiCad,Pcbnew,(6.0.5-0)*%
%TF.CreationDate,2024-02-03T23:16:40-05:00*%
%TF.ProjectId,RoboBoat PCB,526f626f-426f-4617-9420-5043422e6b69,rev?*%
%TF.SameCoordinates,Original*%
%TF.FileFunction,Paste,Top*%
%TF.FilePolarity,Positive*%
%FSLAX46Y46*%
G04 Gerber Fmt 4.6, Leading zero omitted, Abs format (unit mm)*
G04 Created by KiCad (PCBNEW (6.0.5-0)) date 2024-02-03 23:16:40*
%MOMM*%
%LPD*%
G01*
G04 APERTURE LIST*
G04 Aperture macros list*
%AMRoundRect*
0 Rectangle with rounded corners*
0 $1 Rounding radius*
0 $2 $3 $4 $5 $6 $7 $8 $9 X,Y pos of 4 corners*
0 Add a 4 corners polygon primitive as box body*
4,1,4,$2,$3,$4,$5,$6,$7,$8,$9,$2,$3,0*
0 Add four circle primitives for the rounded corners*
1,1,$1+$1,$2,$3*
1,1,$1+$1,$4,$5*
1,1,$1+$1,$6,$7*
1,1,$1+$1,$8,$9*
0 Add four rect primitives between the rounded corners*
20,1,$1+$1,$2,$3,$4,$5,0*
20,1,$1+$1,$4,$5,$6,$7,0*
20,1,$1+$1,$6,$7,$8,$9,0*
20,1,$1+$1,$8,$9,$2,$3,0*%
G04 Aperture macros list end*
%ADD10RoundRect,0.250001X1.074999X-0.462499X1.074999X0.462499X-1.074999X0.462499X-1.074999X-0.462499X0*%
%ADD11RoundRect,0.160000X0.222500X0.160000X-0.222500X0.160000X-0.222500X-0.160000X0.222500X-0.160000X0*%
%ADD12RoundRect,0.250000X0.350000X0.450000X-0.350000X0.450000X-0.350000X-0.450000X0.350000X-0.450000X0*%
%ADD13RoundRect,0.250000X-0.450000X0.350000X-0.450000X-0.350000X0.450000X-0.350000X0.450000X0.350000X0*%
%ADD14RoundRect,0.160000X-0.160000X0.222500X-0.160000X-0.222500X0.160000X-0.222500X0.160000X0.222500X0*%
%ADD15RoundRect,0.160000X-0.222500X-0.160000X0.222500X-0.160000X0.222500X0.160000X-0.222500X0.160000X0*%
%ADD16RoundRect,0.250000X-0.350000X-0.450000X0.350000X-0.450000X0.350000X0.450000X-0.350000X0.450000X0*%
%ADD17RoundRect,0.250001X2.324999X-1.074999X2.324999X1.074999X-2.324999X1.074999X-2.324999X-1.074999X0*%
%ADD18RoundRect,0.250001X-1.074999X0.462499X-1.074999X-0.462499X1.074999X-0.462499X1.074999X0.462499X0*%
G04 APERTURE END LIST*
D10*
%TO.C,D20*%
X198100000Y-152137500D03*
X198100000Y-149162500D03*
%TD*%
D11*
%TO.C,D16*%
X213322500Y-159050000D03*
X212177500Y-159050000D03*
%TD*%
%TO.C,D8*%
X212522500Y-135017500D03*
X211377500Y-135017500D03*
%TD*%
%TO.C,D22*%
X212007500Y-110150000D03*
X210862500Y-110150000D03*
%TD*%
D12*
%TO.C,R9*%
X77487500Y-136250000D03*
X75487500Y-136250000D03*
%TD*%
D13*
%TO.C,R6*%
X177750000Y-165600000D03*
X177750000Y-167600000D03*
%TD*%
D14*
%TO.C,D5*%
X177750000Y-161850000D03*
X177750000Y-162995000D03*
%TD*%
D10*
%TO.C,D21*%
X145600000Y-60187500D03*
X145600000Y-57212500D03*
%TD*%
D11*
%TO.C,D4*%
X161607500Y-117500000D03*
X160462500Y-117500000D03*
%TD*%
D12*
%TO.C,R29*%
X165587500Y-61600000D03*
X163587500Y-61600000D03*
%TD*%
D11*
%TO.C,D15*%
X162457500Y-91800000D03*
X161312500Y-91800000D03*
%TD*%
D12*
%TO.C,R27*%
X165112500Y-111400000D03*
X163112500Y-111400000D03*
%TD*%
D15*
%TO.C,D14*%
X124377500Y-150950000D03*
X125522500Y-150950000D03*
%TD*%
D12*
%TO.C,R26*%
X164850000Y-136600000D03*
X162850000Y-136600000D03*
%TD*%
D16*
%TO.C,R14*%
X120187500Y-164000000D03*
X122187500Y-164000000D03*
%TD*%
%TO.C,R21*%
X150300000Y-58800000D03*
X152300000Y-58800000D03*
%TD*%
%TO.C,R12*%
X150437500Y-108800000D03*
X152437500Y-108800000D03*
%TD*%
%TO.C,R1*%
X61362500Y-139600000D03*
X63362500Y-139600000D03*
%TD*%
%TO.C,R13*%
X201137500Y-126000000D03*
X203137500Y-126000000D03*
%TD*%
D10*
%TO.C,D19*%
X145400000Y-85037500D03*
X145400000Y-82062500D03*
%TD*%
D12*
%TO.C,R18*%
X136037500Y-159600000D03*
X134037500Y-159600000D03*
%TD*%
%TO.C,R28*%
X216850000Y-128900000D03*
X214850000Y-128900000D03*
%TD*%
D16*
%TO.C,R19*%
X150437500Y-83450000D03*
X152437500Y-83450000D03*
%TD*%
D17*
%TO.C,D24*%
X156900000Y-191125000D03*
X156900000Y-184575000D03*
%TD*%
D10*
%TO.C,D12*%
X146350000Y-110387500D03*
X146350000Y-107412500D03*
%TD*%
D16*
%TO.C,R10*%
X91692500Y-159890000D03*
X93692500Y-159890000D03*
%TD*%
D11*
%TO.C,D3*%
X159622500Y-142200000D03*
X158477500Y-142200000D03*
%TD*%
D18*
%TO.C,D18*%
X141300000Y-158112500D03*
X141300000Y-161087500D03*
%TD*%
D12*
%TO.C,R34*%
X215662500Y-99600000D03*
X213662500Y-99600000D03*
%TD*%
%TO.C,R17*%
X165712500Y-55850000D03*
X163712500Y-55850000D03*
%TD*%
%TO.C,R16*%
X217712500Y-147700000D03*
X215712500Y-147700000D03*
%TD*%
D10*
%TO.C,D10*%
X87680000Y-161027500D03*
X87680000Y-158052500D03*
%TD*%
%TO.C,D13*%
X195700000Y-127937500D03*
X195700000Y-124962500D03*
%TD*%
D12*
%TO.C,R33*%
X217700000Y-153000000D03*
X215700000Y-153000000D03*
%TD*%
%TO.C,R15*%
X165762500Y-81300000D03*
X163762500Y-81300000D03*
%TD*%
D16*
%TO.C,R20*%
X202762500Y-150750000D03*
X204762500Y-150750000D03*
%TD*%
%TO.C,R11*%
X149800000Y-134150000D03*
X151800000Y-134150000D03*
%TD*%
D10*
%TO.C,D23*%
X197050000Y-103387500D03*
X197050000Y-100412500D03*
%TD*%
D16*
%TO.C,R24*%
X61387500Y-134500000D03*
X63387500Y-134500000D03*
%TD*%
%TO.C,R23*%
X115250000Y-147400000D03*
X117250000Y-147400000D03*
%TD*%
D12*
%TO.C,R4*%
X165112500Y-106100000D03*
X163112500Y-106100000D03*
%TD*%
%TO.C,R5*%
X216850000Y-123100000D03*
X214850000Y-123100000D03*
%TD*%
D16*
%TO.C,R35*%
X200962500Y-101700000D03*
X202962500Y-101700000D03*
%TD*%
D12*
%TO.C,R2*%
X106330000Y-156390000D03*
X104330000Y-156390000D03*
%TD*%
D10*
%TO.C,D11*%
X146150000Y-135487500D03*
X146150000Y-132512500D03*
%TD*%
D18*
%TO.C,D9*%
X81600000Y-134512500D03*
X81600000Y-137487500D03*
%TD*%
D11*
%TO.C,D2*%
X102502500Y-167490000D03*
X101357500Y-167490000D03*
%TD*%
D15*
%TO.C,D1*%
X65642500Y-127700000D03*
X66787500Y-127700000D03*
%TD*%
D11*
%TO.C,D17*%
X163007500Y-67000000D03*
X161862500Y-67000000D03*
%TD*%
D16*
%TO.C,R22*%
X110840000Y-147400000D03*
X112840000Y-147400000D03*
%TD*%
D12*
%TO.C,R25*%
X106130000Y-161740000D03*
X104130000Y-161740000D03*
%TD*%
D16*
%TO.C,R31*%
X120287500Y-157400000D03*
X122287500Y-157400000D03*
%TD*%
D12*
%TO.C,R32*%
X215637500Y-105800000D03*
X213637500Y-105800000D03*
%TD*%
%TO.C,R30*%
X165812500Y-86650000D03*
X163812500Y-86650000D03*
%TD*%
%TO.C,R3*%
X164850000Y-131100000D03*
X162850000Y-131100000D03*
%TD*%
M02*
