M48
; DRILL file {KiCad (6.0.5-0)} date Saturday, February 03, 2024 at 11:16:42 PM
; FORMAT={-:-/ absolute / metric / decimal}
; #@! TF.CreationDate,2024-02-03T23:16:42-05:00
; #@! TF.GenerationSoftware,Kicad,Pcbnew,(6.0.5-0)
; #@! TF.FileFunction,Plated,1,2,PTH
FMAT,2
METRIC
; #@! TA.AperFunction,Plated,PTH,ViaDrill
T1C0.400
; #@! TA.AperFunction,Plated,PTH,ComponentDrill
T2C0.600
; #@! TA.AperFunction,Plated,PTH,ComponentDrill
T3C0.750
; #@! TA.AperFunction,Plated,PTH,ComponentDrill
T4C0.850
; #@! TA.AperFunction,Plated,PTH,ComponentDrill
T5C1.000
; #@! TA.AperFunction,Plated,PTH,ComponentDrill
T6C1.016
; #@! TA.AperFunction,Plated,PTH,ComponentDrill
T7C1.020
; #@! TA.AperFunction,Plated,PTH,ComponentDrill
T8C1.300
; #@! TA.AperFunction,Plated,PTH,ComponentDrill
T9C1.500
; #@! TA.AperFunction,Plated,PTH,ComponentDrill
T10C1.850
; #@! TA.AperFunction,Plated,PTH,ComponentDrill
T11C2.000
; #@! TA.AperFunction,Plated,PTH,ComponentDrill
T12C2.700
; #@! TA.AperFunction,Plated,PTH,ComponentDrill
T13C4.090
%
G90
G05
T1
X54.2Y-89.95
X55.058Y-87.888
X56.382Y-62.352
X63.153Y-104.4
X64.946Y-135.886
X69.665Y-132.028
X69.8Y-94.25
X74.15Y-94.8
X78.734Y-111.478
X81.9Y-111.3
X81.964Y-57.085
X82.955Y-61.482
X83.137Y-123.655
X83.405Y-105.154
X90.097Y-84.282
X93.672Y-97.215
X97.317Y-54.342
X99.151Y-51.942
X99.762Y-109.017
X100.716Y-140.141
X105.594Y-102.919
X106.244Y-160.364
X107.848Y-137.144
X109.394Y-137.237
X110.932Y-148.912
X112.15Y-110.502
X117.25Y-146.073
X118.099Y-127.879
X127.901Y-119.535
X152.6Y-191.25
X153.855Y-163.477
X162.544Y-127.761
X162.988Y-134.928
X164.357Y-107.628
X166.696Y-105.722
X169.3Y-107.295
X169.311Y-88.29
X169.657Y-108.395
X171.855Y-88.826
X176.814Y-161.85
X200.994Y-107.217
X213.415Y-136.619
T3
X79.51Y-128.85
X80.78Y-128.85
X82.05Y-128.85
X89.79Y-166.64
X91.06Y-166.64
X92.33Y-166.64
X138.01Y-151.5
X139.28Y-151.5
X140.55Y-151.5
X146.4Y-117.35
X146.93Y-91.41
X147.15Y-67.2
X147.67Y-117.35
X147.9Y-142.15
X148.2Y-91.41
X148.42Y-67.2
X148.94Y-117.35
X149.17Y-142.15
X149.47Y-91.41
X149.69Y-67.2
X150.44Y-142.15
X196.48Y-109.31
X197.75Y-109.31
X197.85Y-158.3
X198.1Y-133.5
X199.02Y-109.31
X199.12Y-158.3
X199.37Y-133.5
X200.39Y-158.3
X200.64Y-133.5
T4
X68.43Y-132.44
X68.43Y-140.06
X70.97Y-132.44
X70.97Y-140.06
X97.86Y-155.28
X97.86Y-162.9
X100.4Y-155.28
X100.4Y-162.9
X126.63Y-156.29
X126.63Y-163.91
X129.17Y-156.29
X129.17Y-163.91
X156.03Y-130.107
X156.03Y-137.727
X156.73Y-80.307
X156.73Y-87.927
X156.78Y-105.14
X156.78Y-112.76
X156.83Y-54.74
X156.83Y-62.36
X158.57Y-130.107
X158.57Y-137.727
X159.27Y-80.307
X159.27Y-87.927
X159.32Y-105.14
X159.32Y-112.76
X159.37Y-54.74
X159.37Y-62.36
X206.98Y-98.257
X206.98Y-105.877
X207.28Y-123.04
X207.28Y-130.66
X208.68Y-147.007
X208.68Y-154.627
X209.52Y-98.257
X209.52Y-105.877
X209.82Y-123.04
X209.82Y-130.66
X211.22Y-147.007
X211.22Y-154.627
T5
X40.85Y-141.7
X40.85Y-148.95
X40.85Y-157.65
X40.85Y-165.6
X43.39Y-141.7
X43.39Y-148.95
X43.39Y-157.65
X43.39Y-165.6
X45.93Y-148.95
X56.6Y-79.78
X56.6Y-82.32
X56.6Y-84.86
X56.6Y-87.4
X60.625Y-34.16
X60.625Y-36.7
X63.165Y-34.16
X63.165Y-36.7
X65.705Y-34.16
X65.705Y-36.7
X68.245Y-34.16
X68.245Y-36.7
X70.785Y-34.16
X70.785Y-36.7
X73.325Y-34.16
X73.325Y-36.7
X74.875Y-84.76
X74.875Y-87.3
X77.415Y-84.76
X77.415Y-87.3
X79.955Y-84.76
X79.955Y-87.3
X80.16Y-142.4
X82.495Y-84.76
X82.495Y-87.3
X82.7Y-142.4
X85.035Y-84.76
X85.035Y-87.3
X87.575Y-84.76
X87.575Y-87.3
X89.63Y-152.74
X92.17Y-152.74
X137.36Y-167.45
X139.9Y-167.45
X146.275Y-102.05
X147.025Y-52.05
X147.6Y-77.15
X147.6Y-126.85
X148.815Y-102.05
X149.565Y-52.05
X150.14Y-77.15
X150.14Y-126.85
X175.26Y-172.58
X175.26Y-213.22
X193.04Y-172.58
X193.04Y-213.22
X197.6Y-119.7
X198.41Y-95.4
X198.6Y-143.85
X200.14Y-119.7
X200.95Y-95.4
X201.14Y-143.85
X212.22Y-84.05
X212.27Y-68.05
X212.27Y-75.35
X214.76Y-84.05
X214.81Y-68.05
X214.81Y-75.35
X217.3Y-84.05
X217.35Y-68.05
X217.35Y-75.35
T6
X98.62Y-102.5
X98.62Y-105.04
X98.62Y-107.58
X98.62Y-110.12
X98.62Y-112.66
X98.62Y-115.2
X99.62Y-53.4
X99.62Y-55.94
X99.62Y-58.48
X99.62Y-61.02
X99.62Y-63.56
X99.62Y-66.1
X108.78Y-102.5
X108.78Y-105.04
X108.78Y-107.58
X108.78Y-110.12
X108.78Y-112.66
X108.78Y-115.2
X109.78Y-53.4
X109.78Y-55.94
X109.78Y-58.48
X109.78Y-61.02
X109.78Y-63.56
X109.78Y-66.1
T7
X39.775Y-50.76
X39.775Y-68.54
X40.225Y-100.11
X40.225Y-117.89
X42.315Y-50.76
X42.315Y-68.54
X42.765Y-100.11
X42.765Y-117.89
X44.855Y-50.76
X44.855Y-68.54
X45.305Y-100.11
X45.305Y-117.89
X47.395Y-50.76
X47.395Y-68.54
X47.845Y-100.11
X47.845Y-117.89
X49.935Y-50.76
X49.935Y-68.54
X50.385Y-100.11
X50.385Y-117.89
X52.475Y-50.76
X52.475Y-68.54
X52.925Y-100.11
X52.925Y-117.89
X55.015Y-50.76
X55.015Y-68.54
X55.465Y-100.11
X55.465Y-117.89
X57.555Y-50.76
X57.555Y-68.54
X58.005Y-100.11
X58.005Y-117.89
X60.095Y-50.76
X60.095Y-68.54
X60.545Y-100.11
X60.545Y-117.89
X62.635Y-50.76
X62.635Y-68.54
X63.085Y-100.11
X63.085Y-117.89
X65.175Y-50.76
X65.175Y-68.54
X65.625Y-100.11
X65.625Y-117.89
X67.715Y-50.76
X67.715Y-68.54
X68.165Y-100.11
X68.165Y-117.89
X70.255Y-50.76
X70.255Y-68.54
X70.705Y-100.11
X70.705Y-117.89
X72.795Y-50.76
X72.795Y-68.54
X73.245Y-100.11
X73.245Y-117.89
X75.335Y-50.76
X75.335Y-68.54
X75.785Y-100.11
X75.785Y-117.89
X77.875Y-50.76
X77.875Y-68.54
X78.325Y-100.11
X78.325Y-117.89
X80.415Y-50.76
X80.415Y-68.54
X80.865Y-100.11
X80.865Y-117.89
X82.955Y-50.76
X82.955Y-68.54
X83.405Y-100.11
X83.405Y-117.89
X85.495Y-50.76
X85.495Y-68.54
X85.945Y-100.11
X85.945Y-117.89
X87.805Y-57.11
X87.805Y-59.65
X87.805Y-62.19
X88.035Y-50.76
X88.035Y-68.54
X88.255Y-106.46
X88.255Y-109.0
X88.255Y-111.54
X88.485Y-100.11
X88.485Y-117.89
T8
X66.63Y-154.04
X66.63Y-166.04
X78.83Y-154.04
X78.83Y-166.04
X80.83Y-160.04
X88.85Y-136.9
X90.85Y-130.9
X90.85Y-142.9
X103.05Y-130.9
X103.05Y-142.9
X124.45Y-52.95
X124.45Y-64.95
X124.9Y-79.15
X124.9Y-91.15
X125.6Y-103.3
X125.6Y-115.3
X125.7Y-128.65
X125.7Y-140.65
X136.65Y-52.95
X136.65Y-64.95
X137.1Y-79.15
X137.1Y-91.15
X137.8Y-103.3
X137.8Y-115.3
X137.9Y-128.65
X137.9Y-140.65
X138.65Y-58.95
X139.1Y-85.15
X139.8Y-109.3
X139.9Y-134.65
X148.45Y-160.05
X150.45Y-154.05
X150.45Y-166.05
X162.65Y-154.05
X162.65Y-166.05
X175.25Y-120.4
X175.25Y-132.4
X176.7Y-96.2
X176.7Y-108.2
X177.7Y-144.8
X177.7Y-156.8
X187.45Y-120.4
X187.45Y-132.4
X188.9Y-96.2
X188.9Y-108.2
X189.45Y-126.4
X189.9Y-144.8
X189.9Y-156.8
X190.9Y-102.2
X191.9Y-150.8
T10
X40.9Y-131.35
X45.6Y-131.35
X50.3Y-131.35
T12
X61.216Y-206.15
X61.216Y-213.35
X61.566Y-181.55
X61.566Y-188.75
X117.85Y-228.1
X125.05Y-228.1
X138.9Y-227.934
X146.1Y-227.934
X161.55Y-227.95
X168.75Y-227.95
X186.8Y-228.1
X194.0Y-228.1
X203.55Y-210.4
X203.55Y-217.6
X203.634Y-190.25
X203.634Y-197.45
X203.65Y-170.3
X203.65Y-177.5
T13
X74.665Y-189.005
X74.79Y-213.3
X82.995Y-189.005
X83.12Y-213.3
X95.695Y-189.005
X95.82Y-213.3
X104.025Y-189.005
X104.15Y-213.3
T2
X54.666Y-203.0G85X55.766Y-203.0
G05
X54.666Y-216.5G85X55.766Y-216.5
G05
X55.016Y-178.4G85X56.116Y-178.4
G05
X55.016Y-191.9G85X56.116Y-191.9
G05
X114.7Y-234.65G85X114.7Y-233.55
G05
X128.2Y-234.65G85X128.2Y-233.55
G05
X135.75Y-234.484G85X135.75Y-233.384
G05
X149.25Y-234.484G85X149.25Y-233.384
G05
X158.4Y-234.5G85X158.4Y-233.4
G05
X171.9Y-234.5G85X171.9Y-233.4
G05
X183.65Y-234.65G85X183.65Y-233.55
G05
X197.15Y-234.65G85X197.15Y-233.55
G05
X210.1Y-207.25G85X209.0Y-207.25
G05
X210.1Y-220.75G85X209.0Y-220.75
G05
X210.184Y-187.1G85X209.084Y-187.1
G05
X210.184Y-200.6G85X209.084Y-200.6
G05
X210.2Y-167.15G85X209.1Y-167.15
G05
X210.2Y-180.65G85X209.1Y-180.65
G05
T9
X126.495Y-190.405G85X132.995Y-190.405
G05
X126.495Y-207.405G85X132.995Y-207.405
G05
T11
X122.245Y-202.905G85X122.245Y-194.905
G05
X136.245Y-198.905G85X144.245Y-198.905
G05
T0
M30
