%TF.GenerationSoftware,KiCad,Pcbnew,(6.0.5-0)*%
%TF.CreationDate,2024-02-03T23:16:41-05:00*%
%TF.ProjectId,RoboBoat PCB,526f626f-426f-4617-9420-5043422e6b69,rev?*%
%TF.SameCoordinates,Original*%
%TF.FileFunction,Soldermask,Bot*%
%TF.FilePolarity,Negative*%
%FSLAX46Y46*%
G04 Gerber Fmt 4.6, Leading zero omitted, Abs format (unit mm)*
G04 Created by KiCad (PCBNEW (6.0.5-0)) date 2024-02-03 23:16:41*
%MOMM*%
%LPD*%
G01*
G04 APERTURE LIST*
G04 Aperture macros list*
%AMRoundRect*
0 Rectangle with rounded corners*
0 $1 Rounding radius*
0 $2 $3 $4 $5 $6 $7 $8 $9 X,Y pos of 4 corners*
0 Add a 4 corners polygon primitive as box body*
4,1,4,$2,$3,$4,$5,$6,$7,$8,$9,$2,$3,0*
0 Add four circle primitives for the rounded corners*
1,1,$1+$1,$2,$3*
1,1,$1+$1,$4,$5*
1,1,$1+$1,$6,$7*
1,1,$1+$1,$8,$9*
0 Add four rect primitives between the rounded corners*
20,1,$1+$1,$2,$3,$4,$5,0*
20,1,$1+$1,$4,$5,$6,$7,0*
20,1,$1+$1,$6,$7,$8,$9,0*
20,1,$1+$1,$8,$9,$2,$3,0*%
G04 Aperture macros list end*
%ADD10R,1.700000X1.700000*%
%ADD11O,1.700000X1.700000*%
%ADD12R,1.260000X1.260000*%
%ADD13C,1.260000*%
%ADD14C,3.000000*%
%ADD15R,3.716000X3.716000*%
%ADD16C,3.716000*%
%ADD17O,1.200000X2.400000*%
%ADD18RoundRect,0.102000X1.387500X1.387500X-1.387500X1.387500X-1.387500X-1.387500X1.387500X-1.387500X0*%
%ADD19C,2.979000*%
%ADD20C,5.794000*%
%ADD21O,1.500000X1.500000*%
%ADD22O,1.800000X1.800000*%
%ADD23R,1.050000X1.500000*%
%ADD24O,1.050000X1.500000*%
%ADD25R,2.540000X2.540000*%
%ADD26C,2.540000*%
%ADD27O,2.400000X1.200000*%
%ADD28R,15.000000X4.000000*%
%ADD29R,9.000000X4.000000*%
%ADD30R,4.000000X12.000000*%
%ADD31C,1.524000*%
%ADD32R,1.524000X1.524000*%
%ADD33C,5.300000*%
G04 APERTURE END LIST*
D10*
%TO.C,J13*%
X147600000Y-126850000D03*
D11*
X150140000Y-126850000D03*
%TD*%
D12*
%TO.C,Q19*%
X206980000Y-105877500D03*
D13*
X209520000Y-105877500D03*
X209520000Y-98257500D03*
X206980000Y-98257500D03*
%TD*%
D12*
%TO.C,Q12*%
X156730000Y-87927500D03*
D13*
X159270000Y-87927500D03*
X159270000Y-80307500D03*
X156730000Y-80307500D03*
%TD*%
D10*
%TO.C,J10*%
X40850000Y-165600000D03*
D11*
X43390000Y-165600000D03*
%TD*%
D10*
%TO.C,J7*%
X60625000Y-34160000D03*
D11*
X60625000Y-36700000D03*
X63165000Y-34160000D03*
X63165000Y-36700000D03*
X65705000Y-34160000D03*
X65705000Y-36700000D03*
X68245000Y-34160000D03*
X68245000Y-36700000D03*
X70785000Y-34160000D03*
X70785000Y-36700000D03*
X73325000Y-34160000D03*
X73325000Y-36700000D03*
%TD*%
D14*
%TO.C,K9*%
X138650000Y-58950000D03*
X124450000Y-64950000D03*
X124450000Y-52950000D03*
X136650000Y-52950000D03*
X136650000Y-64950000D03*
%TD*%
D10*
%TO.C,J29*%
X200950000Y-95400000D03*
D11*
X198410000Y-95400000D03*
%TD*%
D10*
%TO.C,J30*%
X40850000Y-141700000D03*
D11*
X43390000Y-141700000D03*
%TD*%
D15*
%TO.C,J20*%
X125050000Y-228100000D03*
D16*
X117850000Y-228100000D03*
D17*
X128200000Y-234100000D03*
X114700000Y-234100000D03*
%TD*%
D10*
%TO.C,J14*%
X146275000Y-102050000D03*
D11*
X148815000Y-102050000D03*
%TD*%
D18*
%TO.C,S2*%
X50300000Y-131350000D03*
D19*
X45600000Y-131350000D03*
X40900000Y-131350000D03*
%TD*%
D12*
%TO.C,Q5*%
X207280000Y-130660000D03*
D13*
X209820000Y-130660000D03*
X209820000Y-123040000D03*
X207280000Y-123040000D03*
%TD*%
D12*
%TO.C,Q2*%
X97860000Y-162900000D03*
D13*
X100400000Y-162900000D03*
X100400000Y-155280000D03*
X97860000Y-155280000D03*
%TD*%
D20*
%TO.C,F1*%
X74790000Y-213300000D03*
X83120000Y-213300000D03*
X95820000Y-213300000D03*
X104150000Y-213300000D03*
%TD*%
D21*
%TO.C,U4*%
X42935000Y-62075000D03*
D22*
X39905000Y-56925000D03*
X39905000Y-62375000D03*
D21*
X42935000Y-57225000D03*
D11*
X39775000Y-68540000D03*
X42315000Y-68540000D03*
D10*
X44855000Y-68540000D03*
D11*
X47395000Y-68540000D03*
X49935000Y-68540000D03*
X52475000Y-68540000D03*
X55015000Y-68540000D03*
D10*
X57555000Y-68540000D03*
D11*
X60095000Y-68540000D03*
X62635000Y-68540000D03*
X65175000Y-68540000D03*
X67715000Y-68540000D03*
D10*
X70255000Y-68540000D03*
D11*
X72795000Y-68540000D03*
X75335000Y-68540000D03*
X77875000Y-68540000D03*
X80415000Y-68540000D03*
D10*
X82955000Y-68540000D03*
D11*
X85495000Y-68540000D03*
X88035000Y-68540000D03*
X88035000Y-50760000D03*
X85495000Y-50760000D03*
D10*
X82955000Y-50760000D03*
D11*
X80415000Y-50760000D03*
X77875000Y-50760000D03*
X75335000Y-50760000D03*
X72795000Y-50760000D03*
D10*
X70255000Y-50760000D03*
D11*
X67715000Y-50760000D03*
X65175000Y-50760000D03*
X62635000Y-50760000D03*
X60095000Y-50760000D03*
D10*
X57555000Y-50760000D03*
D11*
X55015000Y-50760000D03*
X52475000Y-50760000D03*
X49935000Y-50760000D03*
X47395000Y-50760000D03*
D10*
X44855000Y-50760000D03*
D11*
X42315000Y-50760000D03*
X39775000Y-50760000D03*
X87805000Y-62190000D03*
D10*
X87805000Y-59650000D03*
D11*
X87805000Y-57110000D03*
%TD*%
D23*
%TO.C,Q18*%
X147150000Y-67200000D03*
D24*
X148420000Y-67200000D03*
X149690000Y-67200000D03*
%TD*%
D25*
%TO.C,U6*%
X175260000Y-213220000D03*
D26*
X193040000Y-213220000D03*
X193040000Y-172580000D03*
X175260000Y-172580000D03*
%TD*%
D15*
%TO.C,J26*%
X203634300Y-190250000D03*
D16*
X203634300Y-197450000D03*
D27*
X209634300Y-187100000D03*
X209634300Y-200600000D03*
%TD*%
D14*
%TO.C,K8*%
X191900000Y-150800000D03*
X177700000Y-156800000D03*
X177700000Y-144800000D03*
X189900000Y-144800000D03*
X189900000Y-156800000D03*
%TD*%
D10*
%TO.C,J11*%
X82700000Y-142400000D03*
D11*
X80160000Y-142400000D03*
%TD*%
D10*
%TO.C,J9*%
X40850000Y-157650000D03*
D11*
X43390000Y-157650000D03*
%TD*%
D10*
%TO.C,J8*%
X40850000Y-148950000D03*
D11*
X43390000Y-148950000D03*
X45930000Y-148950000D03*
%TD*%
D15*
%TO.C,J21*%
X146100000Y-227934200D03*
D16*
X138900000Y-227934200D03*
D17*
X149250000Y-233934200D03*
X135750000Y-233934200D03*
%TD*%
D15*
%TO.C,J24*%
X168750000Y-227950000D03*
D16*
X161550000Y-227950000D03*
D17*
X171900000Y-233950000D03*
X158400000Y-233950000D03*
%TD*%
D10*
%TO.C,J17*%
X147600000Y-77150000D03*
D11*
X150140000Y-77150000D03*
%TD*%
D15*
%TO.C,J22*%
X61215800Y-213350000D03*
D16*
X61215800Y-206150000D03*
D27*
X55215800Y-216500000D03*
X55215800Y-203000000D03*
%TD*%
D23*
%TO.C,Q6*%
X82050000Y-128850000D03*
D24*
X80780000Y-128850000D03*
X79510000Y-128850000D03*
%TD*%
D23*
%TO.C,Q9*%
X146400000Y-117350000D03*
D24*
X147670000Y-117350000D03*
X148940000Y-117350000D03*
%TD*%
D12*
%TO.C,Q1*%
X70970000Y-132440000D03*
D13*
X68430000Y-132440000D03*
X68430000Y-140060000D03*
X70970000Y-140060000D03*
%TD*%
D10*
%TO.C,J12*%
X89630000Y-152740000D03*
D11*
X92170000Y-152740000D03*
%TD*%
D10*
%TO.C,J16*%
X139900000Y-167450000D03*
D11*
X137360000Y-167450000D03*
%TD*%
D14*
%TO.C,K5*%
X189450000Y-126400000D03*
X175250000Y-132400000D03*
X175250000Y-120400000D03*
X187450000Y-120400000D03*
X187450000Y-132400000D03*
%TD*%
%TO.C,K2*%
X80830000Y-160040000D03*
X66630000Y-166040000D03*
X66630000Y-154040000D03*
X78830000Y-154040000D03*
X78830000Y-166040000D03*
%TD*%
D28*
%TO.C,K10*%
X140245000Y-198905000D03*
D29*
X129745000Y-207405000D03*
X129745000Y-190405000D03*
D30*
X122245000Y-198905000D03*
%TD*%
D31*
%TO.C,U1*%
X108780000Y-110120000D03*
X98620000Y-110120000D03*
X108780000Y-107580000D03*
D32*
X108780000Y-102500000D03*
D31*
X108780000Y-105040000D03*
X108780000Y-112660000D03*
X108780000Y-115200000D03*
X98620000Y-107580000D03*
D32*
X98620000Y-102500000D03*
D31*
X98620000Y-105040000D03*
X98620000Y-112660000D03*
X98620000Y-115200000D03*
%TD*%
D23*
%TO.C,Q10*%
X198100000Y-133500000D03*
D24*
X199370000Y-133500000D03*
X200640000Y-133500000D03*
%TD*%
D14*
%TO.C,K1*%
X88850000Y-136900000D03*
X103050000Y-130900000D03*
X103050000Y-142900000D03*
X90850000Y-142900000D03*
X90850000Y-130900000D03*
%TD*%
%TO.C,K7*%
X139100000Y-85150000D03*
X124900000Y-91150000D03*
X124900000Y-79150000D03*
X137100000Y-79150000D03*
X137100000Y-91150000D03*
%TD*%
D33*
%TO.C,H2*%
X216300000Y-35900000D03*
%TD*%
D10*
%TO.C,J2*%
X217300000Y-84050000D03*
D11*
X214760000Y-84050000D03*
X212220000Y-84050000D03*
%TD*%
D22*
%TO.C,U3*%
X40355000Y-111725000D03*
D21*
X43385000Y-111425000D03*
X43385000Y-106575000D03*
D22*
X40355000Y-106275000D03*
D11*
X40225000Y-117890000D03*
X42765000Y-117890000D03*
D10*
X45305000Y-117890000D03*
D11*
X47845000Y-117890000D03*
X50385000Y-117890000D03*
X52925000Y-117890000D03*
X55465000Y-117890000D03*
D10*
X58005000Y-117890000D03*
D11*
X60545000Y-117890000D03*
X63085000Y-117890000D03*
X65625000Y-117890000D03*
X68165000Y-117890000D03*
D10*
X70705000Y-117890000D03*
D11*
X73245000Y-117890000D03*
X75785000Y-117890000D03*
X78325000Y-117890000D03*
X80865000Y-117890000D03*
D10*
X83405000Y-117890000D03*
D11*
X85945000Y-117890000D03*
X88485000Y-117890000D03*
X88485000Y-100110000D03*
X85945000Y-100110000D03*
D10*
X83405000Y-100110000D03*
D11*
X80865000Y-100110000D03*
X78325000Y-100110000D03*
X75785000Y-100110000D03*
X73245000Y-100110000D03*
D10*
X70705000Y-100110000D03*
D11*
X68165000Y-100110000D03*
X65625000Y-100110000D03*
X63085000Y-100110000D03*
X60545000Y-100110000D03*
D10*
X58005000Y-100110000D03*
D11*
X55465000Y-100110000D03*
X52925000Y-100110000D03*
X50385000Y-100110000D03*
X47845000Y-100110000D03*
D10*
X45305000Y-100110000D03*
D11*
X42765000Y-100110000D03*
X40225000Y-100110000D03*
X88255000Y-111540000D03*
D10*
X88255000Y-109000000D03*
D11*
X88255000Y-106460000D03*
%TD*%
D10*
%TO.C,J6*%
X217350000Y-75350000D03*
D11*
X214810000Y-75350000D03*
X212270000Y-75350000D03*
%TD*%
D33*
%TO.C,H4*%
X44350000Y-35550000D03*
%TD*%
D10*
%TO.C,J18*%
X198600000Y-143850000D03*
D11*
X201140000Y-143850000D03*
%TD*%
D14*
%TO.C,K3*%
X139900000Y-134650000D03*
X125700000Y-140650000D03*
X125700000Y-128650000D03*
X137900000Y-128650000D03*
X137900000Y-140650000D03*
%TD*%
D10*
%TO.C,J3*%
X56600000Y-87400000D03*
D11*
X56600000Y-84860000D03*
X56600000Y-82320000D03*
X56600000Y-79780000D03*
%TD*%
D10*
%TO.C,J4*%
X217350000Y-68050000D03*
D11*
X214810000Y-68050000D03*
X212270000Y-68050000D03*
%TD*%
D15*
%TO.C,J23*%
X61565800Y-188750000D03*
D16*
X61565800Y-181550000D03*
D27*
X55565800Y-191900000D03*
X55565800Y-178400000D03*
%TD*%
D23*
%TO.C,Q7*%
X89790000Y-166640000D03*
D24*
X91060000Y-166640000D03*
X92330000Y-166640000D03*
%TD*%
D33*
%TO.C,H1*%
X48400000Y-240550000D03*
%TD*%
D23*
%TO.C,Q17*%
X197850000Y-158300000D03*
D24*
X199120000Y-158300000D03*
X200390000Y-158300000D03*
%TD*%
D15*
%TO.C,J28*%
X203650000Y-170300000D03*
D16*
X203650000Y-177500000D03*
D27*
X209650000Y-167150000D03*
X209650000Y-180650000D03*
%TD*%
D14*
%TO.C,K11*%
X190900000Y-102200000D03*
X176700000Y-108200000D03*
X176700000Y-96200000D03*
X188900000Y-96200000D03*
X188900000Y-108200000D03*
%TD*%
%TO.C,K6*%
X148450000Y-160050000D03*
X162650000Y-154050000D03*
X162650000Y-166050000D03*
X150450000Y-166050000D03*
X150450000Y-154050000D03*
%TD*%
D33*
%TO.C,H3*%
X216450000Y-240400000D03*
%TD*%
D23*
%TO.C,Q20*%
X196480000Y-109310000D03*
D24*
X197750000Y-109310000D03*
X199020000Y-109310000D03*
%TD*%
D23*
%TO.C,Q15*%
X140550000Y-151500000D03*
D24*
X139280000Y-151500000D03*
X138010000Y-151500000D03*
%TD*%
D10*
%TO.C,J15*%
X197600000Y-119700000D03*
D11*
X200140000Y-119700000D03*
%TD*%
D12*
%TO.C,Q3*%
X156030000Y-137727500D03*
D13*
X158570000Y-137727500D03*
X158570000Y-130107500D03*
X156030000Y-130107500D03*
%TD*%
D15*
%TO.C,J27*%
X203550000Y-210400000D03*
D16*
X203550000Y-217600000D03*
D27*
X209550000Y-207250000D03*
X209550000Y-220750000D03*
%TD*%
D14*
%TO.C,K4*%
X139800000Y-109300000D03*
X125600000Y-115300000D03*
X125600000Y-103300000D03*
X137800000Y-103300000D03*
X137800000Y-115300000D03*
%TD*%
D12*
%TO.C,Q4*%
X156780000Y-112760000D03*
D13*
X159320000Y-112760000D03*
X159320000Y-105140000D03*
X156780000Y-105140000D03*
%TD*%
D10*
%TO.C,J1*%
X74875000Y-84760000D03*
D11*
X74875000Y-87300000D03*
X77415000Y-84760000D03*
X77415000Y-87300000D03*
X79955000Y-84760000D03*
X79955000Y-87300000D03*
X82495000Y-84760000D03*
X82495000Y-87300000D03*
X85035000Y-84760000D03*
X85035000Y-87300000D03*
X87575000Y-84760000D03*
X87575000Y-87300000D03*
%TD*%
D23*
%TO.C,Q8*%
X147900000Y-142150000D03*
D24*
X149170000Y-142150000D03*
X150440000Y-142150000D03*
%TD*%
D15*
%TO.C,J25*%
X194000000Y-228100000D03*
D16*
X186800000Y-228100000D03*
D17*
X197150000Y-234100000D03*
X183650000Y-234100000D03*
%TD*%
D10*
%TO.C,J19*%
X147025000Y-52050000D03*
D11*
X149565000Y-52050000D03*
%TD*%
D12*
%TO.C,Q11*%
X129170000Y-156290000D03*
D13*
X126630000Y-156290000D03*
X126630000Y-163910000D03*
X129170000Y-163910000D03*
%TD*%
D12*
%TO.C,Q13*%
X208680000Y-154627500D03*
D13*
X211220000Y-154627500D03*
X211220000Y-147007500D03*
X208680000Y-147007500D03*
%TD*%
D12*
%TO.C,Q14*%
X156830000Y-62360000D03*
D13*
X159370000Y-62360000D03*
X159370000Y-54740000D03*
X156830000Y-54740000D03*
%TD*%
D23*
%TO.C,Q16*%
X146930000Y-91410000D03*
D24*
X148200000Y-91410000D03*
X149470000Y-91410000D03*
%TD*%
D20*
%TO.C,F2*%
X74665000Y-189005000D03*
X82995000Y-189005000D03*
X95695000Y-189005000D03*
X104025000Y-189005000D03*
%TD*%
D31*
%TO.C,U8*%
X109780000Y-61020000D03*
X99620000Y-61020000D03*
X109780000Y-58480000D03*
D32*
X109780000Y-53400000D03*
D31*
X109780000Y-55940000D03*
X109780000Y-63560000D03*
X109780000Y-66100000D03*
X99620000Y-58480000D03*
D32*
X99620000Y-53400000D03*
D31*
X99620000Y-55940000D03*
X99620000Y-63560000D03*
X99620000Y-66100000D03*
%TD*%
M02*
