%TF.GenerationSoftware,KiCad,Pcbnew,(6.0.5-0)*%
%TF.CreationDate,2024-02-03T23:16:40-05:00*%
%TF.ProjectId,RoboBoat PCB,526f626f-426f-4617-9420-5043422e6b69,rev?*%
%TF.SameCoordinates,Original*%
%TF.FileFunction,Copper,L1,Top*%
%TF.FilePolarity,Positive*%
%FSLAX46Y46*%
G04 Gerber Fmt 4.6, Leading zero omitted, Abs format (unit mm)*
G04 Created by KiCad (PCBNEW (6.0.5-0)) date 2024-02-03 23:16:40*
%MOMM*%
%LPD*%
G01*
G04 APERTURE LIST*
G04 Aperture macros list*
%AMRoundRect*
0 Rectangle with rounded corners*
0 $1 Rounding radius*
0 $2 $3 $4 $5 $6 $7 $8 $9 X,Y pos of 4 corners*
0 Add a 4 corners polygon primitive as box body*
4,1,4,$2,$3,$4,$5,$6,$7,$8,$9,$2,$3,0*
0 Add four circle primitives for the rounded corners*
1,1,$1+$1,$2,$3*
1,1,$1+$1,$4,$5*
1,1,$1+$1,$6,$7*
1,1,$1+$1,$8,$9*
0 Add four rect primitives between the rounded corners*
20,1,$1+$1,$2,$3,$4,$5,0*
20,1,$1+$1,$4,$5,$6,$7,0*
20,1,$1+$1,$6,$7,$8,$9,0*
20,1,$1+$1,$8,$9,$2,$3,0*%
G04 Aperture macros list end*
%TA.AperFunction,ComponentPad*%
%ADD10R,1.700000X1.700000*%
%TD*%
%TA.AperFunction,ComponentPad*%
%ADD11O,1.700000X1.700000*%
%TD*%
%TA.AperFunction,ComponentPad*%
%ADD12R,1.260000X1.260000*%
%TD*%
%TA.AperFunction,ComponentPad*%
%ADD13C,1.260000*%
%TD*%
%TA.AperFunction,SMDPad,CuDef*%
%ADD14RoundRect,0.250001X1.074999X-0.462499X1.074999X0.462499X-1.074999X0.462499X-1.074999X-0.462499X0*%
%TD*%
%TA.AperFunction,SMDPad,CuDef*%
%ADD15RoundRect,0.160000X0.222500X0.160000X-0.222500X0.160000X-0.222500X-0.160000X0.222500X-0.160000X0*%
%TD*%
%TA.AperFunction,ComponentPad*%
%ADD16C,3.000000*%
%TD*%
%TA.AperFunction,SMDPad,CuDef*%
%ADD17RoundRect,0.250000X0.350000X0.450000X-0.350000X0.450000X-0.350000X-0.450000X0.350000X-0.450000X0*%
%TD*%
%TA.AperFunction,ComponentPad*%
%ADD18R,3.716000X3.716000*%
%TD*%
%TA.AperFunction,ComponentPad*%
%ADD19C,3.716000*%
%TD*%
%TA.AperFunction,ComponentPad*%
%ADD20O,1.200000X2.400000*%
%TD*%
%TA.AperFunction,SMDPad,CuDef*%
%ADD21RoundRect,0.250000X-0.450000X0.350000X-0.450000X-0.350000X0.450000X-0.350000X0.450000X0.350000X0*%
%TD*%
%TA.AperFunction,SMDPad,CuDef*%
%ADD22RoundRect,0.160000X-0.160000X0.222500X-0.160000X-0.222500X0.160000X-0.222500X0.160000X0.222500X0*%
%TD*%
%TA.AperFunction,ComponentPad*%
%ADD23R,2.775000X2.775000*%
%TD*%
%TA.AperFunction,ComponentPad*%
%ADD24C,2.775000*%
%TD*%
%TA.AperFunction,ComponentPad*%
%ADD25C,5.590000*%
%TD*%
%TA.AperFunction,SMDPad,CuDef*%
%ADD26R,1.700000X3.500000*%
%TD*%
%TA.AperFunction,SMDPad,CuDef*%
%ADD27R,3.500000X1.700000*%
%TD*%
%TA.AperFunction,ComponentPad*%
%ADD28R,1.050000X1.500000*%
%TD*%
%TA.AperFunction,ComponentPad*%
%ADD29O,1.050000X1.500000*%
%TD*%
%TA.AperFunction,ComponentPad*%
%ADD30R,2.540000X2.540000*%
%TD*%
%TA.AperFunction,ComponentPad*%
%ADD31C,2.540000*%
%TD*%
%TA.AperFunction,ComponentPad*%
%ADD32O,2.400000X1.200000*%
%TD*%
%TA.AperFunction,SMDPad,CuDef*%
%ADD33RoundRect,0.160000X-0.222500X-0.160000X0.222500X-0.160000X0.222500X0.160000X-0.222500X0.160000X0*%
%TD*%
%TA.AperFunction,SMDPad,CuDef*%
%ADD34RoundRect,0.250000X-0.350000X-0.450000X0.350000X-0.450000X0.350000X0.450000X-0.350000X0.450000X0*%
%TD*%
%TA.AperFunction,SMDPad,CuDef*%
%ADD35RoundRect,0.250001X2.324999X-1.074999X2.324999X1.074999X-2.324999X1.074999X-2.324999X-1.074999X0*%
%TD*%
%TA.AperFunction,ComponentPad*%
%ADD36R,15.000000X4.000000*%
%TD*%
%TA.AperFunction,ComponentPad*%
%ADD37R,9.000000X4.000000*%
%TD*%
%TA.AperFunction,ComponentPad*%
%ADD38R,4.000000X12.000000*%
%TD*%
%TA.AperFunction,ComponentPad*%
%ADD39C,1.524000*%
%TD*%
%TA.AperFunction,ComponentPad*%
%ADD40R,1.524000X1.524000*%
%TD*%
%TA.AperFunction,SMDPad,CuDef*%
%ADD41RoundRect,0.250001X-1.074999X0.462499X-1.074999X-0.462499X1.074999X-0.462499X1.074999X0.462499X0*%
%TD*%
%TA.AperFunction,ViaPad*%
%ADD42C,0.800000*%
%TD*%
%TA.AperFunction,Conductor*%
%ADD43C,0.250000*%
%TD*%
%TA.AperFunction,Conductor*%
%ADD44C,1.000000*%
%TD*%
%TA.AperFunction,Conductor*%
%ADD45C,0.500000*%
%TD*%
%TA.AperFunction,Conductor*%
%ADD46C,0.300000*%
%TD*%
G04 APERTURE END LIST*
D10*
%TO.P,J13,1,Pin_1*%
%TO.N,Net-(D11-Pad2)*%
X147600000Y-126850000D03*
D11*
%TO.P,J13,2,Pin_2*%
%TO.N,+5V*%
X150140000Y-126850000D03*
%TD*%
D12*
%TO.P,Q19,1*%
%TO.N,Net-(Q19-Pad1)*%
X206980000Y-105877500D03*
D13*
%TO.P,Q19,2*%
%TO.N,Net-(D22-Pad2)*%
X209520000Y-105877500D03*
%TO.P,Q19,3*%
%TO.N,Net-(Q19-Pad3)*%
X209520000Y-98257500D03*
%TO.P,Q19,4*%
%TO.N,Net-(D23-Pad2)*%
X206980000Y-98257500D03*
%TD*%
D12*
%TO.P,Q12,1*%
%TO.N,Net-(Q12-Pad1)*%
X156730000Y-87927500D03*
D13*
%TO.P,Q12,2*%
%TO.N,Net-(D15-Pad2)*%
X159270000Y-87927500D03*
%TO.P,Q12,3*%
%TO.N,Net-(Q12-Pad3)*%
X159270000Y-80307500D03*
%TO.P,Q12,4*%
%TO.N,Net-(D19-Pad2)*%
X156730000Y-80307500D03*
%TD*%
D14*
%TO.P,D20,1,K*%
%TO.N,Net-(D20-Pad1)*%
X198100000Y-152137500D03*
%TO.P,D20,2,A*%
%TO.N,Net-(D20-Pad2)*%
X198100000Y-149162500D03*
%TD*%
D15*
%TO.P,D16,1,K*%
%TO.N,/Boat Relays/WaterCannonSignal*%
X213322500Y-159050000D03*
%TO.P,D16,2,A*%
%TO.N,Net-(D16-Pad2)*%
X212177500Y-159050000D03*
%TD*%
D10*
%TO.P,J10,1,Pin_1*%
%TO.N,GND*%
X40850000Y-165600000D03*
D11*
%TO.P,J10,2,Pin_2*%
%TO.N,/BackMotorOut*%
X43390000Y-165600000D03*
%TD*%
D15*
%TO.P,D8,1,K*%
%TO.N,/RC_Auto{slash}RC_RelaySig*%
X212522500Y-135017500D03*
%TO.P,D8,2,A*%
%TO.N,Net-(D8-Pad2)*%
X211377500Y-135017500D03*
%TD*%
D10*
%TO.P,J7,1,Pin_1*%
%TO.N,+3V3*%
X60625000Y-34160000D03*
D11*
%TO.P,J7,2,Pin_2*%
%TO.N,GND*%
X60625000Y-36700000D03*
%TO.P,J7,3,Pin_3*%
%TO.N,/Auto_3.3V_TX*%
X63165000Y-34160000D03*
%TO.P,J7,4,Pin_4*%
%TO.N,/Auto_3.3V_RX*%
X63165000Y-36700000D03*
%TO.P,J7,5,Pin_5*%
%TO.N,/Auto_3.3V_SCL*%
X65705000Y-34160000D03*
%TO.P,J7,6,Pin_6*%
%TO.N,/Auto_3.3V_SDA*%
X65705000Y-36700000D03*
%TO.P,J7,7,Pin_7*%
%TO.N,/Auto_5V_Tx*%
X68245000Y-34160000D03*
%TO.P,J7,8,Pin_8*%
%TO.N,/Auto_5V_Rx*%
X68245000Y-36700000D03*
%TO.P,J7,9,Pin_9*%
%TO.N,/Auto_5V_SCL*%
X70785000Y-34160000D03*
%TO.P,J7,10,Pin_10*%
%TO.N,/Auto_5V_SDA*%
X70785000Y-36700000D03*
%TO.P,J7,11,Pin_11*%
%TO.N,GND*%
X73325000Y-34160000D03*
%TO.P,J7,12,Pin_12*%
%TO.N,+5V*%
X73325000Y-36700000D03*
%TD*%
D16*
%TO.P,K9,11*%
%TO.N,/TurretServoOut1*%
X138650000Y-58950000D03*
%TO.P,K9,12*%
%TO.N,/3.3V_RC_WCServo1Sig*%
X124450000Y-64950000D03*
%TO.P,K9,14*%
%TO.N,/3.3V_AUTO_WCServo1Sig*%
X124450000Y-52950000D03*
%TO.P,K9,A1*%
%TO.N,Net-(D21-Pad2)*%
X136650000Y-52950000D03*
%TO.P,K9,A2*%
%TO.N,Net-(D21-Pad1)*%
X136650000Y-64950000D03*
%TD*%
D10*
%TO.P,J29,1,Pin_1*%
%TO.N,Net-(D23-Pad2)*%
X200950000Y-95400000D03*
D11*
%TO.P,J29,2,Pin_2*%
%TO.N,+5V*%
X198410000Y-95400000D03*
%TD*%
D15*
%TO.P,D22,1,K*%
%TO.N,Net-(D14-Pad1)*%
X212007500Y-110150000D03*
%TO.P,D22,2,A*%
%TO.N,Net-(D22-Pad2)*%
X210862500Y-110150000D03*
%TD*%
D17*
%TO.P,R9,1*%
%TO.N,Net-(Q6-Pad2)*%
X77487500Y-136250000D03*
%TO.P,R9,2*%
%TO.N,Net-(Q1-Pad3)*%
X75487500Y-136250000D03*
%TD*%
D10*
%TO.P,J30,1,Pin_1*%
%TO.N,Net-(S2-Pad1)*%
X40850000Y-141700000D03*
D11*
%TO.P,J30,2,Pin_2*%
%TO.N,Net-(D14-Pad1)*%
X43390000Y-141700000D03*
%TD*%
D18*
%TO.P,J20,1,+*%
%TO.N,+24V*%
X125050000Y-228100000D03*
D19*
%TO.P,J20,2,-*%
%TO.N,GND*%
X117850000Y-228100000D03*
D20*
%TO.P,J20,S1*%
%TO.N,N/C*%
X128200000Y-234100000D03*
%TO.P,J20,S2*%
X114700000Y-234100000D03*
%TD*%
D10*
%TO.P,J14,1,Pin_1*%
%TO.N,Net-(D12-Pad2)*%
X146275000Y-102050000D03*
D11*
%TO.P,J14,2,Pin_2*%
%TO.N,+5V*%
X148815000Y-102050000D03*
%TD*%
D21*
%TO.P,R6,1*%
%TO.N,Net-(D5-Pad2)*%
X177750000Y-165600000D03*
%TO.P,R6,2*%
%TO.N,+5V*%
X177750000Y-167600000D03*
%TD*%
D22*
%TO.P,D5,1,K*%
%TO.N,GND*%
X177750000Y-161850000D03*
%TO.P,D5,2,A*%
%TO.N,Net-(D5-Pad2)*%
X177750000Y-162995000D03*
%TD*%
D23*
%TO.P,S2,1*%
%TO.N,Net-(S2-Pad1)*%
X50300000Y-131350000D03*
D24*
%TO.P,S2,2*%
%TO.N,/RC_EStopRelaySig*%
X45600000Y-131350000D03*
%TO.P,S2,3*%
%TO.N,unconnected-(S2-Pad3)*%
X40900000Y-131350000D03*
%TD*%
D12*
%TO.P,Q5,1*%
%TO.N,Net-(Q5-Pad1)*%
X207280000Y-130660000D03*
D13*
%TO.P,Q5,2*%
%TO.N,Net-(D8-Pad2)*%
X209820000Y-130660000D03*
%TO.P,Q5,3*%
%TO.N,Net-(Q5-Pad3)*%
X209820000Y-123040000D03*
%TO.P,Q5,4*%
%TO.N,Net-(D13-Pad2)*%
X207280000Y-123040000D03*
%TD*%
D12*
%TO.P,Q2,1*%
%TO.N,Net-(Q2-Pad1)*%
X97860000Y-162900000D03*
D13*
%TO.P,Q2,2*%
%TO.N,Net-(D2-Pad2)*%
X100400000Y-162900000D03*
%TO.P,Q2,3*%
%TO.N,Net-(Q2-Pad3)*%
X100400000Y-155280000D03*
%TO.P,Q2,4*%
%TO.N,Net-(D10-Pad2)*%
X97860000Y-155280000D03*
%TD*%
D25*
%TO.P,F1,1_1*%
%TO.N,/Power Management/fuse1_out*%
X74790000Y-213300000D03*
%TO.P,F1,1_2*%
X83120000Y-213300000D03*
%TO.P,F1,2_1*%
%TO.N,E-Stopped +24V*%
X95820000Y-213300000D03*
%TO.P,F1,2_2*%
X104150000Y-213300000D03*
%TD*%
D11*
%TO.P,U4,1,GPIO0*%
%TO.N,unconnected-(U4-Pad1)*%
X39775000Y-68540000D03*
D26*
X39775000Y-69440000D03*
%TO.P,U4,2,GPIO1*%
%TO.N,unconnected-(U4-Pad2)*%
X42315000Y-69440000D03*
D11*
X42315000Y-68540000D03*
D10*
%TO.P,U4,3,GND*%
%TO.N,GND*%
X44855000Y-68540000D03*
D26*
X44855000Y-69440000D03*
%TO.P,U4,4,GPIO2*%
%TO.N,/Auto_3.3V_SDA*%
X47395000Y-69440000D03*
D11*
X47395000Y-68540000D03*
%TO.P,U4,5,GPIO3*%
%TO.N,/Auto_3.3V_SCL*%
X49935000Y-68540000D03*
D26*
X49935000Y-69440000D03*
D11*
%TO.P,U4,6,GPIO4*%
%TO.N,/Auto_3.3V_RX*%
X52475000Y-68540000D03*
D26*
X52475000Y-69440000D03*
%TO.P,U4,7,GPIO5*%
%TO.N,/Auto_3.3V_TX*%
X55015000Y-69440000D03*
D11*
X55015000Y-68540000D03*
D10*
%TO.P,U4,8,GND*%
%TO.N,unconnected-(U4-Pad8)*%
X57555000Y-68540000D03*
D26*
X57555000Y-69440000D03*
D11*
%TO.P,U4,9,GPIO6*%
%TO.N,/Auto_WaterCannonSig*%
X60095000Y-68540000D03*
D26*
X60095000Y-69440000D03*
%TO.P,U4,10,GPIO7*%
%TO.N,unconnected-(U4-Pad10)*%
X62635000Y-69440000D03*
D11*
X62635000Y-68540000D03*
D26*
%TO.P,U4,11,GPIO8*%
%TO.N,/3.3V_AUTO_WCServo1Sig*%
X65175000Y-69440000D03*
D11*
X65175000Y-68540000D03*
%TO.P,U4,12,GPIO9*%
%TO.N,/3.3V_AUTO_WCServo2Sig*%
X67715000Y-68540000D03*
D26*
X67715000Y-69440000D03*
D10*
%TO.P,U4,13,GND*%
%TO.N,GND*%
X70255000Y-68540000D03*
D26*
X70255000Y-69440000D03*
D11*
%TO.P,U4,14,GPIO10*%
%TO.N,unconnected-(U4-Pad14)*%
X72795000Y-68540000D03*
D26*
X72795000Y-69440000D03*
D11*
%TO.P,U4,15,GPIO11*%
%TO.N,unconnected-(U4-Pad15)*%
X75335000Y-68540000D03*
D26*
X75335000Y-69440000D03*
D11*
%TO.P,U4,16,GPIO12*%
%TO.N,unconnected-(U4-Pad16)*%
X77875000Y-68540000D03*
D26*
X77875000Y-69440000D03*
%TO.P,U4,17,GPIO13*%
%TO.N,unconnected-(U4-Pad17)*%
X80415000Y-69440000D03*
D11*
X80415000Y-68540000D03*
D10*
%TO.P,U4,18,GND*%
%TO.N,GND*%
X82955000Y-68540000D03*
D26*
X82955000Y-69440000D03*
%TO.P,U4,19,GPIO14*%
%TO.N,unconnected-(U4-Pad19)*%
X85495000Y-69440000D03*
D11*
X85495000Y-68540000D03*
%TO.P,U4,20,GPIO15*%
%TO.N,unconnected-(U4-Pad20)*%
X88035000Y-68540000D03*
D26*
X88035000Y-69440000D03*
%TO.P,U4,21,GPIO16*%
%TO.N,/3.3V_AUTO_FrontMotorSig*%
X88035000Y-49860000D03*
D11*
X88035000Y-50760000D03*
%TO.P,U4,22,GPIO17*%
%TO.N,/3.3V_AUTO_FrontServoSig*%
X85495000Y-50760000D03*
D26*
X85495000Y-49860000D03*
%TO.P,U4,23,GND*%
%TO.N,GND*%
X82955000Y-49860000D03*
D10*
X82955000Y-50760000D03*
D26*
%TO.P,U4,24,GPIO18*%
%TO.N,/3.3V_AUTO_RearMotorSig*%
X80415000Y-49860000D03*
D11*
X80415000Y-50760000D03*
%TO.P,U4,25,GPIO19*%
%TO.N,/3.3V_AUTO_BackServoSig*%
X77875000Y-50760000D03*
D26*
X77875000Y-49860000D03*
%TO.P,U4,26,GPIO20*%
%TO.N,unconnected-(U4-Pad26)*%
X75335000Y-49860000D03*
D11*
X75335000Y-50760000D03*
D26*
%TO.P,U4,27,GPIO21*%
%TO.N,unconnected-(U4-Pad27)*%
X72795000Y-49860000D03*
D11*
X72795000Y-50760000D03*
D26*
%TO.P,U4,28,GND*%
%TO.N,GND*%
X70255000Y-49860000D03*
D10*
X70255000Y-50760000D03*
D11*
%TO.P,U4,29,GPIO22*%
%TO.N,unconnected-(U4-Pad29)*%
X67715000Y-50760000D03*
D26*
X67715000Y-49860000D03*
D11*
%TO.P,U4,30,RUN*%
%TO.N,unconnected-(U4-Pad30)*%
X65175000Y-50760000D03*
D26*
X65175000Y-49860000D03*
D11*
%TO.P,U4,31,GPIO26_ADC0*%
%TO.N,/Battery_Voltage_ADC*%
X62635000Y-50760000D03*
D26*
X62635000Y-49860000D03*
D11*
%TO.P,U4,32,GPIO27_ADC1*%
%TO.N,unconnected-(U4-Pad32)*%
X60095000Y-50760000D03*
D26*
X60095000Y-49860000D03*
%TO.P,U4,33,AGND*%
%TO.N,unconnected-(U4-Pad33)*%
X57555000Y-49860000D03*
D10*
X57555000Y-50760000D03*
D11*
%TO.P,U4,34,GPIO28_ADC2*%
%TO.N,unconnected-(U4-Pad34)*%
X55015000Y-50760000D03*
D26*
X55015000Y-49860000D03*
D11*
%TO.P,U4,35,ADC_VREF*%
%TO.N,unconnected-(U4-Pad35)*%
X52475000Y-50760000D03*
D26*
X52475000Y-49860000D03*
D11*
%TO.P,U4,36,3V3*%
%TO.N,+3V3*%
X49935000Y-50760000D03*
D26*
X49935000Y-49860000D03*
D11*
%TO.P,U4,37,3V3_EN*%
%TO.N,unconnected-(U4-Pad37)*%
X47395000Y-50760000D03*
D26*
X47395000Y-49860000D03*
%TO.P,U4,38,GND*%
%TO.N,GND*%
X44855000Y-49860000D03*
D10*
X44855000Y-50760000D03*
D26*
%TO.P,U4,39,VSYS*%
%TO.N,unconnected-(U4-Pad39)*%
X42315000Y-49860000D03*
D11*
X42315000Y-50760000D03*
D26*
%TO.P,U4,40,VBUS*%
%TO.N,unconnected-(U4-Pad40)*%
X39775000Y-49860000D03*
D11*
X39775000Y-50760000D03*
D27*
%TO.P,U4,41,SWCLK*%
%TO.N,unconnected-(U4-Pad41)*%
X88705000Y-62190000D03*
D11*
X87805000Y-62190000D03*
D10*
%TO.P,U4,42,GND*%
%TO.N,GND*%
X87805000Y-59650000D03*
D27*
X88705000Y-59650000D03*
%TO.P,U4,43,SWDIO*%
%TO.N,unconnected-(U4-Pad43)*%
X88705000Y-57110000D03*
D11*
X87805000Y-57110000D03*
%TD*%
D28*
%TO.P,Q18,1,C*%
%TO.N,Net-(D21-Pad1)*%
X147150000Y-67200000D03*
D29*
%TO.P,Q18,2,B*%
%TO.N,Net-(Q18-Pad2)*%
X148420000Y-67200000D03*
%TO.P,Q18,3,E*%
%TO.N,GND*%
X149690000Y-67200000D03*
%TD*%
D30*
%TO.P,U6,1,Vin*%
%TO.N,+12V*%
X175260000Y-213220000D03*
D31*
%TO.P,U6,2,GND*%
%TO.N,GND*%
X193040000Y-213220000D03*
%TO.P,U6,3,GND*%
X193040000Y-172580000D03*
%TO.P,U6,4,Vout*%
%TO.N,+5V*%
X175260000Y-172580000D03*
%TD*%
D18*
%TO.P,J26,1,+*%
%TO.N,+12V*%
X203634300Y-190250000D03*
D19*
%TO.P,J26,2,-*%
%TO.N,GND*%
X203634300Y-197450000D03*
D32*
%TO.P,J26,S1*%
%TO.N,N/C*%
X209634300Y-187100000D03*
%TO.P,J26,S2*%
X209634300Y-200600000D03*
%TD*%
D14*
%TO.P,D21,1,K*%
%TO.N,Net-(D21-Pad1)*%
X145600000Y-60187500D03*
%TO.P,D21,2,A*%
%TO.N,Net-(D21-Pad2)*%
X145600000Y-57212500D03*
%TD*%
D16*
%TO.P,K8,11*%
%TO.N,+12V*%
X191900000Y-150800000D03*
%TO.P,K8,12*%
%TO.N,unconnected-(K8-Pad12)*%
X177700000Y-156800000D03*
%TO.P,K8,14*%
%TO.N,Water Cannon Relay Signal +12V*%
X177700000Y-144800000D03*
%TO.P,K8,A1*%
%TO.N,Net-(D20-Pad2)*%
X189900000Y-144800000D03*
%TO.P,K8,A2*%
%TO.N,Net-(D20-Pad1)*%
X189900000Y-156800000D03*
%TD*%
D15*
%TO.P,D4,1,K*%
%TO.N,/RC_Auto{slash}RC_RelaySig*%
X161607500Y-117500000D03*
%TO.P,D4,2,A*%
%TO.N,Net-(D4-Pad2)*%
X160462500Y-117500000D03*
%TD*%
D10*
%TO.P,J11,1,Pin_1*%
%TO.N,Net-(D9-Pad2)*%
X82700000Y-142400000D03*
D11*
%TO.P,J11,2,Pin_2*%
%TO.N,+5V*%
X80160000Y-142400000D03*
%TD*%
D10*
%TO.P,J9,1,Pin_1*%
%TO.N,GND*%
X40850000Y-157650000D03*
D11*
%TO.P,J9,2,Pin_2*%
%TO.N,/FrontMotorOut*%
X43390000Y-157650000D03*
%TD*%
D17*
%TO.P,R29,1*%
%TO.N,+5V*%
X165587500Y-61600000D03*
%TO.P,R29,2*%
%TO.N,/RC_Auto{slash}RC_RelaySig*%
X163587500Y-61600000D03*
%TD*%
D15*
%TO.P,D15,1,K*%
%TO.N,/RC_Auto{slash}RC_RelaySig*%
X162457500Y-91800000D03*
%TO.P,D15,2,A*%
%TO.N,Net-(D15-Pad2)*%
X161312500Y-91800000D03*
%TD*%
D10*
%TO.P,J8,1,Pin_1*%
%TO.N,GND*%
X40850000Y-148950000D03*
D11*
%TO.P,J8,2,Pin_2*%
%TO.N,/BackServoOut*%
X43390000Y-148950000D03*
%TO.P,J8,3,Pin_3*%
%TO.N,E-Stop +5V*%
X45930000Y-148950000D03*
%TD*%
D17*
%TO.P,R27,1*%
%TO.N,+5V*%
X165112500Y-111400000D03*
%TO.P,R27,2*%
%TO.N,/RC_Auto{slash}RC_RelaySig*%
X163112500Y-111400000D03*
%TD*%
D18*
%TO.P,J21,1,+*%
%TO.N,+24V*%
X146100000Y-227934200D03*
D19*
%TO.P,J21,2,-*%
%TO.N,GND*%
X138900000Y-227934200D03*
D20*
%TO.P,J21,S1*%
%TO.N,N/C*%
X149250000Y-233934200D03*
%TO.P,J21,S2*%
X135750000Y-233934200D03*
%TD*%
D18*
%TO.P,J24,1,+*%
%TO.N,+24V*%
X168750000Y-227950000D03*
D19*
%TO.P,J24,2,-*%
%TO.N,GND*%
X161550000Y-227950000D03*
D20*
%TO.P,J24,S1*%
%TO.N,N/C*%
X171900000Y-233950000D03*
%TO.P,J24,S2*%
X158400000Y-233950000D03*
%TD*%
D10*
%TO.P,J17,1,Pin_1*%
%TO.N,Net-(D19-Pad2)*%
X147600000Y-77150000D03*
D11*
%TO.P,J17,2,Pin_2*%
%TO.N,+5V*%
X150140000Y-77150000D03*
%TD*%
D33*
%TO.P,D14,1,K*%
%TO.N,Net-(D14-Pad1)*%
X124377500Y-150950000D03*
%TO.P,D14,2,A*%
%TO.N,Net-(D14-Pad2)*%
X125522500Y-150950000D03*
%TD*%
D18*
%TO.P,J22,1,+*%
%TO.N,/Power Management/fuse1_out*%
X61215800Y-213350000D03*
D19*
%TO.P,J22,2,-*%
%TO.N,GND*%
X61215800Y-206150000D03*
D32*
%TO.P,J22,S1*%
%TO.N,N/C*%
X55215800Y-216500000D03*
%TO.P,J22,S2*%
X55215800Y-203000000D03*
%TD*%
D17*
%TO.P,R26,1*%
%TO.N,+5V*%
X164850000Y-136600000D03*
%TO.P,R26,2*%
%TO.N,/RC_Auto{slash}RC_RelaySig*%
X162850000Y-136600000D03*
%TD*%
D28*
%TO.P,Q6,1,C*%
%TO.N,Net-(D9-Pad1)*%
X82050000Y-128850000D03*
D29*
%TO.P,Q6,2,B*%
%TO.N,Net-(Q6-Pad2)*%
X80780000Y-128850000D03*
%TO.P,Q6,3,E*%
%TO.N,GND*%
X79510000Y-128850000D03*
%TD*%
D28*
%TO.P,Q9,1,C*%
%TO.N,Net-(D12-Pad1)*%
X146400000Y-117350000D03*
D29*
%TO.P,Q9,2,B*%
%TO.N,Net-(Q9-Pad2)*%
X147670000Y-117350000D03*
%TO.P,Q9,3,E*%
%TO.N,GND*%
X148940000Y-117350000D03*
%TD*%
D34*
%TO.P,R14,1*%
%TO.N,+5V*%
X120187500Y-164000000D03*
%TO.P,R14,2*%
%TO.N,Net-(Q11-Pad1)*%
X122187500Y-164000000D03*
%TD*%
D12*
%TO.P,Q1,1*%
%TO.N,Net-(Q1-Pad1)*%
X70970000Y-132440000D03*
D13*
%TO.P,Q1,2*%
%TO.N,Net-(D1-Pad2)*%
X68430000Y-132440000D03*
%TO.P,Q1,3*%
%TO.N,Net-(Q1-Pad3)*%
X68430000Y-140060000D03*
%TO.P,Q1,4*%
%TO.N,Net-(D9-Pad2)*%
X70970000Y-140060000D03*
%TD*%
D10*
%TO.P,J12,1,Pin_1*%
%TO.N,Net-(D10-Pad2)*%
X89630000Y-152740000D03*
D11*
%TO.P,J12,2,Pin_2*%
%TO.N,+5V*%
X92170000Y-152740000D03*
%TD*%
D34*
%TO.P,R21,1*%
%TO.N,Net-(Q18-Pad2)*%
X150300000Y-58800000D03*
%TO.P,R21,2*%
%TO.N,Net-(Q14-Pad3)*%
X152300000Y-58800000D03*
%TD*%
D10*
%TO.P,J16,1,Pin_1*%
%TO.N,Net-(D18-Pad2)*%
X139900000Y-167450000D03*
D11*
%TO.P,J16,2,Pin_2*%
%TO.N,+5V*%
X137360000Y-167450000D03*
%TD*%
D34*
%TO.P,R12,1*%
%TO.N,Net-(Q9-Pad2)*%
X150437500Y-108800000D03*
%TO.P,R12,2*%
%TO.N,Net-(Q4-Pad3)*%
X152437500Y-108800000D03*
%TD*%
%TO.P,R1,1*%
%TO.N,+5V*%
X61362500Y-139600000D03*
%TO.P,R1,2*%
%TO.N,Net-(Q1-Pad1)*%
X63362500Y-139600000D03*
%TD*%
%TO.P,R13,1*%
%TO.N,Net-(Q10-Pad2)*%
X201137500Y-126000000D03*
%TO.P,R13,2*%
%TO.N,Net-(Q5-Pad3)*%
X203137500Y-126000000D03*
%TD*%
D16*
%TO.P,K5,11*%
%TO.N,/Boat Relays/WaterCannonSignal*%
X189450000Y-126400000D03*
%TO.P,K5,12*%
%TO.N,/RC_WaterCannonSig*%
X175250000Y-132400000D03*
%TO.P,K5,14*%
%TO.N,/Auto_WaterCannonSig*%
X175250000Y-120400000D03*
%TO.P,K5,A1*%
%TO.N,Net-(D13-Pad2)*%
X187450000Y-120400000D03*
%TO.P,K5,A2*%
%TO.N,Net-(D13-Pad1)*%
X187450000Y-132400000D03*
%TD*%
D14*
%TO.P,D19,1,K*%
%TO.N,Net-(D19-Pad1)*%
X145400000Y-85037500D03*
%TO.P,D19,2,A*%
%TO.N,Net-(D19-Pad2)*%
X145400000Y-82062500D03*
%TD*%
D17*
%TO.P,R18,1*%
%TO.N,Net-(Q15-Pad2)*%
X136037500Y-159600000D03*
%TO.P,R18,2*%
%TO.N,Net-(Q11-Pad3)*%
X134037500Y-159600000D03*
%TD*%
%TO.P,R28,1*%
%TO.N,+5V*%
X216850000Y-128900000D03*
%TO.P,R28,2*%
%TO.N,/RC_Auto{slash}RC_RelaySig*%
X214850000Y-128900000D03*
%TD*%
D34*
%TO.P,R19,1*%
%TO.N,Net-(Q16-Pad2)*%
X150437500Y-83450000D03*
%TO.P,R19,2*%
%TO.N,Net-(Q12-Pad3)*%
X152437500Y-83450000D03*
%TD*%
D16*
%TO.P,K2,11*%
%TO.N,/BackMotorOut*%
X80830000Y-160040000D03*
%TO.P,K2,12*%
%TO.N,/3.3V_RC_RearMotorSig*%
X66630000Y-166040000D03*
%TO.P,K2,14*%
%TO.N,/3.3V_AUTO_RearMotorSig*%
X66630000Y-154040000D03*
%TO.P,K2,A1*%
%TO.N,Net-(D10-Pad2)*%
X78830000Y-154040000D03*
%TO.P,K2,A2*%
%TO.N,Net-(D10-Pad1)*%
X78830000Y-166040000D03*
%TD*%
D35*
%TO.P,D24,1,K*%
%TO.N,GND*%
X156900000Y-191125000D03*
%TO.P,D24,2,A*%
%TO.N,E-Stop Relay Signal +24V*%
X156900000Y-184575000D03*
%TD*%
D36*
%TO.P,K10,1*%
%TO.N,+24V*%
X140245000Y-198905000D03*
D37*
%TO.P,K10,2*%
%TO.N,GND*%
X129745000Y-207405000D03*
%TO.P,K10,6*%
%TO.N,E-Stop Relay Signal +24V*%
X129745000Y-190405000D03*
D38*
%TO.P,K10,7*%
%TO.N,E-Stopped +24V*%
X122245000Y-198905000D03*
%TD*%
D14*
%TO.P,D12,1,K*%
%TO.N,Net-(D12-Pad1)*%
X146350000Y-110387500D03*
%TO.P,D12,2,A*%
%TO.N,Net-(D12-Pad2)*%
X146350000Y-107412500D03*
%TD*%
D39*
%TO.P,U1,GND_1,GND*%
%TO.N,GND*%
X108780000Y-110120000D03*
%TO.P,U1,GND_2,GND*%
X98620000Y-110120000D03*
%TO.P,U1,HV,HV*%
%TO.N,+5V*%
X108780000Y-107580000D03*
D40*
%TO.P,U1,HV1,HV1*%
%TO.N,/5V_SDA*%
X108780000Y-102500000D03*
D39*
%TO.P,U1,HV2,HV2*%
%TO.N,/5V_SCL*%
X108780000Y-105040000D03*
%TO.P,U1,HV3,HV3*%
%TO.N,/5V_Rx*%
X108780000Y-112660000D03*
%TO.P,U1,HV4,HV4*%
%TO.N,/5V_Tx*%
X108780000Y-115200000D03*
%TO.P,U1,LV,LV*%
%TO.N,+3V3*%
X98620000Y-107580000D03*
D40*
%TO.P,U1,LV1,LV1*%
%TO.N,/3.3V_SDA*%
X98620000Y-102500000D03*
D39*
%TO.P,U1,LV2,LV2*%
%TO.N,/3.3V_SCL*%
X98620000Y-105040000D03*
%TO.P,U1,LV3,LV3*%
%TO.N,/3.3V_RX*%
X98620000Y-112660000D03*
%TO.P,U1,LV4,LV4*%
%TO.N,/3.3V_TX*%
X98620000Y-115200000D03*
%TD*%
D28*
%TO.P,Q10,1,C*%
%TO.N,Net-(D13-Pad1)*%
X198100000Y-133500000D03*
D29*
%TO.P,Q10,2,B*%
%TO.N,Net-(Q10-Pad2)*%
X199370000Y-133500000D03*
%TO.P,Q10,3,E*%
%TO.N,GND*%
X200640000Y-133500000D03*
%TD*%
D34*
%TO.P,R10,1*%
%TO.N,Net-(Q7-Pad2)*%
X91692500Y-159890000D03*
%TO.P,R10,2*%
%TO.N,Net-(Q2-Pad3)*%
X93692500Y-159890000D03*
%TD*%
D15*
%TO.P,D3,1,K*%
%TO.N,/RC_Auto{slash}RC_RelaySig*%
X159622500Y-142200000D03*
%TO.P,D3,2,A*%
%TO.N,Net-(D3-Pad2)*%
X158477500Y-142200000D03*
%TD*%
D41*
%TO.P,D18,1,K*%
%TO.N,Net-(D18-Pad1)*%
X141300000Y-158112500D03*
%TO.P,D18,2,A*%
%TO.N,Net-(D18-Pad2)*%
X141300000Y-161087500D03*
%TD*%
D16*
%TO.P,K1,11*%
%TO.N,/FrontMotorOut*%
X88850000Y-136900000D03*
%TO.P,K1,12*%
%TO.N,/3.3V_RC_FrontMotorSig*%
X103050000Y-130900000D03*
%TO.P,K1,14*%
%TO.N,/3.3V_AUTO_FrontMotorSig*%
X103050000Y-142900000D03*
%TO.P,K1,A1*%
%TO.N,Net-(D9-Pad2)*%
X90850000Y-142900000D03*
%TO.P,K1,A2*%
%TO.N,Net-(D9-Pad1)*%
X90850000Y-130900000D03*
%TD*%
D17*
%TO.P,R34,1*%
%TO.N,+5V*%
X215662500Y-99600000D03*
%TO.P,R34,2*%
%TO.N,Net-(Q19-Pad1)*%
X213662500Y-99600000D03*
%TD*%
D16*
%TO.P,K7,11*%
%TO.N,/TurretServoOut2*%
X139100000Y-85150000D03*
%TO.P,K7,12*%
%TO.N,/3.3V_RC_WCServo2Sig*%
X124900000Y-91150000D03*
%TO.P,K7,14*%
%TO.N,/3.3V_AUTO_WCServo2Sig*%
X124900000Y-79150000D03*
%TO.P,K7,A1*%
%TO.N,Net-(D19-Pad2)*%
X137100000Y-79150000D03*
%TO.P,K7,A2*%
%TO.N,Net-(D19-Pad1)*%
X137100000Y-91150000D03*
%TD*%
D10*
%TO.P,J2,1,Pin_1*%
%TO.N,GND*%
X217300000Y-84050000D03*
D11*
%TO.P,J2,2,Pin_2*%
%TO.N,/FrontServoOut*%
X214760000Y-84050000D03*
%TO.P,J2,3,Pin_3*%
%TO.N,E-Stop +5V*%
X212220000Y-84050000D03*
%TD*%
D17*
%TO.P,R17,1*%
%TO.N,+5V*%
X165712500Y-55850000D03*
%TO.P,R17,2*%
%TO.N,Net-(Q14-Pad1)*%
X163712500Y-55850000D03*
%TD*%
D26*
%TO.P,U3,1,GPIO0*%
%TO.N,unconnected-(U3-Pad1)*%
X40225000Y-118790000D03*
D11*
X40225000Y-117890000D03*
%TO.P,U3,2,GPIO1*%
%TO.N,unconnected-(U3-Pad2)*%
X42765000Y-117890000D03*
D26*
X42765000Y-118790000D03*
D10*
%TO.P,U3,3,GND*%
%TO.N,GND*%
X45305000Y-117890000D03*
D26*
X45305000Y-118790000D03*
D11*
%TO.P,U3,4,GPIO2*%
%TO.N,/3.3V_SDA*%
X47845000Y-117890000D03*
D26*
X47845000Y-118790000D03*
%TO.P,U3,5,GPIO3*%
%TO.N,/3.3V_SCL*%
X50385000Y-118790000D03*
D11*
X50385000Y-117890000D03*
D26*
%TO.P,U3,6,GPIO4*%
%TO.N,/3.3V_TX*%
X52925000Y-118790000D03*
D11*
X52925000Y-117890000D03*
%TO.P,U3,7,GPIO5*%
%TO.N,/3.3V_RX*%
X55465000Y-117890000D03*
D26*
X55465000Y-118790000D03*
%TO.P,U3,8,GND*%
%TO.N,GND*%
X58005000Y-118790000D03*
D10*
X58005000Y-117890000D03*
D11*
%TO.P,U3,9,GPIO6*%
%TO.N,/RC_WaterCannonSig*%
X60545000Y-117890000D03*
D26*
X60545000Y-118790000D03*
%TO.P,U3,10,GPIO7*%
%TO.N,unconnected-(U3-Pad10)*%
X63085000Y-118790000D03*
D11*
X63085000Y-117890000D03*
D26*
%TO.P,U3,11,GPIO8*%
%TO.N,/3.3V_RC_WCServo2Sig*%
X65625000Y-118790000D03*
D11*
X65625000Y-117890000D03*
%TO.P,U3,12,GPIO9*%
%TO.N,/3.3V_RC_WCServo1Sig*%
X68165000Y-117890000D03*
D26*
X68165000Y-118790000D03*
D10*
%TO.P,U3,13,GND*%
%TO.N,GND*%
X70705000Y-117890000D03*
D26*
X70705000Y-118790000D03*
%TO.P,U3,14,GPIO10*%
%TO.N,unconnected-(U3-Pad14)*%
X73245000Y-118790000D03*
D11*
X73245000Y-117890000D03*
D26*
%TO.P,U3,15,GPIO11*%
%TO.N,/RC_Auto{slash}RC_RelaySig*%
X75785000Y-118790000D03*
D11*
X75785000Y-117890000D03*
D26*
%TO.P,U3,16,GPIO12*%
%TO.N,unconnected-(U3-Pad16)*%
X78325000Y-118790000D03*
D11*
X78325000Y-117890000D03*
%TO.P,U3,17,GPIO13*%
%TO.N,/RC_EStopRelaySig*%
X80865000Y-117890000D03*
D26*
X80865000Y-118790000D03*
%TO.P,U3,18,GND*%
%TO.N,GND*%
X83405000Y-118790000D03*
D10*
X83405000Y-117890000D03*
D26*
%TO.P,U3,19,GPIO14*%
%TO.N,unconnected-(U3-Pad19)*%
X85945000Y-118790000D03*
D11*
X85945000Y-117890000D03*
D26*
%TO.P,U3,20,GPIO15*%
%TO.N,unconnected-(U3-Pad20)*%
X88485000Y-118790000D03*
D11*
X88485000Y-117890000D03*
D26*
%TO.P,U3,21,GPIO16*%
%TO.N,/3.3V_RC_FrontMotorSig*%
X88485000Y-99210000D03*
D11*
X88485000Y-100110000D03*
D26*
%TO.P,U3,22,GPIO17*%
%TO.N,/3.3V_RC_FrontServoSig*%
X85945000Y-99210000D03*
D11*
X85945000Y-100110000D03*
D26*
%TO.P,U3,23,GND*%
%TO.N,GND*%
X83405000Y-99210000D03*
D10*
X83405000Y-100110000D03*
D11*
%TO.P,U3,24,GPIO18*%
%TO.N,/3.3V_RC_RearMotorSig*%
X80865000Y-100110000D03*
D26*
X80865000Y-99210000D03*
%TO.P,U3,25,GPIO19*%
%TO.N,/3.3V_RC_BackServoSig*%
X78325000Y-99210000D03*
D11*
X78325000Y-100110000D03*
%TO.P,U3,26,GPIO20*%
%TO.N,unconnected-(U3-Pad26)*%
X75785000Y-100110000D03*
D26*
X75785000Y-99210000D03*
%TO.P,U3,27,GPIO21*%
%TO.N,unconnected-(U3-Pad27)*%
X73245000Y-99210000D03*
D11*
X73245000Y-100110000D03*
D10*
%TO.P,U3,28,GND*%
%TO.N,GND*%
X70705000Y-100110000D03*
D26*
X70705000Y-99210000D03*
D11*
%TO.P,U3,29,GPIO22*%
%TO.N,unconnected-(U3-Pad29)*%
X68165000Y-100110000D03*
D26*
X68165000Y-99210000D03*
D11*
%TO.P,U3,30,RUN*%
%TO.N,unconnected-(U3-Pad30)*%
X65625000Y-100110000D03*
D26*
X65625000Y-99210000D03*
D11*
%TO.P,U3,31,GPIO26_ADC0*%
%TO.N,/Battery_Voltage_ADC*%
X63085000Y-100110000D03*
D26*
X63085000Y-99210000D03*
D11*
%TO.P,U3,32,GPIO27_ADC1*%
%TO.N,unconnected-(U3-Pad32)*%
X60545000Y-100110000D03*
D26*
X60545000Y-99210000D03*
%TO.P,U3,33,AGND*%
%TO.N,unconnected-(U3-Pad33)*%
X58005000Y-99210000D03*
D10*
X58005000Y-100110000D03*
D11*
%TO.P,U3,34,GPIO28_ADC2*%
%TO.N,unconnected-(U3-Pad34)*%
X55465000Y-100110000D03*
D26*
X55465000Y-99210000D03*
D11*
%TO.P,U3,35,ADC_VREF*%
%TO.N,unconnected-(U3-Pad35)*%
X52925000Y-100110000D03*
D26*
X52925000Y-99210000D03*
D11*
%TO.P,U3,36,3V3*%
%TO.N,+3V3*%
X50385000Y-100110000D03*
D26*
X50385000Y-99210000D03*
D11*
%TO.P,U3,37,3V3_EN*%
%TO.N,unconnected-(U3-Pad37)*%
X47845000Y-100110000D03*
D26*
X47845000Y-99210000D03*
%TO.P,U3,38,GND*%
%TO.N,GND*%
X45305000Y-99210000D03*
D10*
X45305000Y-100110000D03*
D11*
%TO.P,U3,39,VSYS*%
%TO.N,unconnected-(U3-Pad39)*%
X42765000Y-100110000D03*
D26*
X42765000Y-99210000D03*
%TO.P,U3,40,VBUS*%
%TO.N,+5V*%
X40225000Y-99210000D03*
D11*
X40225000Y-100110000D03*
D27*
%TO.P,U3,41,SWCLK*%
%TO.N,unconnected-(U3-Pad41)*%
X89155000Y-111540000D03*
D11*
X88255000Y-111540000D03*
D10*
%TO.P,U3,42,GND*%
%TO.N,GND*%
X88255000Y-109000000D03*
D27*
X89155000Y-109000000D03*
%TO.P,U3,43,SWDIO*%
%TO.N,unconnected-(U3-Pad43)*%
X89155000Y-106460000D03*
D11*
X88255000Y-106460000D03*
%TD*%
D10*
%TO.P,J6,1,Pin_1*%
%TO.N,GND*%
X217350000Y-75350000D03*
D11*
%TO.P,J6,2,Pin_2*%
%TO.N,/TurretServoOut2*%
X214810000Y-75350000D03*
%TO.P,J6,3,Pin_3*%
%TO.N,E-Stop +5V*%
X212270000Y-75350000D03*
%TD*%
D17*
%TO.P,R16,1*%
%TO.N,+5V*%
X217712500Y-147700000D03*
%TO.P,R16,2*%
%TO.N,Net-(Q13-Pad1)*%
X215712500Y-147700000D03*
%TD*%
D10*
%TO.P,J18,1,Pin_1*%
%TO.N,Net-(D20-Pad2)*%
X198600000Y-143850000D03*
D11*
%TO.P,J18,2,Pin_2*%
%TO.N,+5V*%
X201140000Y-143850000D03*
%TD*%
D16*
%TO.P,K3,11*%
%TO.N,/FrontServoOut*%
X139900000Y-134650000D03*
%TO.P,K3,12*%
%TO.N,/3.3V_RC_FrontServoSig*%
X125700000Y-140650000D03*
%TO.P,K3,14*%
%TO.N,/3.3V_AUTO_FrontServoSig*%
X125700000Y-128650000D03*
%TO.P,K3,A1*%
%TO.N,Net-(D11-Pad2)*%
X137900000Y-128650000D03*
%TO.P,K3,A2*%
%TO.N,Net-(D11-Pad1)*%
X137900000Y-140650000D03*
%TD*%
D10*
%TO.P,J3,1,Pin_1*%
%TO.N,/5V_Rx*%
X56600000Y-87400000D03*
D11*
%TO.P,J3,2,Pin_2*%
%TO.N,/5V_Tx*%
X56600000Y-84860000D03*
%TO.P,J3,3,Pin_3*%
%TO.N,+5V*%
X56600000Y-82320000D03*
%TO.P,J3,4,Pin_4*%
%TO.N,GND*%
X56600000Y-79780000D03*
%TD*%
D14*
%TO.P,D10,1,K*%
%TO.N,Net-(D10-Pad1)*%
X87680000Y-161027500D03*
%TO.P,D10,2,A*%
%TO.N,Net-(D10-Pad2)*%
X87680000Y-158052500D03*
%TD*%
%TO.P,D13,1,K*%
%TO.N,Net-(D13-Pad1)*%
X195700000Y-127937500D03*
%TO.P,D13,2,A*%
%TO.N,Net-(D13-Pad2)*%
X195700000Y-124962500D03*
%TD*%
D10*
%TO.P,J4,1,Pin_1*%
%TO.N,GND*%
X217350000Y-68050000D03*
D11*
%TO.P,J4,2,Pin_2*%
%TO.N,/TurretServoOut1*%
X214810000Y-68050000D03*
%TO.P,J4,3,Pin_3*%
%TO.N,E-Stop +5V*%
X212270000Y-68050000D03*
%TD*%
D17*
%TO.P,R33,1*%
%TO.N,+5V*%
X217700000Y-153000000D03*
%TO.P,R33,2*%
%TO.N,/Boat Relays/WaterCannonSignal*%
X215700000Y-153000000D03*
%TD*%
D18*
%TO.P,J23,1,+*%
%TO.N,/Power Management/fuse2_out*%
X61565800Y-188750000D03*
D19*
%TO.P,J23,2,-*%
%TO.N,GND*%
X61565800Y-181550000D03*
D32*
%TO.P,J23,S1*%
%TO.N,N/C*%
X55565800Y-191900000D03*
%TO.P,J23,S2*%
X55565800Y-178400000D03*
%TD*%
D17*
%TO.P,R15,1*%
%TO.N,+5V*%
X165762500Y-81300000D03*
%TO.P,R15,2*%
%TO.N,Net-(Q12-Pad1)*%
X163762500Y-81300000D03*
%TD*%
D34*
%TO.P,R20,1*%
%TO.N,Net-(Q17-Pad2)*%
X202762500Y-150750000D03*
%TO.P,R20,2*%
%TO.N,Net-(Q13-Pad3)*%
X204762500Y-150750000D03*
%TD*%
D28*
%TO.P,Q7,1,C*%
%TO.N,Net-(D10-Pad1)*%
X89790000Y-166640000D03*
D29*
%TO.P,Q7,2,B*%
%TO.N,Net-(Q7-Pad2)*%
X91060000Y-166640000D03*
%TO.P,Q7,3,E*%
%TO.N,GND*%
X92330000Y-166640000D03*
%TD*%
D34*
%TO.P,R11,1*%
%TO.N,Net-(Q8-Pad2)*%
X149800000Y-134150000D03*
%TO.P,R11,2*%
%TO.N,Net-(Q3-Pad3)*%
X151800000Y-134150000D03*
%TD*%
D14*
%TO.P,D23,1,K*%
%TO.N,Net-(D23-Pad1)*%
X197050000Y-103387500D03*
%TO.P,D23,2,A*%
%TO.N,Net-(D23-Pad2)*%
X197050000Y-100412500D03*
%TD*%
D34*
%TO.P,R24,1*%
%TO.N,+5V*%
X61387500Y-134500000D03*
%TO.P,R24,2*%
%TO.N,/RC_Auto{slash}RC_RelaySig*%
X63387500Y-134500000D03*
%TD*%
%TO.P,R23,1*%
%TO.N,/Battery_Voltage_ADC*%
X115250000Y-147400000D03*
%TO.P,R23,2*%
%TO.N,GND*%
X117250000Y-147400000D03*
%TD*%
D17*
%TO.P,R4,1*%
%TO.N,+5V*%
X165112500Y-106100000D03*
%TO.P,R4,2*%
%TO.N,Net-(Q4-Pad1)*%
X163112500Y-106100000D03*
%TD*%
D28*
%TO.P,Q17,1,C*%
%TO.N,Net-(D20-Pad1)*%
X197850000Y-158300000D03*
D29*
%TO.P,Q17,2,B*%
%TO.N,Net-(Q17-Pad2)*%
X199120000Y-158300000D03*
%TO.P,Q17,3,E*%
%TO.N,GND*%
X200390000Y-158300000D03*
%TD*%
D17*
%TO.P,R5,1*%
%TO.N,+5V*%
X216850000Y-123100000D03*
%TO.P,R5,2*%
%TO.N,Net-(Q5-Pad1)*%
X214850000Y-123100000D03*
%TD*%
D34*
%TO.P,R35,1*%
%TO.N,Net-(Q20-Pad2)*%
X200962500Y-101700000D03*
%TO.P,R35,2*%
%TO.N,Net-(Q19-Pad3)*%
X202962500Y-101700000D03*
%TD*%
D18*
%TO.P,J28,1,+*%
%TO.N,Water Cannon Relay Signal +12V*%
X203650000Y-170300000D03*
D19*
%TO.P,J28,2,-*%
%TO.N,GND*%
X203650000Y-177500000D03*
D32*
%TO.P,J28,S1*%
%TO.N,N/C*%
X209650000Y-167150000D03*
%TO.P,J28,S2*%
X209650000Y-180650000D03*
%TD*%
D16*
%TO.P,K11,11*%
%TO.N,+5V*%
X190900000Y-102200000D03*
%TO.P,K11,12*%
%TO.N,unconnected-(K11-Pad12)*%
X176700000Y-108200000D03*
%TO.P,K11,14*%
%TO.N,E-Stop +5V*%
X176700000Y-96200000D03*
%TO.P,K11,A1*%
%TO.N,Net-(D23-Pad2)*%
X188900000Y-96200000D03*
%TO.P,K11,A2*%
%TO.N,Net-(D23-Pad1)*%
X188900000Y-108200000D03*
%TD*%
%TO.P,K6,11*%
%TO.N,+24V*%
X148450000Y-160050000D03*
%TO.P,K6,12*%
%TO.N,unconnected-(K6-Pad12)*%
X162650000Y-154050000D03*
%TO.P,K6,14*%
%TO.N,E-Stop Relay Signal +24V*%
X162650000Y-166050000D03*
%TO.P,K6,A1*%
%TO.N,Net-(D18-Pad2)*%
X150450000Y-166050000D03*
%TO.P,K6,A2*%
%TO.N,Net-(D18-Pad1)*%
X150450000Y-154050000D03*
%TD*%
D28*
%TO.P,Q20,1,C*%
%TO.N,Net-(D23-Pad1)*%
X196480000Y-109310000D03*
D29*
%TO.P,Q20,2,B*%
%TO.N,Net-(Q20-Pad2)*%
X197750000Y-109310000D03*
%TO.P,Q20,3,E*%
%TO.N,GND*%
X199020000Y-109310000D03*
%TD*%
D17*
%TO.P,R2,1*%
%TO.N,+5V*%
X106330000Y-156390000D03*
%TO.P,R2,2*%
%TO.N,Net-(Q2-Pad1)*%
X104330000Y-156390000D03*
%TD*%
D28*
%TO.P,Q15,1,C*%
%TO.N,Net-(D18-Pad1)*%
X140550000Y-151500000D03*
D29*
%TO.P,Q15,2,B*%
%TO.N,Net-(Q15-Pad2)*%
X139280000Y-151500000D03*
%TO.P,Q15,3,E*%
%TO.N,GND*%
X138010000Y-151500000D03*
%TD*%
D10*
%TO.P,J15,1,Pin_1*%
%TO.N,Net-(D13-Pad2)*%
X197600000Y-119700000D03*
D11*
%TO.P,J15,2,Pin_2*%
%TO.N,+5V*%
X200140000Y-119700000D03*
%TD*%
D14*
%TO.P,D11,1,K*%
%TO.N,Net-(D11-Pad1)*%
X146150000Y-135487500D03*
%TO.P,D11,2,A*%
%TO.N,Net-(D11-Pad2)*%
X146150000Y-132512500D03*
%TD*%
D12*
%TO.P,Q3,1*%
%TO.N,Net-(Q3-Pad1)*%
X156030000Y-137727500D03*
D13*
%TO.P,Q3,2*%
%TO.N,Net-(D3-Pad2)*%
X158570000Y-137727500D03*
%TO.P,Q3,3*%
%TO.N,Net-(Q3-Pad3)*%
X158570000Y-130107500D03*
%TO.P,Q3,4*%
%TO.N,Net-(D11-Pad2)*%
X156030000Y-130107500D03*
%TD*%
D41*
%TO.P,D9,1,K*%
%TO.N,Net-(D9-Pad1)*%
X81600000Y-134512500D03*
%TO.P,D9,2,A*%
%TO.N,Net-(D9-Pad2)*%
X81600000Y-137487500D03*
%TD*%
D18*
%TO.P,J27,1,+*%
%TO.N,+12V*%
X203550000Y-210400000D03*
D19*
%TO.P,J27,2,-*%
%TO.N,GND*%
X203550000Y-217600000D03*
D32*
%TO.P,J27,S1*%
%TO.N,N/C*%
X209550000Y-207250000D03*
%TO.P,J27,S2*%
X209550000Y-220750000D03*
%TD*%
D16*
%TO.P,K4,11*%
%TO.N,/BackServoOut*%
X139800000Y-109300000D03*
%TO.P,K4,12*%
%TO.N,/3.3V_RC_BackServoSig*%
X125600000Y-115300000D03*
%TO.P,K4,14*%
%TO.N,/3.3V_AUTO_BackServoSig*%
X125600000Y-103300000D03*
%TO.P,K4,A1*%
%TO.N,Net-(D12-Pad2)*%
X137800000Y-103300000D03*
%TO.P,K4,A2*%
%TO.N,Net-(D12-Pad1)*%
X137800000Y-115300000D03*
%TD*%
D15*
%TO.P,D2,1,K*%
%TO.N,/RC_Auto{slash}RC_RelaySig*%
X102502500Y-167490000D03*
%TO.P,D2,2,A*%
%TO.N,Net-(D2-Pad2)*%
X101357500Y-167490000D03*
%TD*%
D12*
%TO.P,Q4,1*%
%TO.N,Net-(Q4-Pad1)*%
X156780000Y-112760000D03*
D13*
%TO.P,Q4,2*%
%TO.N,Net-(D4-Pad2)*%
X159320000Y-112760000D03*
%TO.P,Q4,3*%
%TO.N,Net-(Q4-Pad3)*%
X159320000Y-105140000D03*
%TO.P,Q4,4*%
%TO.N,Net-(D12-Pad2)*%
X156780000Y-105140000D03*
%TD*%
D10*
%TO.P,J1,1,Pin_1*%
%TO.N,+3V3*%
X74875000Y-84760000D03*
D11*
%TO.P,J1,2,Pin_2*%
%TO.N,GND*%
X74875000Y-87300000D03*
%TO.P,J1,3,Pin_3*%
%TO.N,/3.3V_TX*%
X77415000Y-84760000D03*
%TO.P,J1,4,Pin_4*%
%TO.N,/3.3V_RX*%
X77415000Y-87300000D03*
%TO.P,J1,5,Pin_5*%
%TO.N,/3.3V_SCL*%
X79955000Y-84760000D03*
%TO.P,J1,6,Pin_6*%
%TO.N,/3.3V_SDA*%
X79955000Y-87300000D03*
%TO.P,J1,7,Pin_7*%
%TO.N,/5V_Tx*%
X82495000Y-84760000D03*
%TO.P,J1,8,Pin_8*%
%TO.N,/5V_Rx*%
X82495000Y-87300000D03*
%TO.P,J1,9,Pin_9*%
%TO.N,/5V_SCL*%
X85035000Y-84760000D03*
%TO.P,J1,10,Pin_10*%
%TO.N,/5V_SDA*%
X85035000Y-87300000D03*
%TO.P,J1,11,Pin_11*%
%TO.N,GND*%
X87575000Y-84760000D03*
%TO.P,J1,12,Pin_12*%
%TO.N,+5V*%
X87575000Y-87300000D03*
%TD*%
D33*
%TO.P,D1,1,K*%
%TO.N,/RC_Auto{slash}RC_RelaySig*%
X65642500Y-127700000D03*
%TO.P,D1,2,A*%
%TO.N,Net-(D1-Pad2)*%
X66787500Y-127700000D03*
%TD*%
D15*
%TO.P,D17,1,K*%
%TO.N,/RC_Auto{slash}RC_RelaySig*%
X163007500Y-67000000D03*
%TO.P,D17,2,A*%
%TO.N,Net-(D17-Pad2)*%
X161862500Y-67000000D03*
%TD*%
D34*
%TO.P,R22,1*%
%TO.N,+24V*%
X110840000Y-147400000D03*
%TO.P,R22,2*%
%TO.N,/Battery_Voltage_ADC*%
X112840000Y-147400000D03*
%TD*%
D28*
%TO.P,Q8,1,C*%
%TO.N,Net-(D11-Pad1)*%
X147900000Y-142150000D03*
D29*
%TO.P,Q8,2,B*%
%TO.N,Net-(Q8-Pad2)*%
X149170000Y-142150000D03*
%TO.P,Q8,3,E*%
%TO.N,GND*%
X150440000Y-142150000D03*
%TD*%
D17*
%TO.P,R25,1*%
%TO.N,+5V*%
X106130000Y-161740000D03*
%TO.P,R25,2*%
%TO.N,/RC_Auto{slash}RC_RelaySig*%
X104130000Y-161740000D03*
%TD*%
D34*
%TO.P,R31,1*%
%TO.N,+5V*%
X120287500Y-157400000D03*
%TO.P,R31,2*%
%TO.N,Net-(D14-Pad1)*%
X122287500Y-157400000D03*
%TD*%
D18*
%TO.P,J25,1,+*%
%TO.N,+12V*%
X194000000Y-228100000D03*
D19*
%TO.P,J25,2,-*%
%TO.N,GND*%
X186800000Y-228100000D03*
D20*
%TO.P,J25,S1*%
%TO.N,N/C*%
X197150000Y-234100000D03*
%TO.P,J25,S2*%
X183650000Y-234100000D03*
%TD*%
D10*
%TO.P,J19,1,Pin_1*%
%TO.N,Net-(D21-Pad2)*%
X147025000Y-52050000D03*
D11*
%TO.P,J19,2,Pin_2*%
%TO.N,+5V*%
X149565000Y-52050000D03*
%TD*%
D12*
%TO.P,Q11,1*%
%TO.N,Net-(Q11-Pad1)*%
X129170000Y-156290000D03*
D13*
%TO.P,Q11,2*%
%TO.N,Net-(D14-Pad2)*%
X126630000Y-156290000D03*
%TO.P,Q11,3*%
%TO.N,Net-(Q11-Pad3)*%
X126630000Y-163910000D03*
%TO.P,Q11,4*%
%TO.N,Net-(D18-Pad2)*%
X129170000Y-163910000D03*
%TD*%
D17*
%TO.P,R32,1*%
%TO.N,+5V*%
X215637500Y-105800000D03*
%TO.P,R32,2*%
%TO.N,Net-(D14-Pad1)*%
X213637500Y-105800000D03*
%TD*%
D12*
%TO.P,Q13,1*%
%TO.N,Net-(Q13-Pad1)*%
X208680000Y-154627500D03*
D13*
%TO.P,Q13,2*%
%TO.N,Net-(D16-Pad2)*%
X211220000Y-154627500D03*
%TO.P,Q13,3*%
%TO.N,Net-(Q13-Pad3)*%
X211220000Y-147007500D03*
%TO.P,Q13,4*%
%TO.N,Net-(D20-Pad2)*%
X208680000Y-147007500D03*
%TD*%
D17*
%TO.P,R30,1*%
%TO.N,+5V*%
X165812500Y-86650000D03*
%TO.P,R30,2*%
%TO.N,/RC_Auto{slash}RC_RelaySig*%
X163812500Y-86650000D03*
%TD*%
D12*
%TO.P,Q14,1*%
%TO.N,Net-(Q14-Pad1)*%
X156830000Y-62360000D03*
D13*
%TO.P,Q14,2*%
%TO.N,Net-(D17-Pad2)*%
X159370000Y-62360000D03*
%TO.P,Q14,3*%
%TO.N,Net-(Q14-Pad3)*%
X159370000Y-54740000D03*
%TO.P,Q14,4*%
%TO.N,Net-(D21-Pad2)*%
X156830000Y-54740000D03*
%TD*%
D28*
%TO.P,Q16,1,C*%
%TO.N,Net-(D19-Pad1)*%
X146930000Y-91410000D03*
D29*
%TO.P,Q16,2,B*%
%TO.N,Net-(Q16-Pad2)*%
X148200000Y-91410000D03*
%TO.P,Q16,3,E*%
%TO.N,GND*%
X149470000Y-91410000D03*
%TD*%
D17*
%TO.P,R3,1*%
%TO.N,+5V*%
X164850000Y-131100000D03*
%TO.P,R3,2*%
%TO.N,Net-(Q3-Pad1)*%
X162850000Y-131100000D03*
%TD*%
D25*
%TO.P,F2,1_1*%
%TO.N,/Power Management/fuse2_out*%
X74665000Y-189005000D03*
%TO.P,F2,1_2*%
X82995000Y-189005000D03*
%TO.P,F2,2_1*%
%TO.N,E-Stopped +24V*%
X95695000Y-189005000D03*
%TO.P,F2,2_2*%
X104025000Y-189005000D03*
%TD*%
D39*
%TO.P,U8,GND_1,GND*%
%TO.N,GND*%
X109780000Y-61020000D03*
%TO.P,U8,GND_2,GND*%
X99620000Y-61020000D03*
%TO.P,U8,HV,HV*%
%TO.N,+5V*%
X109780000Y-58480000D03*
D40*
%TO.P,U8,HV1,HV1*%
%TO.N,/Auto_5V_SDA*%
X109780000Y-53400000D03*
D39*
%TO.P,U8,HV2,HV2*%
%TO.N,/Auto_5V_SCL*%
X109780000Y-55940000D03*
%TO.P,U8,HV3,HV3*%
%TO.N,/Auto_5V_Rx*%
X109780000Y-63560000D03*
%TO.P,U8,HV4,HV4*%
%TO.N,/Auto_5V_Tx*%
X109780000Y-66100000D03*
%TO.P,U8,LV,LV*%
%TO.N,+3V3*%
X99620000Y-58480000D03*
D40*
%TO.P,U8,LV1,LV1*%
%TO.N,/Auto_3.3V_SDA*%
X99620000Y-53400000D03*
D39*
%TO.P,U8,LV2,LV2*%
%TO.N,/Auto_3.3V_SCL*%
X99620000Y-55940000D03*
%TO.P,U8,LV3,LV3*%
%TO.N,/Auto_3.3V_RX*%
X99620000Y-63560000D03*
%TO.P,U8,LV4,LV4*%
%TO.N,/Auto_3.3V_TX*%
X99620000Y-66100000D03*
%TD*%
D42*
%TO.N,+5V*%
X106244000Y-160364000D03*
%TO.N,GND*%
X69800000Y-94250000D03*
X74150000Y-94800000D03*
X81900000Y-111300000D03*
X82955000Y-61482300D03*
X83405000Y-105154000D03*
X117250000Y-146073000D03*
X90097000Y-84282100D03*
X176814200Y-161850000D03*
X152600000Y-191250000D03*
%TO.N,/RC_Auto{slash}RC_RelaySig*%
X109394000Y-137237000D03*
X162544000Y-127761000D03*
X171855000Y-88826500D03*
X169300000Y-107295500D03*
X169311000Y-88289600D03*
X162988000Y-134928000D03*
X213415000Y-136619000D03*
X164357000Y-107628000D03*
%TO.N,/RC_EStopRelaySig*%
X78733600Y-111477700D03*
%TO.N,/RC_WaterCannonSig*%
X64946400Y-135886000D03*
%TO.N,+3V3*%
X93671700Y-97215200D03*
%TO.N,/3.3V_SCL*%
X105594000Y-102919000D03*
%TO.N,/5V_Rx*%
X99761700Y-109017000D03*
%TO.N,E-Stop +5V*%
X169657000Y-108395000D03*
%TO.N,/Auto_3.3V_SDA*%
X56381800Y-62352100D03*
%TO.N,/Auto_5V_Rx*%
X97316600Y-54342500D03*
%TO.N,/Auto_5V_SDA*%
X99150600Y-51942400D03*
%TO.N,+24V*%
X110932000Y-148912000D03*
X153855000Y-163477000D03*
%TO.N,/3.3V_AUTO_FrontMotorSig*%
X81963900Y-57085400D03*
%TO.N,/3.3V_RC_RearMotorSig*%
X100716000Y-140141000D03*
%TO.N,/3.3V_AUTO_RearMotorSig*%
X55057900Y-87887500D03*
%TO.N,/Auto_WaterCannonSig*%
X166696000Y-105722000D03*
%TO.N,/Battery_Voltage_ADC*%
X54200000Y-89950000D03*
X63153000Y-104400000D03*
X112150000Y-110502000D03*
%TO.N,/3.3V_RC_FrontServoSig*%
X107848000Y-137144000D03*
%TO.N,/3.3V_RC_WCServo1Sig*%
X127901000Y-119535000D03*
%TO.N,Net-(D14-Pad1)*%
X83137000Y-123655100D03*
X200994000Y-107217000D03*
X69665100Y-132027500D03*
X118099000Y-127879000D03*
%TD*%
D43*
%TO.N,E-Stop Relay Signal +24V*%
X162650000Y-166050000D02*
X156900000Y-171800000D01*
X156900000Y-171800000D02*
X156900000Y-184575000D01*
D44*
X162650000Y-166050000D02*
X138295000Y-190405000D01*
X138295000Y-190405000D02*
X129745000Y-190405000D01*
%TO.N,+24V*%
X168700000Y-195850000D02*
X168700000Y-165950000D01*
X168700000Y-165950000D02*
X164200000Y-161450000D01*
X164200000Y-161450000D02*
X155882000Y-161450000D01*
X155882000Y-161450000D02*
X153855000Y-163477000D01*
D43*
%TO.N,Net-(D22-Pad2)*%
X209520000Y-105877500D02*
X209520000Y-108807500D01*
X209520000Y-108807500D02*
X210862500Y-110150000D01*
%TO.N,Net-(D14-Pad1)*%
X212008000Y-110150000D02*
X212008000Y-107430000D01*
X200994000Y-107217000D02*
X205077000Y-111300000D01*
X211845000Y-110805000D02*
X211845000Y-110312000D01*
X205077000Y-111300000D02*
X211350000Y-111300000D01*
X211350000Y-111300000D02*
X211845000Y-110805000D01*
%TO.N,/Boat Relays/WaterCannonSignal*%
X189450000Y-126400000D02*
X195170000Y-132120000D01*
X210600000Y-160050000D02*
X212322000Y-160050000D01*
X195170000Y-132120000D02*
X195170000Y-149570000D01*
X195170000Y-149570000D02*
X196300000Y-150700000D01*
X196300000Y-150700000D02*
X200316000Y-150700000D01*
X203348000Y-149679000D02*
X203762000Y-150093000D01*
X200316000Y-150700000D02*
X201337000Y-149679000D01*
X201337000Y-149679000D02*
X203348000Y-149679000D01*
X203762000Y-150093000D02*
X203762000Y-153212000D01*
X203762000Y-153212000D02*
X210600000Y-160050000D01*
X212322000Y-160050000D02*
X213322500Y-159049500D01*
%TO.N,+5V*%
X151317000Y-58138900D02*
X151317000Y-77150000D01*
X197233000Y-95400000D02*
X197233000Y-95866900D01*
X216850000Y-123100000D02*
X216850000Y-128900000D01*
X152797000Y-56658500D02*
X151317000Y-58138900D01*
X200140000Y-119700000D02*
X200664000Y-119700000D01*
X165475000Y-81012900D02*
X165762000Y-81300000D01*
X48000000Y-132474022D02*
X50025978Y-134500000D01*
X108780000Y-107580000D02*
X108780000Y-108159000D01*
X217712000Y-147700000D02*
X217700000Y-147712000D01*
X165088000Y-55225800D02*
X165400000Y-55537900D01*
X216850000Y-144766000D02*
X216850000Y-146838000D01*
X201140000Y-143850000D02*
X215934000Y-143850000D01*
X165112000Y-106100000D02*
X161062000Y-102050000D01*
X40225000Y-101287000D02*
X38450000Y-103062000D01*
X106244000Y-160364000D02*
X106130000Y-160478000D01*
X217604000Y-147592000D02*
X217658000Y-147646000D01*
X165588000Y-55975000D02*
X165588000Y-58787500D01*
X165112000Y-106349000D02*
X165112000Y-106224000D01*
X38450000Y-121550000D02*
X48000000Y-131100000D01*
X215662000Y-105423000D02*
X215662000Y-105775000D01*
X64162500Y-142400000D02*
X80160000Y-142400000D01*
X217604000Y-147592000D02*
X217658000Y-147646000D01*
X165762000Y-81300000D02*
X165138000Y-80675800D01*
X217712500Y-147700000D02*
X217712000Y-147700000D01*
X66445100Y-71661700D02*
X56963700Y-81143100D01*
X191018000Y-102082000D02*
X190900000Y-102200000D01*
X163453000Y-129703000D02*
X164850000Y-131100000D01*
X217497000Y-147484000D02*
X217604000Y-147592000D01*
X151317000Y-77150000D02*
X161612000Y-77150000D01*
X66445100Y-44873700D02*
X66445100Y-71661700D01*
X61362500Y-139600000D02*
X64162500Y-142400000D01*
X165812000Y-81350000D02*
X165812000Y-84000000D01*
X165650000Y-55912500D02*
X165588000Y-55975000D01*
X165400000Y-55537900D02*
X165556000Y-55693900D01*
X217281000Y-147269000D02*
X217604000Y-147592000D01*
X160600000Y-126850000D02*
X163453000Y-129703000D01*
X111840000Y-111219000D02*
X111840000Y-160364000D01*
X165112000Y-117321000D02*
X165112000Y-111400000D01*
X165556000Y-55693900D02*
X165712000Y-55850000D01*
X165556000Y-55693900D02*
X165712000Y-55850000D01*
X215934000Y-143850000D02*
X216850000Y-144766000D01*
X165112000Y-110560000D02*
X165112000Y-110559000D01*
X216850000Y-146838000D02*
X217281000Y-147269000D01*
X50025978Y-134500000D02*
X61387500Y-134500000D01*
X150140000Y-77150000D02*
X151317000Y-77150000D01*
X215637500Y-105800000D02*
X215638000Y-105800000D01*
X217604000Y-147592000D02*
X217658000Y-147646000D01*
X106244000Y-160364000D02*
X111840000Y-160364000D01*
X215662000Y-105775000D02*
X215662000Y-105423000D01*
X106130000Y-160478000D02*
X106130000Y-161740000D01*
X163453000Y-129703000D02*
X165112000Y-128043000D01*
X165112500Y-106100000D02*
X165112000Y-106100000D01*
X150140000Y-126850000D02*
X160600000Y-126850000D01*
X165588000Y-61599500D02*
X165588000Y-58787500D01*
X161062000Y-102050000D02*
X148815000Y-102050000D01*
X215638000Y-105800000D02*
X215650000Y-105788000D01*
X61387500Y-134500000D02*
X61387500Y-139575000D01*
X165400000Y-55537900D02*
X165556000Y-55693900D01*
X165762300Y-81300200D02*
X165812000Y-81350000D01*
X158100000Y-52050000D02*
X161912000Y-52050000D01*
X165112000Y-110560000D02*
X165112000Y-111400000D01*
X177750000Y-170090000D02*
X177750000Y-167600000D01*
X120460000Y-47800000D02*
X109780000Y-58480000D01*
X137360000Y-167450000D02*
X123637500Y-167450000D01*
X165112000Y-106350000D02*
X165112000Y-106349000D01*
X165112000Y-106224000D02*
X165112000Y-106100000D01*
X215662000Y-117488000D02*
X213450000Y-119700000D01*
X165112500Y-111400000D02*
X165112000Y-111400000D01*
X165112000Y-110559000D02*
X165112000Y-106350000D01*
X165112000Y-106224000D02*
X165112000Y-106100000D01*
X165587500Y-61600000D02*
X165588000Y-61599500D01*
X73325000Y-36700000D02*
X73325000Y-37993800D01*
X165112000Y-106350000D02*
X165112000Y-106349000D01*
X92170000Y-152740000D02*
X102680000Y-152740000D01*
X165712500Y-55850000D02*
X165712000Y-55850000D01*
X217658000Y-147646000D02*
X217712000Y-147700000D01*
X217658000Y-147646000D02*
X217712000Y-147700000D01*
X215662000Y-105775000D02*
X215662000Y-117488000D01*
X102680000Y-152740000D02*
X106330000Y-156390000D01*
X149565000Y-52050000D02*
X145315000Y-47800000D01*
X198410000Y-95400000D02*
X197233000Y-95400000D01*
X165650000Y-55912500D02*
X165712000Y-55850000D01*
X217497000Y-147484000D02*
X217604000Y-147592000D01*
X175260000Y-172580000D02*
X177750000Y-170090000D01*
X165812500Y-86650000D02*
X165812000Y-86649500D01*
X215662000Y-99600500D02*
X215662000Y-102512000D01*
X119516000Y-157400000D02*
X116552000Y-160364000D01*
X165812000Y-86649500D02*
X165812000Y-84000000D01*
X120287500Y-157400000D02*
X119516000Y-157400000D01*
X161612000Y-77150000D02*
X165138000Y-80675800D01*
X165112000Y-110559000D02*
X165112000Y-110560000D01*
X215662000Y-105775000D02*
X215650000Y-105788000D01*
X217281000Y-147269000D02*
X217282000Y-147269000D01*
X165112000Y-128043000D02*
X165112000Y-117321000D01*
X116552000Y-160364500D02*
X116552000Y-160364000D01*
X165112000Y-106349000D02*
X165112000Y-106224000D01*
X200664000Y-119700000D02*
X213450000Y-119700000D01*
X164850000Y-131100000D02*
X164850000Y-136600000D01*
X165112000Y-117321000D02*
X165112000Y-111400000D01*
X217282000Y-147269000D02*
X217497000Y-147484000D01*
X158100000Y-52050000D02*
X158100000Y-54832100D01*
X215662500Y-99600000D02*
X215662000Y-99600500D01*
X165112000Y-106224000D02*
X165112000Y-106100000D01*
X73325000Y-37993800D02*
X66445100Y-44873700D01*
X165400000Y-55537900D02*
X165556000Y-55693900D01*
X56600000Y-81143100D02*
X56600000Y-82320000D01*
X123637500Y-167450000D02*
X120187500Y-164000000D01*
X213450000Y-119700000D02*
X216850000Y-123100000D01*
X164850000Y-136600000D02*
X164850000Y-154700000D01*
X165475000Y-81012900D02*
X165762300Y-81300200D01*
X158100000Y-54832100D02*
X156274000Y-56658500D01*
X120187500Y-164000000D02*
X116552000Y-160364500D01*
X216850000Y-128900000D02*
X216850000Y-144766000D01*
X200664000Y-119700000D02*
X191018000Y-110054000D01*
X108780000Y-108159000D02*
X111840000Y-111219000D01*
X56963700Y-81143100D02*
X56600000Y-81143100D01*
X165088000Y-55225800D02*
X165400000Y-55537900D01*
X164850000Y-154700000D02*
X177750000Y-167600000D01*
X38450000Y-103062000D02*
X38450000Y-121550000D01*
X217604000Y-147592000D02*
X217658000Y-147646000D01*
X165112000Y-111400000D02*
X165112000Y-110560000D01*
X217658000Y-147646000D02*
X217712000Y-147700000D01*
X217658000Y-147646000D02*
X217712000Y-147700000D01*
X145315000Y-47800000D02*
X120460000Y-47800000D01*
X197233000Y-95866900D02*
X191018000Y-102082000D01*
X217700000Y-147712000D02*
X217700000Y-153000000D01*
X165138000Y-80675800D02*
X165475000Y-81012900D01*
X191018000Y-110054000D02*
X191018000Y-102082000D01*
X215662000Y-105423000D02*
X215662000Y-102512000D01*
X217658000Y-147646000D02*
X217712000Y-147700000D01*
X161912000Y-52050000D02*
X165088000Y-55225800D01*
X40225000Y-100110000D02*
X40225000Y-101287000D01*
X165650000Y-55912500D02*
X165712000Y-55850000D01*
X111840000Y-160364000D02*
X116552000Y-160364000D01*
X61387500Y-139575000D02*
X61362500Y-139600000D01*
X149565000Y-52050000D02*
X158100000Y-52050000D01*
X165556000Y-55693900D02*
X165712000Y-55850000D01*
X156274000Y-56658500D02*
X152797000Y-56658500D01*
X165762500Y-81300000D02*
X165762300Y-81300200D01*
X48000000Y-131100000D02*
X48000000Y-132474022D01*
%TO.N,GND*%
X58005000Y-117890000D02*
X58005000Y-119499022D01*
X72148100Y-33794200D02*
X70810700Y-32456800D01*
X177750000Y-161850000D02*
X176814200Y-161850000D01*
X79529700Y-94800000D02*
X74150000Y-94800000D01*
X152600000Y-191250000D02*
X156775000Y-191250000D01*
X73325000Y-35336900D02*
X73325000Y-34160000D01*
X45305000Y-119499022D02*
X45305000Y-117890000D01*
X44855000Y-71516900D02*
X45305000Y-71966900D01*
X40850000Y-148950000D02*
X40850000Y-157650000D01*
X110890000Y-62130500D02*
X110890000Y-64047300D01*
X44855000Y-50760000D02*
X44855000Y-68540000D01*
X83405000Y-112805000D02*
X83405000Y-117890000D01*
X59181900Y-117081000D02*
X59594400Y-116668000D01*
X61895000Y-35430000D02*
X60625000Y-36700000D01*
X74519000Y-39502700D02*
X74519000Y-36165100D01*
X63179400Y-32456800D02*
X61895000Y-33741200D01*
X74150000Y-94800000D02*
X71714800Y-94800000D01*
X110206000Y-64732200D02*
X103332000Y-64732200D01*
X71714800Y-94800000D02*
X70705000Y-95809800D01*
X74519000Y-36165100D02*
X73690800Y-35336900D01*
X73690800Y-35336900D02*
X73325000Y-35336900D01*
X103332000Y-64732200D02*
X99620000Y-61020000D01*
X109780000Y-61020000D02*
X110890000Y-62130500D01*
X156775000Y-191250000D02*
X156900000Y-191125000D01*
X117250000Y-146073000D02*
X117250000Y-147400000D01*
X58005000Y-119499022D02*
X54604022Y-122900000D01*
X70255000Y-43766700D02*
X74519000Y-39502700D01*
X82955000Y-50760000D02*
X82955000Y-51936900D01*
X70705000Y-117890000D02*
X70705000Y-116668000D01*
X58005000Y-117890000D02*
X59181900Y-117890000D01*
X86628100Y-59650000D02*
X87805000Y-59650000D01*
X61895000Y-33741200D02*
X61895000Y-35430000D01*
X54604022Y-122900000D02*
X48705978Y-122900000D01*
X72148100Y-34160000D02*
X72148100Y-33794200D01*
X82955000Y-68540000D02*
X82955000Y-61482300D01*
X44855000Y-68540000D02*
X44855000Y-71516900D01*
X70255000Y-50760000D02*
X70255000Y-43766700D01*
X83405000Y-100110000D02*
X83405000Y-105154000D01*
X86628100Y-55610000D02*
X86628100Y-59650000D01*
X74875000Y-87300000D02*
X74875000Y-89075000D01*
X82955000Y-68540000D02*
X82955000Y-77140100D01*
X59594400Y-116668000D02*
X70705000Y-116668000D01*
X48705978Y-122900000D02*
X45305000Y-119499022D01*
X70705000Y-116668000D02*
X70705000Y-100110000D01*
X110890000Y-64047300D02*
X110206000Y-64732200D01*
X83405000Y-98675300D02*
X79529700Y-94800000D01*
X73325000Y-34160000D02*
X72148100Y-34160000D01*
X70705000Y-95809800D02*
X70705000Y-100110000D01*
X45305000Y-71966900D02*
X45305000Y-100110000D01*
X59181900Y-117890000D02*
X59181900Y-117081000D01*
X81900000Y-111300000D02*
X83405000Y-112805000D01*
X82955000Y-51936900D02*
X86628100Y-55610000D01*
X74875000Y-89175000D02*
X69800000Y-94250000D01*
X70810700Y-32456800D02*
X63179400Y-32456800D01*
X83405000Y-100110000D02*
X83405000Y-98675300D01*
X82955000Y-77140100D02*
X90097000Y-84282100D01*
%TO.N,/RC_Auto{slash}RC_RelaySig*%
X107263000Y-154809000D02*
X109394000Y-152678000D01*
X162850000Y-136600000D02*
X159622000Y-139828000D01*
X70342500Y-123000000D02*
X72284000Y-123000000D01*
X72284000Y-123000000D02*
X73464000Y-121820000D01*
X65642500Y-127700000D02*
X65642500Y-132245000D01*
X162458000Y-91800000D02*
X163412000Y-90845800D01*
X166789000Y-87335200D02*
X167743000Y-88289600D01*
X107263000Y-154809000D02*
X107263000Y-158317000D01*
X213422000Y-134118000D02*
X213422000Y-136611000D01*
X104130000Y-161450000D02*
X104130000Y-161740000D01*
X99981400Y-146748000D02*
X107263000Y-154030000D01*
X159622500Y-142200000D02*
X159622000Y-142200000D01*
X214850000Y-132690000D02*
X213422000Y-134118000D01*
X99981400Y-137408000D02*
X99981400Y-146748000D01*
X170369000Y-90312600D02*
X171855000Y-88826500D01*
X163412000Y-90845800D02*
X163412000Y-87050500D01*
X162360000Y-116748000D02*
X161608000Y-117500000D01*
X163588000Y-61600000D02*
X163588000Y-61600500D01*
X73464000Y-121820000D02*
X74244000Y-122600000D01*
X164357000Y-107628000D02*
X164357000Y-110155000D01*
X214850000Y-128900000D02*
X214850000Y-132690000D01*
X163008000Y-64701000D02*
X163008000Y-64700500D01*
X159622000Y-140422000D02*
X159622000Y-141014000D01*
X213422000Y-136611000D02*
X213415000Y-136619000D01*
X159622000Y-141014000D02*
X159622000Y-142200000D01*
X162850000Y-135067000D02*
X162850000Y-136600000D01*
X163008000Y-67000000D02*
X163008000Y-64701000D01*
X162457500Y-91800000D02*
X162458000Y-91800000D01*
X109394000Y-152678000D02*
X109394000Y-137237000D01*
X75785000Y-119499000D02*
X75785000Y-117890000D01*
X167743000Y-88289600D02*
X169311000Y-88289600D01*
X166789000Y-87335200D02*
X166789000Y-70781300D01*
X65642500Y-132245000D02*
X63387500Y-134500000D01*
X159622000Y-140421000D02*
X159622000Y-140422000D01*
X163112500Y-111399500D02*
X163112000Y-111400000D01*
X163008000Y-64701000D02*
X163008000Y-67000000D01*
X159622000Y-140421000D02*
X159622000Y-140422000D01*
X163112000Y-111400000D02*
X163112000Y-111557000D01*
X164357000Y-110155000D02*
X163112500Y-111399500D01*
X163812500Y-86650000D02*
X163812000Y-86650000D01*
X213422000Y-134118000D02*
X212522500Y-135017500D01*
X163112000Y-111557000D02*
X163112000Y-111558000D01*
X161608000Y-117500000D02*
X161608000Y-126825000D01*
X161608000Y-126825000D02*
X162544000Y-127761000D01*
X74244000Y-122600000D02*
X85173400Y-122600000D01*
X159622000Y-139828000D02*
X159622000Y-140421000D01*
X170369000Y-106226500D02*
X170369000Y-90312600D01*
X163812000Y-86650200D02*
X164875000Y-87712500D01*
X163812000Y-86650000D02*
X163412000Y-87050500D01*
X162988000Y-134928000D02*
X162850000Y-135067000D01*
X65642500Y-127700000D02*
X70342500Y-123000000D01*
X169300000Y-107295500D02*
X170369000Y-106226500D01*
X166412000Y-87712500D02*
X166789000Y-87335200D01*
X163112000Y-111558000D02*
X163112000Y-111557000D01*
X163008000Y-64700500D02*
X163008000Y-64701000D01*
X163112500Y-111399500D02*
X163112500Y-111400000D01*
X85173400Y-122600000D02*
X99981400Y-137408000D01*
X163587500Y-61600000D02*
X163588000Y-61600000D01*
X163812000Y-86650000D02*
X163812000Y-86650200D01*
X163812000Y-86650000D02*
X163812000Y-86650200D01*
X159622000Y-140422000D02*
X159622000Y-141014000D01*
X161607500Y-117500000D02*
X161608000Y-117500000D01*
X166789000Y-70781300D02*
X163008000Y-67000000D01*
X163007500Y-67000000D02*
X163008000Y-67000000D01*
X163588000Y-61600500D02*
X163008000Y-62180000D01*
X104130000Y-161740000D02*
X104130000Y-165862500D01*
X73464000Y-121820000D02*
X75785000Y-119499000D01*
X163812000Y-86650000D02*
X163412000Y-87050500D01*
X163008000Y-62180000D02*
X163008000Y-64700500D01*
X102502500Y-167490000D02*
X104130000Y-165862500D01*
X107263000Y-158317000D02*
X104130000Y-161450000D01*
X107263000Y-154030000D02*
X107263000Y-154809000D01*
X163112000Y-115995000D02*
X162360000Y-116748000D01*
X164875000Y-87712500D02*
X166412000Y-87712500D01*
X163112000Y-111558000D02*
X163112000Y-115995000D01*
X163112000Y-111557000D02*
X163112000Y-111400000D01*
%TO.N,Net-(D8-Pad2)*%
X211378000Y-134318000D02*
X211378000Y-134668000D01*
X211378000Y-134668000D02*
X211378000Y-135018000D01*
X211378000Y-132918000D02*
X211378000Y-133618000D01*
X211378000Y-132918000D02*
X211378000Y-133618000D01*
X209820000Y-130660000D02*
X211378000Y-132218000D01*
X211378000Y-133968000D02*
X211378000Y-134318000D01*
X211378000Y-132218000D02*
X211378000Y-132918000D01*
X211378000Y-133618000D02*
X211378000Y-133968000D01*
X211378000Y-134668000D02*
X211377500Y-134668500D01*
X211378000Y-133968000D02*
X211378000Y-134318000D01*
X211377500Y-134668500D02*
X211377500Y-135017500D01*
D45*
%TO.N,+12V*%
X186050000Y-159400000D02*
X191550000Y-164900000D01*
X186050000Y-154100000D02*
X186050000Y-159400000D01*
X189350000Y-150800000D02*
X186050000Y-154100000D01*
X191900000Y-150800000D02*
X189350000Y-150800000D01*
X191550000Y-164900000D02*
X200100000Y-164900000D01*
D43*
%TO.N,Net-(D9-Pad1)*%
X81600000Y-134512000D02*
X81600000Y-134512500D01*
X84100000Y-132012000D02*
X84100000Y-130900000D01*
X90850000Y-130900000D02*
X84100000Y-130900000D01*
X84100000Y-130900000D02*
X82050000Y-128850000D01*
X81600000Y-134512000D02*
X84100000Y-132012000D01*
%TO.N,Net-(D9-Pad2)*%
X81599900Y-137488000D02*
X81600000Y-137488000D01*
X73542500Y-137488000D02*
X81599500Y-137488000D01*
X81599800Y-137488000D02*
X81599900Y-137488000D01*
X81599900Y-137488000D02*
X81600000Y-137488000D01*
X81599900Y-137488000D02*
X81600000Y-137488000D01*
X81599900Y-137488000D02*
X81600000Y-137488000D01*
X82700000Y-138588000D02*
X82700000Y-142400000D01*
X83200000Y-142900000D02*
X82700000Y-142400000D01*
X81599800Y-137488000D02*
X81599900Y-137488000D01*
X70970000Y-140060000D02*
X73542500Y-137488000D01*
X81599500Y-137488000D02*
X81599800Y-137488000D01*
X81600000Y-137488000D02*
X82700000Y-138588000D01*
X90850000Y-142900000D02*
X83200000Y-142900000D01*
X81600000Y-137488000D02*
X81600000Y-137487500D01*
X81599500Y-137488000D02*
X81599800Y-137488000D01*
X81599800Y-137488000D02*
X81599900Y-137488000D01*
%TO.N,Net-(D1-Pad2)*%
X68430000Y-132440000D02*
X68430000Y-129342000D01*
X68430000Y-129342000D02*
X66787500Y-127700000D01*
%TO.N,Net-(D10-Pad1)*%
X78830000Y-166040000D02*
X82667500Y-166040000D01*
X87680000Y-161028000D02*
X89790000Y-163138000D01*
X82667500Y-166040000D02*
X87680000Y-161028000D01*
X89790000Y-163138000D02*
X89790000Y-166640000D01*
X87680000Y-161027500D02*
X87680000Y-161028000D01*
%TO.N,Net-(D2-Pad2)*%
X101357500Y-167489500D02*
X101357500Y-167490000D01*
X101357500Y-167489500D02*
X101358000Y-167490000D01*
X100400000Y-162900000D02*
X100400000Y-166532000D01*
X100400000Y-166532000D02*
X101357500Y-167489500D01*
%TO.N,Net-(D10-Pad2)*%
X89630000Y-156102000D02*
X89630000Y-152740000D01*
X87479400Y-157852000D02*
X87579700Y-157952000D01*
X87278800Y-157651000D02*
X87479400Y-157852000D01*
X87680000Y-158052500D02*
X87680000Y-158052000D01*
X90452500Y-155280000D02*
X97860000Y-155280000D01*
X87278800Y-157651000D02*
X87479400Y-157852000D01*
X86877500Y-157250000D02*
X87278800Y-157651000D01*
X87479400Y-157852000D02*
X87579700Y-157952000D01*
X87579700Y-157952000D02*
X87629900Y-158002000D01*
X89630000Y-156102000D02*
X90452500Y-155280000D01*
X87680000Y-158052000D02*
X89630000Y-156102000D01*
X87579700Y-157952000D02*
X87629900Y-158002000D01*
X87629900Y-158002000D02*
X87680000Y-158052000D01*
X86075000Y-156447000D02*
X86877500Y-157250000D01*
X87629900Y-158002000D02*
X87680000Y-158052000D01*
X87629900Y-158002000D02*
X87680000Y-158052000D01*
X83667500Y-154040000D02*
X86075000Y-156447000D01*
X78830000Y-154040000D02*
X83667500Y-154040000D01*
X87579700Y-157952000D02*
X87629900Y-158002000D01*
X87479400Y-157852000D02*
X87579700Y-157952000D01*
X86877500Y-157250000D02*
X87278800Y-157651000D01*
X86075000Y-156447000D02*
X86877500Y-157250000D01*
%TO.N,Net-(D3-Pad2)*%
X158570000Y-137728000D02*
X158570000Y-137727500D01*
X158570000Y-137728000D02*
X158570000Y-142108000D01*
X158529000Y-142148000D02*
X158503500Y-142174000D01*
X158547000Y-142131000D02*
X158546000Y-142131000D01*
X158529000Y-142148000D02*
X158512000Y-142166000D01*
X158503500Y-142174000D02*
X158478000Y-142200000D01*
X158503500Y-142174000D02*
X158477500Y-142200000D01*
X158570000Y-142108000D02*
X158547000Y-142131000D01*
X158546000Y-142131000D02*
X158529000Y-142148000D01*
X158547000Y-142131000D02*
X158524000Y-142154000D01*
%TO.N,Net-(D11-Pad1)*%
X146150000Y-135488000D02*
X146150000Y-135487500D01*
X146150000Y-135488000D02*
X147900000Y-137238000D01*
X137900000Y-140650000D02*
X140988000Y-140650000D01*
X147900000Y-137238000D02*
X147900000Y-142150000D01*
X140988000Y-140650000D02*
X146150000Y-135488000D01*
%TO.N,Net-(D4-Pad2)*%
X160462500Y-117500000D02*
X160462000Y-117500000D01*
X160444300Y-117482000D02*
X160462000Y-117500000D01*
X160320000Y-117357000D02*
X160391000Y-117428000D01*
X160320000Y-117357000D02*
X160391000Y-117428000D01*
X160426500Y-117464000D02*
X160444300Y-117482000D01*
X160177000Y-117214000D02*
X160320000Y-117357000D01*
X160462000Y-117500000D02*
X159891000Y-116929000D01*
X159891000Y-116929000D02*
X159892000Y-116929000D01*
X160391000Y-117428000D02*
X160426500Y-117464000D01*
X159320000Y-112760000D02*
X159320000Y-116358000D01*
X160391000Y-117428000D02*
X160426500Y-117464000D01*
X160391000Y-117428000D02*
X160426500Y-117464000D01*
X160391000Y-117428000D02*
X160426500Y-117464000D01*
X160426500Y-117464000D02*
X160444300Y-117482000D01*
X159892000Y-116929000D02*
X160177000Y-117214000D01*
X160426500Y-117464000D02*
X160444300Y-117482000D01*
X160444300Y-117482000D02*
X160462000Y-117500000D01*
X160426500Y-117464000D02*
X160444300Y-117482000D01*
X160177000Y-117214000D02*
X160320000Y-117357000D01*
X160444300Y-117482000D02*
X160462000Y-117500000D01*
X160444300Y-117482000D02*
X160462000Y-117500000D01*
X160320000Y-117357000D02*
X160391000Y-117428000D01*
X159320000Y-116358000D02*
X159891000Y-116929000D01*
%TO.N,Net-(D5-Pad2)*%
X177750000Y-162995000D02*
X177750000Y-165600000D01*
%TO.N,Net-(D11-Pad2)*%
X141762000Y-132512000D02*
X146149500Y-132512000D01*
X150858000Y-130108000D02*
X147600000Y-126850000D01*
X156029500Y-130108000D02*
X150858000Y-130108000D01*
X146149500Y-132512000D02*
X146150000Y-132512500D01*
X156030000Y-130108000D02*
X156029500Y-130108000D01*
X148452000Y-132512000D02*
X150858000Y-130108000D01*
X137900000Y-128650000D02*
X141762000Y-132512000D01*
X146149500Y-132512000D02*
X148452000Y-132512000D01*
X156029500Y-130108000D02*
X156030000Y-130107500D01*
%TO.N,Net-(D12-Pad1)*%
X146350000Y-110388000D02*
X146350000Y-110387500D01*
X146400000Y-117350000D02*
X146400000Y-110438000D01*
X146400000Y-110438000D02*
X146350000Y-110388000D01*
X137800000Y-115300000D02*
X144350000Y-115300000D01*
X144350000Y-115300000D02*
X146400000Y-117350000D01*
%TO.N,Net-(D12-Pad2)*%
X146350000Y-107412500D02*
X146350000Y-107412000D01*
X146347500Y-107410000D02*
X146348800Y-107411000D01*
X146331000Y-107394000D02*
X146340000Y-107403000D01*
X146348800Y-107411000D02*
X146350000Y-107412000D01*
X151860000Y-105140000D02*
X156780000Y-105140000D01*
X146347500Y-107410000D02*
X146348800Y-107411000D01*
X146348800Y-107411000D02*
X146350000Y-107412000D01*
X146348800Y-107411000D02*
X146350000Y-107412000D01*
X146345000Y-107408000D02*
X146347500Y-107410000D01*
X139050000Y-102050000D02*
X137800000Y-103300000D01*
X146275000Y-102050000D02*
X139050000Y-102050000D01*
X146345000Y-107408000D02*
X146347500Y-107410000D01*
X146275000Y-102050000D02*
X146275000Y-107338000D01*
X146347500Y-107410000D02*
X146348800Y-107411000D01*
X146340000Y-107403000D02*
X146345000Y-107408000D01*
X149588000Y-107412000D02*
X151860000Y-105140000D01*
X146275000Y-107338000D02*
X146312000Y-107375000D01*
X146340000Y-107403000D02*
X146345000Y-107408000D01*
X146312000Y-107375000D02*
X146331000Y-107394000D01*
X146345000Y-107408000D02*
X146347500Y-107410000D01*
X146348800Y-107411000D02*
X146350000Y-107412000D01*
X146340000Y-107403000D02*
X146345000Y-107408000D01*
X146331000Y-107394000D02*
X146340000Y-107403000D01*
X146348800Y-107411000D02*
X146350000Y-107412000D01*
X146347500Y-107410000D02*
X146348800Y-107411000D01*
X146345000Y-107408000D02*
X146347500Y-107410000D01*
X146347500Y-107410000D02*
X146348800Y-107411000D01*
X146331000Y-107394000D02*
X146340000Y-107403000D01*
X146345000Y-107408000D02*
X146347500Y-107410000D01*
X146340000Y-107403000D02*
X146345000Y-107408000D01*
X146350000Y-107412000D02*
X149588000Y-107412000D01*
X146312000Y-107375000D02*
X146331000Y-107394000D01*
%TO.N,Net-(D13-Pad1)*%
X195700000Y-127938000D02*
X198100000Y-130338000D01*
X195700000Y-127938000D02*
X195700000Y-127937500D01*
X198100000Y-130338000D02*
X198100000Y-133500000D01*
%TO.N,Net-(D13-Pad2)*%
X195791000Y-124872000D02*
X195745500Y-124917000D01*
X200940000Y-123040000D02*
X197622000Y-123040000D01*
X195745500Y-124917000D02*
X195700000Y-124962000D01*
X195792000Y-124872000D02*
X195761000Y-124902000D01*
X197622000Y-123040000D02*
X195822000Y-124840000D01*
X195822000Y-124840000D02*
X195781000Y-124881000D01*
X195792000Y-124872000D02*
X195791000Y-124872000D01*
X207280000Y-123040000D02*
X200940000Y-123040000D01*
X195822000Y-124840000D02*
X195822000Y-124841000D01*
X195822000Y-124841000D02*
X195792000Y-124872000D01*
X200940000Y-123040000D02*
X197600000Y-119700000D01*
X195745500Y-124917000D02*
X195700000Y-124962500D01*
%TO.N,/RC_EStopRelaySig*%
X78733600Y-111477700D02*
X80865000Y-113609100D01*
X80865000Y-113619100D02*
X80865000Y-117900000D01*
%TO.N,Net-(D14-Pad2)*%
X125522500Y-150950000D02*
X125522500Y-150950500D01*
X126630000Y-152058000D02*
X126630000Y-156290000D01*
X125522500Y-150950500D02*
X126630000Y-152058000D01*
%TO.N,Net-(D15-Pad2)*%
X161312000Y-90506300D02*
X161312000Y-90885000D01*
X161312500Y-91571700D02*
X161312500Y-91800000D01*
X161312000Y-91571200D02*
X161312000Y-91800000D01*
X161312000Y-91113700D02*
X161312000Y-91114200D01*
X159270000Y-87927500D02*
X161312000Y-89970000D01*
X161312000Y-90885000D02*
X161312000Y-91113700D01*
X161312000Y-91113700D02*
X161312000Y-91114200D01*
X161312000Y-91114200D02*
X161312000Y-91342500D01*
X161312000Y-91114200D02*
X161312000Y-91342500D01*
X161312000Y-91571200D02*
X161312500Y-91571700D01*
X161312000Y-89970000D02*
X161312000Y-90506300D01*
X161312000Y-91342500D02*
X161312000Y-91571200D01*
X161312000Y-90506300D02*
X161312000Y-90885000D01*
%TO.N,Net-(Q1-Pad1)*%
X70970000Y-132440000D02*
X70522500Y-132440000D01*
X70522500Y-132440000D02*
X63362500Y-139600000D01*
%TO.N,Net-(Q1-Pad3)*%
X68430000Y-140060000D02*
X72240000Y-136250000D01*
X72240000Y-136250000D02*
X75487500Y-136250000D01*
%TO.N,Net-(Q2-Pad1)*%
X104330000Y-156430000D02*
X97860000Y-162900000D01*
X104330000Y-156390000D02*
X104330000Y-156430000D01*
%TO.N,Net-(Q2-Pad3)*%
X95790000Y-159890000D02*
X100400000Y-155280000D01*
X93692500Y-159890000D02*
X95790000Y-159890000D01*
%TO.N,/RC_WaterCannonSig*%
X63100300Y-135886000D02*
X64946400Y-135886000D01*
X60545000Y-117890000D02*
X60545000Y-128812000D01*
X62436100Y-130703000D02*
X62436100Y-135222000D01*
X60545000Y-128812000D02*
X62436100Y-130703000D01*
X62436100Y-135222000D02*
X63100300Y-135886000D01*
%TO.N,Net-(D16-Pad2)*%
X211220000Y-154627500D02*
X211220500Y-154627500D01*
X212178000Y-157220000D02*
X212178000Y-158855000D01*
X212178000Y-155585000D02*
X211460000Y-154867000D01*
X212177500Y-158953000D02*
X212177500Y-159050000D01*
X212178000Y-157220000D02*
X212178000Y-155585000D01*
X212178000Y-158952500D02*
X212178000Y-159050000D01*
X212178000Y-157220000D02*
X212178000Y-158855000D01*
X211220500Y-154627500D02*
X211460000Y-154867000D01*
X212178000Y-158855000D02*
X212178000Y-158952500D01*
X212178000Y-158952500D02*
X212177500Y-158953000D01*
%TO.N,Net-(D17-Pad2)*%
X159370000Y-64507500D02*
X161862000Y-67000000D01*
X161862500Y-67000000D02*
X161862000Y-67000000D01*
X159370000Y-62360000D02*
X159370000Y-64507500D01*
%TO.N,Net-(D18-Pad1)*%
X140550000Y-157362000D02*
X141300000Y-158112000D01*
X141300000Y-158112000D02*
X141300000Y-158112500D01*
X140550000Y-151500000D02*
X140550000Y-157362000D01*
X146388000Y-158112000D02*
X150450000Y-154050000D01*
X141300000Y-158112000D02*
X146388000Y-158112000D01*
%TO.N,Net-(D18-Pad2)*%
X138478000Y-163910000D02*
X139900000Y-162488000D01*
X129170000Y-163910000D02*
X138478000Y-163910000D01*
X141300000Y-161088000D02*
X141300000Y-161087500D01*
X141300000Y-161088000D02*
X139900000Y-162488000D01*
X139900000Y-162488000D02*
X139900000Y-167450000D01*
X146262000Y-166050000D02*
X141300000Y-161088000D01*
X150450000Y-166050000D02*
X146262000Y-166050000D01*
%TO.N,Net-(D19-Pad1)*%
X146930000Y-91410000D02*
X137360000Y-91410000D01*
X137360000Y-91410000D02*
X137100000Y-91150000D01*
X145400000Y-85037500D02*
X146930000Y-86567500D01*
X146930000Y-86567500D02*
X146930000Y-91410000D01*
%TO.N,Net-(D19-Pad2)*%
X147600000Y-79862500D02*
X145400000Y-82062500D01*
X150758000Y-80307500D02*
X156730000Y-80307500D01*
X147600000Y-77150000D02*
X150758000Y-80307500D01*
X147600000Y-77150000D02*
X147600000Y-79862500D01*
X145400000Y-82062500D02*
X140012000Y-82062500D01*
X140012000Y-82062500D02*
X137100000Y-79150000D01*
%TO.N,Net-(D20-Pad1)*%
X198100000Y-152138000D02*
X198100000Y-152137500D01*
X197850000Y-152388000D02*
X197850000Y-158300000D01*
X197850000Y-158300000D02*
X191400000Y-158300000D01*
X191400000Y-158300000D02*
X189900000Y-156800000D01*
X198100000Y-152138000D02*
X197850000Y-152388000D01*
%TO.N,Net-(D20-Pad2)*%
X208680000Y-147008000D02*
X208679500Y-147008000D01*
X198100500Y-149162000D02*
X198100000Y-149162500D01*
X199602000Y-149162000D02*
X198100500Y-149162000D01*
X198100500Y-149162000D02*
X198100000Y-149162000D01*
X201758000Y-147008000D02*
X199602000Y-149162000D01*
X208679500Y-147008000D02*
X201758000Y-147008000D01*
X201758000Y-147008000D02*
X198600000Y-143850000D01*
X208679500Y-147008000D02*
X208680000Y-147007500D01*
%TO.N,Net-(D21-Pad1)*%
X141412000Y-60187500D02*
X136650000Y-64950000D01*
X145600000Y-60187500D02*
X141412000Y-60187500D01*
X147150000Y-67200000D02*
X147150000Y-61737500D01*
X147150000Y-61737500D02*
X145600000Y-60187500D01*
%TO.N,Net-(D21-Pad2)*%
X156830000Y-54740000D02*
X148072000Y-54740000D01*
X147025000Y-52050000D02*
X147025000Y-55787500D01*
X147025000Y-55787500D02*
X145600000Y-57212500D01*
X145600000Y-57212500D02*
X140912000Y-57212500D01*
X140912000Y-57212500D02*
X136650000Y-52950000D01*
X148072000Y-54740000D02*
X147025000Y-55787500D01*
%TO.N,+3V3*%
X48758100Y-53113800D02*
X48758100Y-87108100D01*
X50385000Y-100110000D02*
X50385000Y-97133100D01*
X49935000Y-50760000D02*
X49935000Y-51936900D01*
X60257200Y-35336900D02*
X49935000Y-45659100D01*
X48758100Y-87108100D02*
X52646500Y-90996500D01*
X49935000Y-45659100D02*
X49935000Y-50760000D01*
X60625000Y-34160000D02*
X60625000Y-35336900D01*
X99761700Y-101633000D02*
X95343800Y-97215200D01*
X99761700Y-106438000D02*
X99761700Y-101633000D01*
X60625000Y-35336900D02*
X60257200Y-35336900D01*
X49935000Y-51936900D02*
X48758100Y-53113800D01*
X98620000Y-107580000D02*
X99761700Y-106438000D01*
X62758100Y-84760000D02*
X74875000Y-84760000D01*
X52646500Y-90996500D02*
X56521600Y-90996500D01*
X50385000Y-97133100D02*
X56521600Y-90996500D01*
X95343800Y-97215200D02*
X93671700Y-97215200D01*
X56521600Y-90996500D02*
X62758100Y-84760000D01*
%TO.N,/3.3V_TX*%
X76238100Y-86745900D02*
X77047100Y-85936900D01*
X52925000Y-116713000D02*
X53736300Y-116713000D01*
X53736300Y-116713000D02*
X69528100Y-100921000D01*
X52925000Y-117890000D02*
X52925000Y-116713000D01*
X76238100Y-89641000D02*
X76238100Y-86745900D01*
X77415000Y-85936900D02*
X77415000Y-84760000D01*
X77047100Y-85936900D02*
X77415000Y-85936900D01*
X69528100Y-100921000D02*
X69528100Y-96351000D01*
X69528100Y-96351000D02*
X76238100Y-89641000D01*
%TO.N,/3.3V_RX*%
X78591900Y-87300000D02*
X78591900Y-87667900D01*
X77415000Y-87300000D02*
X78591900Y-87300000D01*
X97167400Y-111207000D02*
X98620000Y-112660000D01*
X80814200Y-88476900D02*
X97167400Y-104830000D01*
X79400900Y-88476900D02*
X80814200Y-88476900D01*
X97167400Y-104830000D02*
X97167400Y-111207000D01*
X78591900Y-87667900D02*
X79400900Y-88476900D01*
%TO.N,/3.3V_SCL*%
X81980200Y-83543900D02*
X88051000Y-83543900D01*
X79955000Y-84760000D02*
X81131900Y-84760000D01*
X105594000Y-101087000D02*
X105594000Y-102919000D01*
X81131900Y-84760000D02*
X81131900Y-84392200D01*
X88051000Y-83543900D02*
X105594000Y-101087000D01*
X81131900Y-84392200D02*
X81980200Y-83543900D01*
%TO.N,/3.3V_SDA*%
X81131900Y-87300000D02*
X79955000Y-87300000D01*
X98620000Y-102500000D02*
X95964100Y-102500000D01*
X81131900Y-87667800D02*
X81131900Y-87300000D01*
X95964100Y-102500000D02*
X81131900Y-87667800D01*
%TO.N,/5V_Tx*%
X82495000Y-84760000D02*
X83671900Y-84760000D01*
X83671900Y-84760000D02*
X83671900Y-85125800D01*
X84576100Y-86030000D02*
X87988600Y-86030000D01*
X104868000Y-102909000D02*
X104868000Y-111288000D01*
X83671900Y-85125800D02*
X84576100Y-86030000D01*
X87988600Y-86030000D02*
X104868000Y-102909000D01*
X104868000Y-111288000D02*
X108780000Y-115200000D01*
%TO.N,/5V_Rx*%
X83671900Y-87300000D02*
X82495000Y-87300000D01*
X100214000Y-101446000D02*
X87244600Y-88476900D01*
X100214000Y-108566000D02*
X100214000Y-101446000D01*
X87244600Y-88476900D02*
X84480900Y-88476900D01*
X83671900Y-87667900D02*
X83671900Y-87300000D01*
X84480900Y-88476900D02*
X83671900Y-87667900D01*
X99761700Y-109017000D02*
X100214000Y-108566000D01*
D46*
%TO.N,E-Stop +5V*%
X176700000Y-101995000D02*
X176700000Y-96200000D01*
X169657000Y-108395000D02*
X170300000Y-108395000D01*
X212270000Y-75350000D02*
X212270000Y-68050000D01*
X170300000Y-108395000D02*
X176700000Y-101995000D01*
D43*
%TO.N,/TurretServoOut2*%
X133000000Y-88050000D02*
X133000000Y-94000000D01*
X164500000Y-95150000D02*
X180150000Y-79500000D01*
X210660000Y-79500000D02*
X214810000Y-75350000D01*
X133000000Y-94000000D02*
X134150000Y-95150000D01*
X135900000Y-85150000D02*
X133000000Y-88050000D01*
X139100000Y-85150000D02*
X135900000Y-85150000D01*
X180150000Y-79500000D02*
X210660000Y-79500000D01*
X134150000Y-95150000D02*
X164500000Y-95150000D01*
%TO.N,/Auto_3.3V_TX*%
X64341900Y-33794200D02*
X65177100Y-32959000D01*
X63811900Y-45633900D02*
X63811900Y-58566200D01*
X63165000Y-34160000D02*
X64341900Y-34160000D01*
X65177100Y-32959000D02*
X66194800Y-32959000D01*
X63811900Y-58566200D02*
X55015000Y-67363100D01*
X66885100Y-42560700D02*
X63811900Y-45633900D01*
X64341900Y-34160000D02*
X64341900Y-33794200D01*
X55015000Y-67363100D02*
X55015000Y-68540000D01*
X66194800Y-32959000D02*
X66885100Y-33649300D01*
X66885100Y-33649300D02*
X66885100Y-42560700D01*
%TO.N,/Auto_3.3V_SCL*%
X58731900Y-58566200D02*
X49935000Y-67363100D01*
X65339200Y-35336900D02*
X64435000Y-36241100D01*
X65705000Y-34160000D02*
X65705000Y-35336900D01*
X65705000Y-35336900D02*
X65339200Y-35336900D01*
X64435000Y-36241100D02*
X64435000Y-42378800D01*
X64435000Y-42378800D02*
X58731900Y-48081900D01*
X58731900Y-48081900D02*
X58731900Y-58566200D01*
X49935000Y-67363100D02*
X49935000Y-68540000D01*
%TO.N,/Auto_3.3V_SDA*%
X65705000Y-42483100D02*
X65705000Y-36700000D01*
X61364900Y-57369000D02*
X61364900Y-46823200D01*
X61364900Y-46823200D02*
X65705000Y-42483100D01*
X56381800Y-62352100D02*
X61364900Y-57369000D01*
%TO.N,/Auto_5V_Rx*%
X109780000Y-63560000D02*
X100711000Y-54491400D01*
X97465500Y-54491400D02*
X97316600Y-54342500D01*
X100711000Y-54491400D02*
X97465500Y-54491400D01*
%TO.N,/Auto_5V_SDA*%
X108691000Y-53400000D02*
X107234000Y-51942400D01*
X109780000Y-53400000D02*
X108691000Y-53400000D01*
X107234000Y-51942400D02*
X99150600Y-51942400D01*
%TO.N,/FrontMotorOut*%
X92674500Y-140725000D02*
X88850000Y-136900000D01*
X55462500Y-150100000D02*
X47912500Y-157650000D01*
X92674500Y-143656000D02*
X92674500Y-140725000D01*
X55462500Y-150100000D02*
X86230500Y-150100000D01*
X47912500Y-157650000D02*
X43390000Y-157650000D01*
X86230500Y-150100000D02*
X92674500Y-143656000D01*
%TO.N,/BackMotorOut*%
X56920000Y-159520000D02*
X57440000Y-160040000D01*
X57440000Y-160040000D02*
X80830000Y-160040000D01*
X56920000Y-159520000D02*
X50646900Y-159520000D01*
X43390000Y-165600000D02*
X44566900Y-165600000D01*
X50646900Y-159520000D02*
X44566900Y-165600000D01*
%TO.N,+24V*%
X110840000Y-147400000D02*
X110840000Y-148819000D01*
X110840000Y-148819000D02*
X110932000Y-148912000D01*
%TO.N,/3.3V_RC_FrontMotorSig*%
X84768100Y-111221000D02*
X84768100Y-97282800D01*
X84768100Y-97282800D02*
X84917800Y-97133100D01*
X103050000Y-130900000D02*
X103050000Y-129503000D01*
X88485000Y-98599900D02*
X88485000Y-100110000D01*
X84917800Y-97133100D02*
X87018200Y-97133100D01*
X87018200Y-97133100D02*
X88485000Y-98599900D01*
X103050000Y-129503000D02*
X84768100Y-111221000D01*
%TO.N,/3.3V_AUTO_FrontMotorSig*%
X103120000Y-142900000D02*
X108575000Y-137445000D01*
X106423000Y-111847000D02*
X106423000Y-83049600D01*
X108506000Y-113930000D02*
X106423000Y-111847000D01*
X108575000Y-137028000D02*
X109891000Y-135712000D01*
X106423000Y-83049600D02*
X81963900Y-58590700D01*
X103050000Y-142900000D02*
X103120000Y-142900000D01*
X81963900Y-58590700D02*
X81963900Y-57085400D01*
X109891000Y-114739000D02*
X109082000Y-113930000D01*
X108575000Y-137445000D02*
X108575000Y-137028000D01*
X109891000Y-135712000D02*
X109891000Y-114739000D01*
X109082000Y-113930000D02*
X108506000Y-113930000D01*
%TO.N,/3.3V_RC_RearMotorSig*%
X80865000Y-100110000D02*
X80865000Y-108108000D01*
X100716000Y-127958000D02*
X100716000Y-140141000D01*
X80865000Y-108108000D02*
X100716000Y-127958000D01*
%TO.N,/3.3V_AUTO_RearMotorSig*%
X80415000Y-49281200D02*
X78908700Y-47774900D01*
X80415000Y-50760000D02*
X80415000Y-49281200D01*
X78908700Y-47774900D02*
X74357800Y-47774900D01*
X56131700Y-83590000D02*
X55057900Y-84663800D01*
X74158100Y-47974600D02*
X74158100Y-60357400D01*
X55057900Y-84663800D02*
X55057900Y-87887500D01*
X57009000Y-83590000D02*
X56131700Y-83590000D01*
X74357800Y-47774900D02*
X74158100Y-47974600D01*
X69078100Y-65437400D02*
X69078100Y-71520900D01*
X69078100Y-71520900D02*
X57009000Y-83590000D01*
X74158100Y-60357400D02*
X69078100Y-65437400D01*
%TO.N,/Boat Relays/WaterCannonSignal*%
X215700000Y-156672000D02*
X215700000Y-153000000D01*
X213322500Y-159049500D02*
X215700000Y-156672000D01*
X213322500Y-159049500D02*
X213322500Y-159050000D01*
%TO.N,/Auto_WaterCannonSig*%
X166696000Y-111846000D02*
X166696000Y-105722000D01*
X175250000Y-120400000D02*
X166696000Y-111846000D01*
%TO.N,Net-(Q3-Pad1)*%
X156030500Y-137728000D02*
X156030000Y-137727500D01*
X156030500Y-137728000D02*
X156987000Y-137728000D01*
X156030000Y-137728000D02*
X156030500Y-137728000D01*
X156987000Y-137728000D02*
X156987000Y-136963000D01*
X156987000Y-136963000D02*
X162850000Y-131100000D01*
%TO.N,Net-(Q3-Pad3)*%
X158570000Y-130108000D02*
X158570000Y-130107500D01*
X154528000Y-134150000D02*
X151800000Y-134150000D01*
X158570000Y-130108000D02*
X154528000Y-134150000D01*
%TO.N,Net-(Q4-Pad1)*%
X162921000Y-106292000D02*
X163016500Y-106196000D01*
X162730000Y-106483000D02*
X162921000Y-106292000D01*
X163064300Y-106148000D02*
X163112000Y-106100000D01*
X162730000Y-106483000D02*
X162921000Y-106292000D01*
X162347000Y-106866000D02*
X162730000Y-106483000D01*
X161581000Y-107631000D02*
X161582000Y-107631000D01*
X163016500Y-106196000D02*
X163064300Y-106148000D01*
X163112000Y-106100000D02*
X161581000Y-107631000D01*
X161582000Y-107631000D02*
X162347000Y-106866000D01*
X163016500Y-106196000D02*
X163064300Y-106148000D01*
X163016500Y-106196000D02*
X163064300Y-106148000D01*
X163064300Y-106148000D02*
X163112000Y-106100000D01*
X162921000Y-106292000D02*
X163016500Y-106196000D01*
X162347000Y-106866000D02*
X162730000Y-106483000D01*
X162921000Y-106292000D02*
X163016500Y-106196000D01*
X162921000Y-106292000D02*
X163016500Y-106196000D01*
X156780000Y-112432000D02*
X161581000Y-107631000D01*
X163064300Y-106148000D02*
X163112000Y-106100000D01*
X162730000Y-106483000D02*
X162921000Y-106292000D01*
X156780000Y-112760000D02*
X156780000Y-112432000D01*
X163112500Y-106100000D02*
X163112000Y-106100000D01*
X163064300Y-106148000D02*
X163112000Y-106100000D01*
X163016500Y-106196000D02*
X163064300Y-106148000D01*
%TO.N,Net-(Q4-Pad3)*%
X155660000Y-108800000D02*
X152438000Y-108800000D01*
X159320000Y-105140000D02*
X155660000Y-108800000D01*
X152438000Y-108800000D02*
X152437500Y-108800000D01*
%TO.N,Net-(Q5-Pad1)*%
X214840000Y-123100000D02*
X207280000Y-130660000D01*
X214850000Y-123100000D02*
X214840000Y-123100000D01*
%TO.N,Net-(Q5-Pad3)*%
X206860000Y-126000000D02*
X203138000Y-126000000D01*
X203138000Y-126000000D02*
X203137500Y-126000000D01*
X209820000Y-123040000D02*
X206860000Y-126000000D01*
%TO.N,Net-(Q6-Pad2)*%
X80780000Y-128850000D02*
X80780000Y-132958000D01*
X80780000Y-132958000D02*
X77487500Y-136250000D01*
%TO.N,Net-(Q7-Pad2)*%
X91692500Y-159890000D02*
X91060000Y-160522000D01*
X91060000Y-160522000D02*
X91060000Y-166640000D01*
%TO.N,Net-(Q8-Pad2)*%
X149170000Y-134780000D02*
X149800000Y-134150000D01*
X149170000Y-142150000D02*
X149170000Y-134780000D01*
%TO.N,Net-(Q9-Pad2)*%
X147670000Y-111568000D02*
X147670000Y-117350000D01*
X150437500Y-108800500D02*
X147670000Y-111568000D01*
%TO.N,Net-(Q10-Pad2)*%
X201137500Y-126000500D02*
X201138000Y-126000000D01*
X199370000Y-133500000D02*
X199370000Y-127768000D01*
X199370000Y-127768000D02*
X201137500Y-126000500D01*
X201137500Y-126000500D02*
X201137500Y-126000000D01*
%TO.N,Net-(Q11-Pad1)*%
X122188000Y-163454000D02*
X122188000Y-163636000D01*
X122188000Y-163727000D02*
X122188000Y-163728000D01*
X122188000Y-163818000D02*
X122188000Y-163909000D01*
X122188000Y-163727000D02*
X122188000Y-163728000D01*
X122187500Y-163909500D02*
X122187500Y-164000000D01*
X122188000Y-163454000D02*
X122188000Y-163636000D01*
X122188000Y-163728000D02*
X122188000Y-163818000D01*
X122188000Y-163636000D02*
X122188000Y-163727000D01*
X129170000Y-156290000D02*
X122188000Y-163272000D01*
X122188000Y-163272000D02*
X122188000Y-163454000D01*
X122188000Y-163728000D02*
X122188000Y-163818000D01*
X122188000Y-163909000D02*
X122187500Y-163909500D01*
X122188000Y-163909000D02*
X122188000Y-164000000D01*
%TO.N,Net-(Q11-Pad3)*%
X126630000Y-163910000D02*
X130940000Y-159600000D01*
X130940000Y-159600000D02*
X134037500Y-159600000D01*
%TO.N,Net-(Q12-Pad1)*%
X163762500Y-81300000D02*
X163762000Y-81300000D01*
X157135000Y-87927500D02*
X163762000Y-81300000D01*
X156730000Y-87927500D02*
X157135000Y-87927500D01*
%TO.N,Net-(Q12-Pad3)*%
X152438000Y-83450000D02*
X156128000Y-83450000D01*
X152438000Y-83450000D02*
X152437500Y-83450000D01*
X156128000Y-83450000D02*
X159270000Y-80307500D01*
%TO.N,Net-(Q13-Pad1)*%
X208680500Y-154628000D02*
X208680000Y-154627500D01*
X208680500Y-154628000D02*
X208785000Y-154628000D01*
X215712500Y-147700000D02*
X215712000Y-147700000D01*
X208785000Y-154628000D02*
X215712000Y-147700000D01*
X208680000Y-154628000D02*
X208680500Y-154628000D01*
%TO.N,Net-(Q13-Pad3)*%
X211220000Y-147008000D02*
X211220000Y-147007500D01*
X211220000Y-147008000D02*
X207478000Y-150750000D01*
X207478000Y-150750000D02*
X204762500Y-150750000D01*
%TO.N,Net-(Q14-Pad1)*%
X163712500Y-55850000D02*
X163712000Y-55850000D01*
X163261000Y-56301400D02*
X163486000Y-56075700D01*
X163486000Y-56075700D02*
X163712000Y-55850000D01*
X163712000Y-55850000D02*
X161906000Y-57655900D01*
X163487000Y-56075700D02*
X163712000Y-55850000D01*
X156830000Y-62360000D02*
X157202000Y-62360000D01*
X163261000Y-56301400D02*
X163486000Y-56075700D01*
X163486000Y-56075700D02*
X163712000Y-55850000D01*
X163486000Y-56075700D02*
X163487000Y-56075700D01*
X161907000Y-57655900D02*
X162810000Y-56752900D01*
X161906000Y-57655900D02*
X161907000Y-57655900D01*
X162810000Y-56752900D02*
X163261000Y-56301400D01*
X157202000Y-62360000D02*
X161906000Y-57655900D01*
X162810000Y-56752900D02*
X163261000Y-56301400D01*
%TO.N,Net-(Q14-Pad3)*%
X155310000Y-58800000D02*
X152300000Y-58800000D01*
X159370000Y-54740000D02*
X155310000Y-58800000D01*
%TO.N,Net-(Q15-Pad2)*%
X136443000Y-159195000D02*
X136442000Y-159195000D01*
X136848000Y-158790000D02*
X137659000Y-157979000D01*
X136050200Y-159587300D02*
X136037500Y-159600000D01*
X137658000Y-157979000D02*
X136848000Y-158790000D01*
X139280000Y-156358000D02*
X137659000Y-157979000D01*
X136063300Y-159574700D02*
X136050700Y-159587300D01*
X139280000Y-151500000D02*
X139280000Y-156358000D01*
X136088500Y-159549500D02*
X136063300Y-159574700D01*
X136442000Y-159195000D02*
X136240000Y-159398000D01*
X137659000Y-157979000D02*
X137658000Y-157979000D01*
X136848000Y-158790000D02*
X136443000Y-159195000D01*
X136038000Y-159600000D02*
X136050700Y-159587300D01*
X136050700Y-159587300D02*
X136038000Y-159600000D01*
X136139000Y-159499000D02*
X136240000Y-159398000D01*
X136050700Y-159587300D02*
X136063300Y-159574700D01*
X136050700Y-159587300D02*
X136038000Y-159600000D01*
X136240000Y-159398000D02*
X136139000Y-159499000D01*
X136240000Y-159398000D02*
X136139000Y-159499000D01*
X136088500Y-159549500D02*
X136063300Y-159574700D01*
X136240000Y-159398000D02*
X136443000Y-159195000D01*
X136139000Y-159499000D02*
X136088500Y-159549500D01*
X136063300Y-159574700D02*
X136050700Y-159587300D01*
X136088500Y-159549500D02*
X136139000Y-159499000D01*
X136063300Y-159574700D02*
X136088500Y-159549500D01*
X136139000Y-159499000D02*
X136088500Y-159549500D01*
X136050700Y-159587300D02*
X136050200Y-159587300D01*
%TO.N,Net-(Q16-Pad2)*%
X150438000Y-83450200D02*
X148200000Y-85687500D01*
X148200000Y-85687500D02*
X148200000Y-91410000D01*
X150438000Y-83450000D02*
X150438000Y-83450200D01*
X150437500Y-83450000D02*
X150438000Y-83450000D01*
%TO.N,Net-(Q17-Pad2)*%
X202762000Y-151219000D02*
X202762500Y-151218500D01*
X202762000Y-151219000D02*
X202762000Y-150750000D01*
X199120000Y-156230000D02*
X202762500Y-152587500D01*
X202762500Y-151218500D02*
X202762500Y-150750000D01*
X199120000Y-158300000D02*
X199120000Y-156230000D01*
X202762500Y-152587500D02*
X202762500Y-150750000D01*
%TO.N,Net-(Q18-Pad2)*%
X148420000Y-67200000D02*
X148420000Y-60680000D01*
X148420000Y-60680000D02*
X150300000Y-58800000D01*
%TO.N,/Battery_Voltage_ADC*%
X54200000Y-89950000D02*
X54200000Y-88241400D01*
X112840000Y-147400000D02*
X115250000Y-147400000D01*
X112840000Y-111191000D02*
X112840000Y-147400000D01*
X62635000Y-57126900D02*
X62635000Y-50760000D01*
X112150000Y-110502000D02*
X112840000Y-111191000D01*
X54200000Y-88241400D02*
X53755900Y-87797300D01*
X63085000Y-100110000D02*
X63085000Y-104332000D01*
X53755900Y-87797300D02*
X53755900Y-66006000D01*
X63085000Y-104332000D02*
X63153000Y-104400000D01*
X53755900Y-66006000D02*
X62635000Y-57126900D01*
%TO.N,/3.3V_RC_FrontServoSig*%
X85945000Y-101287000D02*
X87048300Y-101287000D01*
X93059300Y-111644000D02*
X107848000Y-126433000D01*
X85945000Y-100110000D02*
X85945000Y-101287000D01*
X87048300Y-101287000D02*
X93059300Y-107298000D01*
X107848000Y-126433000D02*
X107848000Y-137144000D01*
X93059300Y-107298000D02*
X93059300Y-111644000D01*
%TO.N,/3.3V_RC_WCServo1Sig*%
X127901000Y-68401400D02*
X124450000Y-64950000D01*
X127901000Y-119535000D02*
X127901000Y-68401400D01*
%TO.N,/3.3V_AUTO_FrontServoSig*%
X85495000Y-50760000D02*
X85495000Y-51936900D01*
X125700000Y-120709000D02*
X125700000Y-128650000D01*
X92375900Y-57714500D02*
X92375900Y-61485700D01*
X86598300Y-51936900D02*
X92375900Y-57714500D01*
X92375900Y-61485700D02*
X127427000Y-96536800D01*
X127427000Y-118982000D02*
X125700000Y-120709000D01*
X85495000Y-51936900D02*
X86598300Y-51936900D01*
X127427000Y-96536800D02*
X127427000Y-118982000D01*
%TO.N,/3.3V_AUTO_BackServoSig*%
X125600000Y-95988100D02*
X90625000Y-61013100D01*
X77875000Y-51955800D02*
X77875000Y-50760000D01*
X90625000Y-61013100D02*
X86932300Y-61013100D01*
X125600000Y-103300000D02*
X125600000Y-95988100D01*
X86932300Y-61013100D02*
X77875000Y-51955800D01*
%TO.N,Net-(D23-Pad1)*%
X196480000Y-109310000D02*
X196480000Y-103958000D01*
X197050000Y-103388000D02*
X197050000Y-103387500D01*
X196480000Y-103958000D02*
X197050000Y-103388000D01*
%TO.N,Net-(D23-Pad2)*%
X200950000Y-95400000D02*
X200950000Y-96576900D01*
X200886000Y-96576900D02*
X197050000Y-100412000D01*
X200950000Y-96576900D02*
X200886000Y-96576900D01*
X197050000Y-100412500D02*
X197050000Y-100412000D01*
%TO.N,Net-(Q19-Pad1)*%
X207937000Y-105326000D02*
X213662000Y-99600000D01*
X206980500Y-105878000D02*
X206980000Y-105877500D01*
X206980000Y-105878000D02*
X206980500Y-105878000D01*
X206980500Y-105878000D02*
X207937000Y-105878000D01*
X207937000Y-105878000D02*
X207937000Y-105326000D01*
X213662500Y-99600000D02*
X213662000Y-99600000D01*
%TO.N,Net-(Q19-Pad3)*%
X206078000Y-101700000D02*
X202962500Y-101700000D01*
X209520000Y-98257500D02*
X206078000Y-101700000D01*
%TO.N,Net-(Q20-Pad2)*%
X200962000Y-103426000D02*
X200962000Y-102851000D01*
X200962000Y-102563500D02*
X200962000Y-102276000D01*
X200962500Y-102563000D02*
X200962500Y-101700000D01*
X200962000Y-102851000D02*
X200962000Y-102563500D01*
X197750000Y-109310000D02*
X197750000Y-107215000D01*
X200962000Y-104002000D02*
X200962000Y-103426000D01*
X200962000Y-102563500D02*
X200962500Y-102563000D01*
X197750000Y-107215000D02*
X200962000Y-104002000D01*
X200962000Y-103426000D02*
X200962000Y-102851000D01*
%TO.N,Net-(D14-Pad1)*%
X118099000Y-127879000D02*
X118099000Y-144671000D01*
X78008500Y-123655100D02*
X69665200Y-131998400D01*
X122688000Y-156999000D02*
X122288000Y-157400000D01*
X122689000Y-156999000D02*
X122688000Y-156999000D01*
X213637500Y-105800500D02*
X213637500Y-105800000D01*
X213637500Y-105800500D02*
X213638000Y-105800000D01*
X124378000Y-155310000D02*
X122689000Y-156999000D01*
X211845000Y-110312000D02*
X211926500Y-110231000D01*
X124377500Y-150950000D02*
X124378000Y-150950000D01*
X122288000Y-157400000D02*
X122689000Y-156999000D01*
X124378000Y-150950000D02*
X124378000Y-155310000D01*
X212008000Y-107430000D02*
X213637500Y-105800500D01*
X69665200Y-131998400D02*
X69665200Y-132027500D01*
X83137000Y-123655100D02*
X78008500Y-123655100D01*
X122287500Y-157400000D02*
X122288000Y-157400000D01*
X69665200Y-132027500D02*
X69665100Y-132027500D01*
X118099000Y-144671000D02*
X124378000Y-150950000D01*
%TD*%
%TA.AperFunction,Conductor*%
%TO.N,E-Stopped +24V*%
G36*
X124598944Y-182921246D02*
G01*
X124645511Y-182974837D01*
X124656971Y-183027389D01*
X124649135Y-201925737D01*
X124644143Y-213967021D01*
X124624113Y-214035134D01*
X124570438Y-214081604D01*
X124518156Y-214092969D01*
X119735288Y-214093418D01*
X111168079Y-214094223D01*
X111168078Y-214094223D01*
X111149963Y-214094225D01*
X111149963Y-214107767D01*
X111150000Y-226074277D01*
X111129998Y-226142397D01*
X111076343Y-226188890D01*
X111024279Y-226200277D01*
X89435695Y-226247773D01*
X89367532Y-226227921D01*
X89320921Y-226174367D01*
X89309419Y-226121590D01*
X89371947Y-183076123D01*
X89392048Y-183008031D01*
X89445771Y-182961616D01*
X89497769Y-182950306D01*
X124530796Y-182901339D01*
X124598944Y-182921246D01*
G37*
%TD.AperFunction*%
%TD*%
%TA.AperFunction,Conductor*%
%TO.N,+12V*%
G36*
X221324356Y-163499741D02*
G01*
X221392434Y-163519883D01*
X221438816Y-163573635D01*
X221450095Y-163625645D01*
X221489878Y-216417915D01*
X221499905Y-229723996D01*
X221479954Y-229792132D01*
X221426334Y-229838665D01*
X221373996Y-229850091D01*
X205983919Y-229861194D01*
X205983960Y-229874814D01*
X206033538Y-246334764D01*
X206013742Y-246402945D01*
X205960226Y-246449599D01*
X205907490Y-246461144D01*
X185591692Y-246453060D01*
X178025950Y-246450050D01*
X177957837Y-246430021D01*
X177911366Y-246376347D01*
X177900000Y-246324050D01*
X177900000Y-234752846D01*
X182541500Y-234752846D01*
X182556548Y-234910566D01*
X182616092Y-235113534D01*
X182712942Y-235301580D01*
X182843604Y-235467920D01*
X182848135Y-235471852D01*
X182848138Y-235471855D01*
X182984802Y-235590446D01*
X183003363Y-235606552D01*
X183008549Y-235609552D01*
X183008553Y-235609555D01*
X183099576Y-235662213D01*
X183186454Y-235712473D01*
X183386271Y-235781861D01*
X183392206Y-235782722D01*
X183392208Y-235782722D01*
X183589664Y-235811352D01*
X183589667Y-235811352D01*
X183595604Y-235812213D01*
X183806899Y-235802433D01*
X183938077Y-235770819D01*
X184006701Y-235754281D01*
X184006703Y-235754280D01*
X184012534Y-235752875D01*
X184017992Y-235750393D01*
X184017996Y-235750392D01*
X184133041Y-235698084D01*
X184205087Y-235665326D01*
X184377611Y-235542946D01*
X184523881Y-235390150D01*
X184638620Y-235212452D01*
X184680801Y-235107786D01*
X184715442Y-235021832D01*
X184715443Y-235021829D01*
X184717686Y-235016263D01*
X184758228Y-234808663D01*
X184758500Y-234803101D01*
X184758500Y-234752846D01*
X196041500Y-234752846D01*
X196056548Y-234910566D01*
X196116092Y-235113534D01*
X196212942Y-235301580D01*
X196343604Y-235467920D01*
X196348135Y-235471852D01*
X196348138Y-235471855D01*
X196484802Y-235590446D01*
X196503363Y-235606552D01*
X196508549Y-235609552D01*
X196508553Y-235609555D01*
X196599576Y-235662213D01*
X196686454Y-235712473D01*
X196886271Y-235781861D01*
X196892206Y-235782722D01*
X196892208Y-235782722D01*
X197089664Y-235811352D01*
X197089667Y-235811352D01*
X197095604Y-235812213D01*
X197306899Y-235802433D01*
X197438077Y-235770819D01*
X197506701Y-235754281D01*
X197506703Y-235754280D01*
X197512534Y-235752875D01*
X197517992Y-235750393D01*
X197517996Y-235750392D01*
X197633041Y-235698084D01*
X197705087Y-235665326D01*
X197877611Y-235542946D01*
X198023881Y-235390150D01*
X198138620Y-235212452D01*
X198180801Y-235107786D01*
X198215442Y-235021832D01*
X198215443Y-235021829D01*
X198217686Y-235016263D01*
X198258228Y-234808663D01*
X198258500Y-234803101D01*
X198258500Y-233447154D01*
X198243452Y-233289434D01*
X198183908Y-233086466D01*
X198087058Y-232898420D01*
X197956396Y-232732080D01*
X197951865Y-232728148D01*
X197951862Y-232728145D01*
X197801167Y-232597379D01*
X197796637Y-232593448D01*
X197791451Y-232590448D01*
X197791447Y-232590445D01*
X197618742Y-232490533D01*
X197613546Y-232487527D01*
X197413729Y-232418139D01*
X197407794Y-232417278D01*
X197407792Y-232417278D01*
X197210336Y-232388648D01*
X197210333Y-232388648D01*
X197204396Y-232387787D01*
X196993101Y-232397567D01*
X196861923Y-232429181D01*
X196793299Y-232445719D01*
X196793297Y-232445720D01*
X196787466Y-232447125D01*
X196782008Y-232449607D01*
X196782004Y-232449608D01*
X196666959Y-232501916D01*
X196594913Y-232534674D01*
X196422389Y-232657054D01*
X196276119Y-232809850D01*
X196161380Y-232987548D01*
X196159137Y-232993114D01*
X196100169Y-233139434D01*
X196082314Y-233183737D01*
X196041772Y-233391337D01*
X196041500Y-233396899D01*
X196041500Y-234752846D01*
X184758500Y-234752846D01*
X184758500Y-233447154D01*
X184743452Y-233289434D01*
X184683908Y-233086466D01*
X184587058Y-232898420D01*
X184456396Y-232732080D01*
X184451865Y-232728148D01*
X184451862Y-232728145D01*
X184301167Y-232597379D01*
X184296637Y-232593448D01*
X184291451Y-232590448D01*
X184291447Y-232590445D01*
X184118742Y-232490533D01*
X184113546Y-232487527D01*
X183913729Y-232418139D01*
X183907794Y-232417278D01*
X183907792Y-232417278D01*
X183710336Y-232388648D01*
X183710333Y-232388648D01*
X183704396Y-232387787D01*
X183493101Y-232397567D01*
X183361923Y-232429181D01*
X183293299Y-232445719D01*
X183293297Y-232445720D01*
X183287466Y-232447125D01*
X183282008Y-232449607D01*
X183282004Y-232449608D01*
X183166959Y-232501916D01*
X183094913Y-232534674D01*
X182922389Y-232657054D01*
X182776119Y-232809850D01*
X182661380Y-232987548D01*
X182659137Y-232993114D01*
X182600169Y-233139434D01*
X182582314Y-233183737D01*
X182541772Y-233391337D01*
X182541500Y-233396899D01*
X182541500Y-234752846D01*
X177900000Y-234752846D01*
X177900000Y-228100000D01*
X184428422Y-228100000D01*
X184448711Y-228409553D01*
X184509232Y-228713810D01*
X184608948Y-229007564D01*
X184746153Y-229285789D01*
X184918501Y-229543725D01*
X185123041Y-229776959D01*
X185356275Y-229981499D01*
X185614211Y-230153847D01*
X185617910Y-230155671D01*
X185617915Y-230155674D01*
X185760775Y-230226124D01*
X185892436Y-230291052D01*
X185896341Y-230292377D01*
X185896342Y-230292378D01*
X186182277Y-230389440D01*
X186182281Y-230389441D01*
X186186190Y-230390768D01*
X186190234Y-230391572D01*
X186190240Y-230391574D01*
X186486408Y-230450486D01*
X186486414Y-230450487D01*
X186490447Y-230451289D01*
X186494552Y-230451558D01*
X186494559Y-230451559D01*
X186795881Y-230471308D01*
X186800000Y-230471578D01*
X186804119Y-230471308D01*
X187105441Y-230451559D01*
X187105448Y-230451558D01*
X187109553Y-230451289D01*
X187113586Y-230450487D01*
X187113592Y-230450486D01*
X187409760Y-230391574D01*
X187409766Y-230391572D01*
X187413810Y-230390768D01*
X187417719Y-230389441D01*
X187417723Y-230389440D01*
X187703658Y-230292378D01*
X187703659Y-230292377D01*
X187707564Y-230291052D01*
X187839225Y-230226124D01*
X187982085Y-230155674D01*
X187982090Y-230155671D01*
X187985789Y-230153847D01*
X188243725Y-229981499D01*
X188476959Y-229776959D01*
X188681499Y-229543725D01*
X188853847Y-229285789D01*
X188991052Y-229007564D01*
X189090768Y-228713810D01*
X189151289Y-228409553D01*
X189171578Y-228100000D01*
X189151289Y-227790447D01*
X189090768Y-227486190D01*
X188991052Y-227192436D01*
X188853847Y-226914211D01*
X188681499Y-226656275D01*
X188476959Y-226423041D01*
X188243725Y-226218501D01*
X187985789Y-226046153D01*
X187982090Y-226044329D01*
X187982085Y-226044326D01*
X187839225Y-225973876D01*
X187707564Y-225908948D01*
X187703658Y-225907622D01*
X187417723Y-225810560D01*
X187417719Y-225810559D01*
X187413810Y-225809232D01*
X187409766Y-225808428D01*
X187409760Y-225808426D01*
X187113592Y-225749514D01*
X187113586Y-225749513D01*
X187109553Y-225748711D01*
X187105448Y-225748442D01*
X187105441Y-225748441D01*
X186804119Y-225728692D01*
X186800000Y-225728422D01*
X186795881Y-225728692D01*
X186494559Y-225748441D01*
X186494552Y-225748442D01*
X186490447Y-225748711D01*
X186486414Y-225749513D01*
X186486408Y-225749514D01*
X186190240Y-225808426D01*
X186190234Y-225808428D01*
X186186190Y-225809232D01*
X186182281Y-225810559D01*
X186182277Y-225810560D01*
X185896342Y-225907622D01*
X185892436Y-225908948D01*
X185760775Y-225973876D01*
X185617915Y-226044326D01*
X185617910Y-226044329D01*
X185614211Y-226046153D01*
X185356275Y-226218501D01*
X185123041Y-226423041D01*
X184918501Y-226656275D01*
X184746153Y-226914211D01*
X184608948Y-227192436D01*
X184509232Y-227486190D01*
X184448711Y-227790447D01*
X184428422Y-228100000D01*
X177900000Y-228100000D01*
X177900000Y-220695604D01*
X207837787Y-220695604D01*
X207847567Y-220906899D01*
X207897125Y-221112534D01*
X207899607Y-221117992D01*
X207899608Y-221117996D01*
X207943053Y-221213546D01*
X207984674Y-221305087D01*
X208107054Y-221477611D01*
X208259850Y-221623881D01*
X208437548Y-221738620D01*
X208443114Y-221740863D01*
X208628168Y-221815442D01*
X208628171Y-221815443D01*
X208633737Y-221817686D01*
X208841337Y-221858228D01*
X208846899Y-221858500D01*
X210202846Y-221858500D01*
X210360566Y-221843452D01*
X210563534Y-221783908D01*
X210647111Y-221740863D01*
X210746249Y-221689804D01*
X210746252Y-221689802D01*
X210751580Y-221687058D01*
X210917920Y-221556396D01*
X210921852Y-221551865D01*
X210921855Y-221551862D01*
X211052621Y-221401167D01*
X211056552Y-221396637D01*
X211059552Y-221391451D01*
X211059555Y-221391447D01*
X211159467Y-221218742D01*
X211162473Y-221213546D01*
X211231861Y-221013729D01*
X211262213Y-220804396D01*
X211252433Y-220593101D01*
X211202875Y-220387466D01*
X211159525Y-220292122D01*
X211117806Y-220200368D01*
X211115326Y-220194913D01*
X210992946Y-220022389D01*
X210840150Y-219876119D01*
X210662452Y-219761380D01*
X210602354Y-219737160D01*
X210471832Y-219684558D01*
X210471829Y-219684557D01*
X210466263Y-219682314D01*
X210258663Y-219641772D01*
X210253101Y-219641500D01*
X208897154Y-219641500D01*
X208739434Y-219656548D01*
X208536466Y-219716092D01*
X208531139Y-219718836D01*
X208531138Y-219718836D01*
X208353751Y-219810196D01*
X208353748Y-219810198D01*
X208348420Y-219812942D01*
X208182080Y-219943604D01*
X208178148Y-219948135D01*
X208178145Y-219948138D01*
X208109474Y-220027275D01*
X208043448Y-220103363D01*
X208040448Y-220108549D01*
X208040445Y-220108553D01*
X207993312Y-220190026D01*
X207937527Y-220286454D01*
X207868139Y-220486271D01*
X207837787Y-220695604D01*
X177900000Y-220695604D01*
X177900000Y-217600000D01*
X201178422Y-217600000D01*
X201198711Y-217909553D01*
X201259232Y-218213810D01*
X201358948Y-218507564D01*
X201496153Y-218785789D01*
X201668501Y-219043725D01*
X201873041Y-219276959D01*
X202106275Y-219481499D01*
X202364211Y-219653847D01*
X202367910Y-219655671D01*
X202367915Y-219655674D01*
X202487013Y-219714406D01*
X202642436Y-219791052D01*
X202646341Y-219792377D01*
X202646342Y-219792378D01*
X202932277Y-219889440D01*
X202932281Y-219889441D01*
X202936190Y-219890768D01*
X202940234Y-219891572D01*
X202940240Y-219891574D01*
X203236408Y-219950486D01*
X203236414Y-219950487D01*
X203240447Y-219951289D01*
X203244552Y-219951558D01*
X203244559Y-219951559D01*
X203545881Y-219971308D01*
X203550000Y-219971578D01*
X203554119Y-219971308D01*
X203855441Y-219951559D01*
X203855448Y-219951558D01*
X203859553Y-219951289D01*
X203863586Y-219950487D01*
X203863592Y-219950486D01*
X204159760Y-219891574D01*
X204159766Y-219891572D01*
X204163810Y-219890768D01*
X204167719Y-219889441D01*
X204167723Y-219889440D01*
X204453658Y-219792378D01*
X204453659Y-219792377D01*
X204457564Y-219791052D01*
X204612987Y-219714406D01*
X204732085Y-219655674D01*
X204732090Y-219655671D01*
X204735789Y-219653847D01*
X204993725Y-219481499D01*
X205226959Y-219276959D01*
X205431499Y-219043725D01*
X205603847Y-218785789D01*
X205741052Y-218507564D01*
X205840768Y-218213810D01*
X205901289Y-217909553D01*
X205921578Y-217600000D01*
X205901289Y-217290447D01*
X205840768Y-216986190D01*
X205741052Y-216692436D01*
X205603847Y-216414211D01*
X205431499Y-216156275D01*
X205226959Y-215923041D01*
X204993725Y-215718501D01*
X204735789Y-215546153D01*
X204732090Y-215544329D01*
X204732085Y-215544326D01*
X204589225Y-215473876D01*
X204457564Y-215408948D01*
X204453658Y-215407622D01*
X204167723Y-215310560D01*
X204167719Y-215310559D01*
X204163810Y-215309232D01*
X204159766Y-215308428D01*
X204159760Y-215308426D01*
X203863592Y-215249514D01*
X203863586Y-215249513D01*
X203859553Y-215248711D01*
X203855448Y-215248442D01*
X203855441Y-215248441D01*
X203554119Y-215228692D01*
X203550000Y-215228422D01*
X203545881Y-215228692D01*
X203244559Y-215248441D01*
X203244552Y-215248442D01*
X203240447Y-215248711D01*
X203236414Y-215249513D01*
X203236408Y-215249514D01*
X202940240Y-215308426D01*
X202940234Y-215308428D01*
X202936190Y-215309232D01*
X202932281Y-215310559D01*
X202932277Y-215310560D01*
X202646342Y-215407622D01*
X202642436Y-215408948D01*
X202510775Y-215473876D01*
X202367915Y-215544326D01*
X202367910Y-215544329D01*
X202364211Y-215546153D01*
X202106275Y-215718501D01*
X201873041Y-215923041D01*
X201668501Y-216156275D01*
X201496153Y-216414211D01*
X201358948Y-216692436D01*
X201259232Y-216986190D01*
X201198711Y-217290447D01*
X201178422Y-217600000D01*
X177900000Y-217600000D01*
X177900000Y-216800000D01*
X172925487Y-216800000D01*
X172857366Y-216779998D01*
X172810873Y-216726342D01*
X172799488Y-216674514D01*
X172785197Y-213173314D01*
X191257124Y-213173314D01*
X191257348Y-213177980D01*
X191257348Y-213177985D01*
X191259518Y-213223160D01*
X191269807Y-213437352D01*
X191321378Y-213696616D01*
X191322957Y-213701014D01*
X191322959Y-213701021D01*
X191409121Y-213941001D01*
X191410704Y-213945410D01*
X191412921Y-213949536D01*
X191480301Y-214074936D01*
X191535822Y-214178267D01*
X191538617Y-214182011D01*
X191538619Y-214182013D01*
X191621743Y-214293329D01*
X191693985Y-214390073D01*
X191697292Y-214393351D01*
X191697297Y-214393357D01*
X191796879Y-214492073D01*
X191881718Y-214576174D01*
X192094896Y-214732483D01*
X192099031Y-214734659D01*
X192099035Y-214734661D01*
X192222293Y-214799510D01*
X192328836Y-214855565D01*
X192578400Y-214942716D01*
X192582993Y-214943588D01*
X192833515Y-214991151D01*
X192833518Y-214991151D01*
X192838104Y-214992022D01*
X192970173Y-214997211D01*
X193097575Y-215002218D01*
X193097581Y-215002218D01*
X193102243Y-215002401D01*
X193365015Y-214973622D01*
X193369526Y-214972434D01*
X193369528Y-214972434D01*
X193616124Y-214907511D01*
X193616126Y-214907510D01*
X193620647Y-214906320D01*
X193735191Y-214857108D01*
X193859229Y-214803817D01*
X193859231Y-214803816D01*
X193863523Y-214801972D01*
X194088307Y-214662871D01*
X194104788Y-214648919D01*
X194286496Y-214495093D01*
X194286498Y-214495091D01*
X194290063Y-214492073D01*
X194464356Y-214293329D01*
X194538367Y-214178267D01*
X194604831Y-214074936D01*
X194607359Y-214071006D01*
X194715930Y-213829988D01*
X194787683Y-213575570D01*
X194821043Y-213313340D01*
X194823487Y-213220000D01*
X194803897Y-212956384D01*
X194745557Y-212698559D01*
X194730028Y-212658626D01*
X194651442Y-212456542D01*
X194651441Y-212456540D01*
X194649749Y-212452189D01*
X194623535Y-212406323D01*
X194520897Y-212226745D01*
X194518578Y-212222687D01*
X194354925Y-212015094D01*
X194162385Y-211833970D01*
X194125212Y-211808182D01*
X193949026Y-211685958D01*
X193949021Y-211685955D01*
X193945188Y-211683296D01*
X193940997Y-211681229D01*
X193712294Y-211568445D01*
X193712291Y-211568444D01*
X193708106Y-211566380D01*
X193651150Y-211548148D01*
X193460792Y-211487214D01*
X193460794Y-211487214D01*
X193456347Y-211485791D01*
X193313825Y-211462580D01*
X193200053Y-211444051D01*
X193200052Y-211444051D01*
X193195441Y-211443300D01*
X193063281Y-211441570D01*
X192935798Y-211439901D01*
X192935795Y-211439901D01*
X192931121Y-211439840D01*
X192669192Y-211475486D01*
X192664702Y-211476795D01*
X192664696Y-211476796D01*
X192556732Y-211508265D01*
X192415410Y-211549457D01*
X192411163Y-211551415D01*
X192411160Y-211551416D01*
X192320950Y-211593004D01*
X192175348Y-211660127D01*
X192171439Y-211662690D01*
X191958195Y-211802499D01*
X191958190Y-211802503D01*
X191954282Y-211805065D01*
X191757067Y-211981086D01*
X191588036Y-212184324D01*
X191450901Y-212410314D01*
X191348677Y-212654091D01*
X191347526Y-212658623D01*
X191347525Y-212658626D01*
X191336226Y-212703116D01*
X191283608Y-212910301D01*
X191257124Y-213173314D01*
X172785197Y-213173314D01*
X172782237Y-212448133D01*
X172760798Y-207195604D01*
X207837787Y-207195604D01*
X207847567Y-207406899D01*
X207897125Y-207612534D01*
X207899607Y-207617992D01*
X207899608Y-207617996D01*
X207943053Y-207713546D01*
X207984674Y-207805087D01*
X208107054Y-207977611D01*
X208259850Y-208123881D01*
X208437548Y-208238620D01*
X208443114Y-208240863D01*
X208628168Y-208315442D01*
X208628171Y-208315443D01*
X208633737Y-208317686D01*
X208841337Y-208358228D01*
X208846899Y-208358500D01*
X210202846Y-208358500D01*
X210360566Y-208343452D01*
X210563534Y-208283908D01*
X210647111Y-208240863D01*
X210746249Y-208189804D01*
X210746252Y-208189802D01*
X210751580Y-208187058D01*
X210917920Y-208056396D01*
X210921852Y-208051865D01*
X210921855Y-208051862D01*
X211052621Y-207901167D01*
X211056552Y-207896637D01*
X211059552Y-207891451D01*
X211059555Y-207891447D01*
X211159467Y-207718742D01*
X211162473Y-207713546D01*
X211231861Y-207513729D01*
X211262213Y-207304396D01*
X211252433Y-207093101D01*
X211202875Y-206887466D01*
X211159525Y-206792122D01*
X211117806Y-206700368D01*
X211115326Y-206694913D01*
X210992946Y-206522389D01*
X210840150Y-206376119D01*
X210662452Y-206261380D01*
X210602354Y-206237160D01*
X210471832Y-206184558D01*
X210471829Y-206184557D01*
X210466263Y-206182314D01*
X210258663Y-206141772D01*
X210253101Y-206141500D01*
X208897154Y-206141500D01*
X208739434Y-206156548D01*
X208536466Y-206216092D01*
X208531139Y-206218836D01*
X208531138Y-206218836D01*
X208353751Y-206310196D01*
X208353748Y-206310198D01*
X208348420Y-206312942D01*
X208182080Y-206443604D01*
X208178148Y-206448135D01*
X208178145Y-206448138D01*
X208109474Y-206527275D01*
X208043448Y-206603363D01*
X208040448Y-206608549D01*
X208040445Y-206608553D01*
X207993312Y-206690026D01*
X207937527Y-206786454D01*
X207868139Y-206986271D01*
X207837787Y-207195604D01*
X172760798Y-207195604D01*
X172750516Y-204676513D01*
X172770240Y-204608312D01*
X172823705Y-204561601D01*
X172876515Y-204550000D01*
X197100000Y-204550000D01*
X197104871Y-200545604D01*
X207922087Y-200545604D01*
X207931867Y-200756899D01*
X207981425Y-200962534D01*
X207983907Y-200967992D01*
X207983908Y-200967996D01*
X208027353Y-201063546D01*
X208068974Y-201155087D01*
X208191354Y-201327611D01*
X208344150Y-201473881D01*
X208521848Y-201588620D01*
X208527414Y-201590863D01*
X208712468Y-201665442D01*
X208712471Y-201665443D01*
X208718037Y-201667686D01*
X208925637Y-201708228D01*
X208931199Y-201708500D01*
X210287146Y-201708500D01*
X210444866Y-201693452D01*
X210647834Y-201633908D01*
X210731411Y-201590863D01*
X210830549Y-201539804D01*
X210830552Y-201539802D01*
X210835880Y-201537058D01*
X211002220Y-201406396D01*
X211006152Y-201401865D01*
X211006155Y-201401862D01*
X211136921Y-201251167D01*
X211140852Y-201246637D01*
X211143852Y-201241451D01*
X211143855Y-201241447D01*
X211243767Y-201068742D01*
X211246773Y-201063546D01*
X211316161Y-200863729D01*
X211346513Y-200654396D01*
X211336733Y-200443101D01*
X211287175Y-200237466D01*
X211243825Y-200142122D01*
X211202106Y-200050368D01*
X211199626Y-200044913D01*
X211077246Y-199872389D01*
X210924450Y-199726119D01*
X210746752Y-199611380D01*
X210686654Y-199587160D01*
X210556132Y-199534558D01*
X210556129Y-199534557D01*
X210550563Y-199532314D01*
X210342963Y-199491772D01*
X210337401Y-199491500D01*
X208981454Y-199491500D01*
X208823734Y-199506548D01*
X208620766Y-199566092D01*
X208615439Y-199568836D01*
X208615438Y-199568836D01*
X208438051Y-199660196D01*
X208438048Y-199660198D01*
X208432720Y-199662942D01*
X208266380Y-199793604D01*
X208262448Y-199798135D01*
X208262445Y-199798138D01*
X208193774Y-199877275D01*
X208127748Y-199953363D01*
X208124748Y-199958549D01*
X208124745Y-199958553D01*
X208077612Y-200040026D01*
X208021827Y-200136454D01*
X207952439Y-200336271D01*
X207922087Y-200545604D01*
X197104871Y-200545604D01*
X197108637Y-197450000D01*
X201262722Y-197450000D01*
X201283011Y-197759553D01*
X201343532Y-198063810D01*
X201443248Y-198357564D01*
X201580453Y-198635789D01*
X201752801Y-198893725D01*
X201957341Y-199126959D01*
X202190575Y-199331499D01*
X202448511Y-199503847D01*
X202452210Y-199505671D01*
X202452215Y-199505674D01*
X202571313Y-199564406D01*
X202726736Y-199641052D01*
X202730641Y-199642377D01*
X202730642Y-199642378D01*
X203016577Y-199739440D01*
X203016581Y-199739441D01*
X203020490Y-199740768D01*
X203024534Y-199741572D01*
X203024540Y-199741574D01*
X203320708Y-199800486D01*
X203320714Y-199800487D01*
X203324747Y-199801289D01*
X203328852Y-199801558D01*
X203328859Y-199801559D01*
X203630181Y-199821308D01*
X203634300Y-199821578D01*
X203638419Y-199821308D01*
X203939741Y-199801559D01*
X203939748Y-199801558D01*
X203943853Y-199801289D01*
X203947886Y-199800487D01*
X203947892Y-199800486D01*
X204244060Y-199741574D01*
X204244066Y-199741572D01*
X204248110Y-199740768D01*
X204252019Y-199739441D01*
X204252023Y-199739440D01*
X204537958Y-199642378D01*
X204537959Y-199642377D01*
X204541864Y-199641052D01*
X204697287Y-199564406D01*
X204816385Y-199505674D01*
X204816390Y-199505671D01*
X204820089Y-199503847D01*
X205078025Y-199331499D01*
X205311259Y-199126959D01*
X205515799Y-198893725D01*
X205688147Y-198635789D01*
X205825352Y-198357564D01*
X205925068Y-198063810D01*
X205985589Y-197759553D01*
X206005878Y-197450000D01*
X205985589Y-197140447D01*
X205925068Y-196836190D01*
X205825352Y-196542436D01*
X205688147Y-196264211D01*
X205515799Y-196006275D01*
X205311259Y-195773041D01*
X205078025Y-195568501D01*
X204820089Y-195396153D01*
X204816390Y-195394329D01*
X204816385Y-195394326D01*
X204673525Y-195323876D01*
X204541864Y-195258948D01*
X204537958Y-195257622D01*
X204252023Y-195160560D01*
X204252019Y-195160559D01*
X204248110Y-195159232D01*
X204244066Y-195158428D01*
X204244060Y-195158426D01*
X203947892Y-195099514D01*
X203947886Y-195099513D01*
X203943853Y-195098711D01*
X203939748Y-195098442D01*
X203939741Y-195098441D01*
X203638419Y-195078692D01*
X203634300Y-195078422D01*
X203630181Y-195078692D01*
X203328859Y-195098441D01*
X203328852Y-195098442D01*
X203324747Y-195098711D01*
X203320714Y-195099513D01*
X203320708Y-195099514D01*
X203024540Y-195158426D01*
X203024534Y-195158428D01*
X203020490Y-195159232D01*
X203016581Y-195160559D01*
X203016577Y-195160560D01*
X202730642Y-195257622D01*
X202726736Y-195258948D01*
X202595075Y-195323876D01*
X202452215Y-195394326D01*
X202452210Y-195394329D01*
X202448511Y-195396153D01*
X202190575Y-195568501D01*
X201957341Y-195773041D01*
X201752801Y-196006275D01*
X201580453Y-196264211D01*
X201443248Y-196542436D01*
X201343532Y-196836190D01*
X201283011Y-197140447D01*
X201262722Y-197450000D01*
X197108637Y-197450000D01*
X197121295Y-187045604D01*
X207922087Y-187045604D01*
X207931867Y-187256899D01*
X207981425Y-187462534D01*
X207983907Y-187467992D01*
X207983908Y-187467996D01*
X208027353Y-187563546D01*
X208068974Y-187655087D01*
X208191354Y-187827611D01*
X208344150Y-187973881D01*
X208521848Y-188088620D01*
X208527414Y-188090863D01*
X208712468Y-188165442D01*
X208712471Y-188165443D01*
X208718037Y-188167686D01*
X208925637Y-188208228D01*
X208931199Y-188208500D01*
X210287146Y-188208500D01*
X210444866Y-188193452D01*
X210647834Y-188133908D01*
X210731411Y-188090863D01*
X210830549Y-188039804D01*
X210830552Y-188039802D01*
X210835880Y-188037058D01*
X211002220Y-187906396D01*
X211006152Y-187901865D01*
X211006155Y-187901862D01*
X211136921Y-187751167D01*
X211140852Y-187746637D01*
X211143852Y-187741451D01*
X211143855Y-187741447D01*
X211243767Y-187568742D01*
X211246773Y-187563546D01*
X211316161Y-187363729D01*
X211346513Y-187154396D01*
X211336733Y-186943101D01*
X211287175Y-186737466D01*
X211243825Y-186642122D01*
X211202106Y-186550368D01*
X211199626Y-186544913D01*
X211077246Y-186372389D01*
X210924450Y-186226119D01*
X210746752Y-186111380D01*
X210686654Y-186087160D01*
X210556132Y-186034558D01*
X210556129Y-186034557D01*
X210550563Y-186032314D01*
X210342963Y-185991772D01*
X210337401Y-185991500D01*
X208981454Y-185991500D01*
X208823734Y-186006548D01*
X208620766Y-186066092D01*
X208615439Y-186068836D01*
X208615438Y-186068836D01*
X208438051Y-186160196D01*
X208438048Y-186160198D01*
X208432720Y-186162942D01*
X208266380Y-186293604D01*
X208262448Y-186298135D01*
X208262445Y-186298138D01*
X208193774Y-186377275D01*
X208127748Y-186453363D01*
X208124748Y-186458549D01*
X208124745Y-186458553D01*
X208077612Y-186540026D01*
X208021827Y-186636454D01*
X207952439Y-186836271D01*
X207922087Y-187045604D01*
X197121295Y-187045604D01*
X197127728Y-181757357D01*
X197129141Y-180595604D01*
X207937787Y-180595604D01*
X207947567Y-180806899D01*
X207997125Y-181012534D01*
X207999607Y-181017992D01*
X207999608Y-181017996D01*
X208043053Y-181113546D01*
X208084674Y-181205087D01*
X208207054Y-181377611D01*
X208359850Y-181523881D01*
X208537548Y-181638620D01*
X208543114Y-181640863D01*
X208728168Y-181715442D01*
X208728171Y-181715443D01*
X208733737Y-181717686D01*
X208941337Y-181758228D01*
X208946899Y-181758500D01*
X210302846Y-181758500D01*
X210460566Y-181743452D01*
X210663534Y-181683908D01*
X210747111Y-181640863D01*
X210846249Y-181589804D01*
X210846252Y-181589802D01*
X210851580Y-181587058D01*
X211017920Y-181456396D01*
X211021852Y-181451865D01*
X211021855Y-181451862D01*
X211152621Y-181301167D01*
X211156552Y-181296637D01*
X211159552Y-181291451D01*
X211159555Y-181291447D01*
X211259467Y-181118742D01*
X211262473Y-181113546D01*
X211331861Y-180913729D01*
X211362213Y-180704396D01*
X211352433Y-180493101D01*
X211302875Y-180287466D01*
X211259525Y-180192122D01*
X211217806Y-180100368D01*
X211215326Y-180094913D01*
X211092946Y-179922389D01*
X210940150Y-179776119D01*
X210762452Y-179661380D01*
X210702354Y-179637160D01*
X210571832Y-179584558D01*
X210571829Y-179584557D01*
X210566263Y-179582314D01*
X210358663Y-179541772D01*
X210353101Y-179541500D01*
X208997154Y-179541500D01*
X208839434Y-179556548D01*
X208636466Y-179616092D01*
X208631139Y-179618836D01*
X208631138Y-179618836D01*
X208453751Y-179710196D01*
X208453748Y-179710198D01*
X208448420Y-179712942D01*
X208282080Y-179843604D01*
X208278148Y-179848135D01*
X208278145Y-179848138D01*
X208209474Y-179927275D01*
X208143448Y-180003363D01*
X208140448Y-180008549D01*
X208140445Y-180008553D01*
X208093312Y-180090026D01*
X208037527Y-180186454D01*
X207968139Y-180386271D01*
X207937787Y-180595604D01*
X197129141Y-180595604D01*
X197132907Y-177500000D01*
X201278422Y-177500000D01*
X201298711Y-177809553D01*
X201359232Y-178113810D01*
X201458948Y-178407564D01*
X201596153Y-178685789D01*
X201768501Y-178943725D01*
X201973041Y-179176959D01*
X202206275Y-179381499D01*
X202464211Y-179553847D01*
X202467910Y-179555671D01*
X202467915Y-179555674D01*
X202587013Y-179614406D01*
X202742436Y-179691052D01*
X202746341Y-179692377D01*
X202746342Y-179692378D01*
X203032277Y-179789440D01*
X203032281Y-179789441D01*
X203036190Y-179790768D01*
X203040234Y-179791572D01*
X203040240Y-179791574D01*
X203336408Y-179850486D01*
X203336414Y-179850487D01*
X203340447Y-179851289D01*
X203344552Y-179851558D01*
X203344559Y-179851559D01*
X203645881Y-179871308D01*
X203650000Y-179871578D01*
X203654119Y-179871308D01*
X203955441Y-179851559D01*
X203955448Y-179851558D01*
X203959553Y-179851289D01*
X203963586Y-179850487D01*
X203963592Y-179850486D01*
X204259760Y-179791574D01*
X204259766Y-179791572D01*
X204263810Y-179790768D01*
X204267719Y-179789441D01*
X204267723Y-179789440D01*
X204553658Y-179692378D01*
X204553659Y-179692377D01*
X204557564Y-179691052D01*
X204712987Y-179614406D01*
X204832085Y-179555674D01*
X204832090Y-179555671D01*
X204835789Y-179553847D01*
X205093725Y-179381499D01*
X205326959Y-179176959D01*
X205531499Y-178943725D01*
X205703847Y-178685789D01*
X205841052Y-178407564D01*
X205940768Y-178113810D01*
X206001289Y-177809553D01*
X206021578Y-177500000D01*
X206001289Y-177190447D01*
X205940768Y-176886190D01*
X205841052Y-176592436D01*
X205703847Y-176314211D01*
X205531499Y-176056275D01*
X205326959Y-175823041D01*
X205093725Y-175618501D01*
X204835789Y-175446153D01*
X204832090Y-175444329D01*
X204832085Y-175444326D01*
X204689225Y-175373876D01*
X204557564Y-175308948D01*
X204553658Y-175307622D01*
X204267723Y-175210560D01*
X204267719Y-175210559D01*
X204263810Y-175209232D01*
X204259766Y-175208428D01*
X204259760Y-175208426D01*
X203963592Y-175149514D01*
X203963586Y-175149513D01*
X203959553Y-175148711D01*
X203955448Y-175148442D01*
X203955441Y-175148441D01*
X203654119Y-175128692D01*
X203650000Y-175128422D01*
X203645881Y-175128692D01*
X203344559Y-175148441D01*
X203344552Y-175148442D01*
X203340447Y-175148711D01*
X203336414Y-175149513D01*
X203336408Y-175149514D01*
X203040240Y-175208426D01*
X203040234Y-175208428D01*
X203036190Y-175209232D01*
X203032281Y-175210559D01*
X203032277Y-175210560D01*
X202746342Y-175307622D01*
X202742436Y-175308948D01*
X202610775Y-175373876D01*
X202467915Y-175444326D01*
X202467910Y-175444329D01*
X202464211Y-175446153D01*
X202206275Y-175618501D01*
X201973041Y-175823041D01*
X201768501Y-176056275D01*
X201596153Y-176314211D01*
X201458948Y-176592436D01*
X201359232Y-176886190D01*
X201298711Y-177190447D01*
X201278422Y-177500000D01*
X197132907Y-177500000D01*
X197139348Y-172206134D01*
X201283500Y-172206134D01*
X201290255Y-172268316D01*
X201341385Y-172404705D01*
X201428739Y-172521261D01*
X201545295Y-172608615D01*
X201681684Y-172659745D01*
X201743866Y-172666500D01*
X205556134Y-172666500D01*
X205618316Y-172659745D01*
X205754705Y-172608615D01*
X205871261Y-172521261D01*
X205958615Y-172404705D01*
X206009745Y-172268316D01*
X206016500Y-172206134D01*
X206016500Y-168393866D01*
X206009745Y-168331684D01*
X205958615Y-168195295D01*
X205871261Y-168078739D01*
X205754705Y-167991385D01*
X205618316Y-167940255D01*
X205556134Y-167933500D01*
X201743866Y-167933500D01*
X201681684Y-167940255D01*
X201545295Y-167991385D01*
X201428739Y-168078739D01*
X201341385Y-168195295D01*
X201290255Y-168331684D01*
X201283500Y-168393866D01*
X201283500Y-172206134D01*
X197139348Y-172206134D01*
X197145565Y-167095604D01*
X207937787Y-167095604D01*
X207947567Y-167306899D01*
X207997125Y-167512534D01*
X207999607Y-167517992D01*
X207999608Y-167517996D01*
X208043053Y-167613546D01*
X208084674Y-167705087D01*
X208207054Y-167877611D01*
X208359850Y-168023881D01*
X208537548Y-168138620D01*
X208543114Y-168140863D01*
X208728168Y-168215442D01*
X208728171Y-168215443D01*
X208733737Y-168217686D01*
X208941337Y-168258228D01*
X208946899Y-168258500D01*
X210302846Y-168258500D01*
X210460566Y-168243452D01*
X210663534Y-168183908D01*
X210747111Y-168140863D01*
X210846249Y-168089804D01*
X210846252Y-168089802D01*
X210851580Y-168087058D01*
X211017920Y-167956396D01*
X211021852Y-167951865D01*
X211021855Y-167951862D01*
X211152621Y-167801167D01*
X211156552Y-167796637D01*
X211159552Y-167791451D01*
X211159555Y-167791447D01*
X211259467Y-167618742D01*
X211262473Y-167613546D01*
X211331861Y-167413729D01*
X211362213Y-167204396D01*
X211352433Y-166993101D01*
X211302875Y-166787466D01*
X211297504Y-166775652D01*
X211217806Y-166600368D01*
X211215326Y-166594913D01*
X211092946Y-166422389D01*
X210940150Y-166276119D01*
X210762452Y-166161380D01*
X210702354Y-166137160D01*
X210571832Y-166084558D01*
X210571829Y-166084557D01*
X210566263Y-166082314D01*
X210358663Y-166041772D01*
X210353101Y-166041500D01*
X208997154Y-166041500D01*
X208839434Y-166056548D01*
X208636466Y-166116092D01*
X208631139Y-166118836D01*
X208631138Y-166118836D01*
X208453751Y-166210196D01*
X208453748Y-166210198D01*
X208448420Y-166212942D01*
X208282080Y-166343604D01*
X208278148Y-166348135D01*
X208278145Y-166348138D01*
X208209474Y-166427275D01*
X208143448Y-166503363D01*
X208140448Y-166508549D01*
X208140445Y-166508553D01*
X208117348Y-166548478D01*
X208037527Y-166686454D01*
X207968139Y-166886271D01*
X207937787Y-167095604D01*
X197145565Y-167095604D01*
X197149847Y-163576106D01*
X197169932Y-163508009D01*
X197223644Y-163461582D01*
X197276104Y-163450259D01*
X221324356Y-163499741D01*
G37*
%TD.AperFunction*%
%TD*%
%TA.AperFunction,Conductor*%
%TO.N,/Power Management/fuse2_out*%
G36*
X87593149Y-174774582D02*
G01*
X87639696Y-174828191D01*
X87651135Y-174880649D01*
X87651135Y-199728522D01*
X87631133Y-199796643D01*
X87577477Y-199843136D01*
X87525135Y-199854522D01*
X38127387Y-199854522D01*
X38059266Y-199834520D01*
X38012773Y-199780864D01*
X38001387Y-199728271D01*
X38014954Y-192931164D01*
X38017121Y-191845604D01*
X53853587Y-191845604D01*
X53863367Y-192056899D01*
X53912925Y-192262534D01*
X53915407Y-192267992D01*
X53915408Y-192267996D01*
X53958853Y-192363546D01*
X54000474Y-192455087D01*
X54122854Y-192627611D01*
X54275650Y-192773881D01*
X54453348Y-192888620D01*
X54458914Y-192890863D01*
X54643968Y-192965442D01*
X54643971Y-192965443D01*
X54649537Y-192967686D01*
X54857137Y-193008228D01*
X54862699Y-193008500D01*
X56218646Y-193008500D01*
X56376366Y-192993452D01*
X56579334Y-192933908D01*
X56662911Y-192890863D01*
X56762049Y-192839804D01*
X56762052Y-192839802D01*
X56767380Y-192837058D01*
X56933720Y-192706396D01*
X56937652Y-192701865D01*
X56937655Y-192701862D01*
X57068421Y-192551167D01*
X57072352Y-192546637D01*
X57075352Y-192541451D01*
X57075355Y-192541447D01*
X57175267Y-192368742D01*
X57178273Y-192363546D01*
X57247661Y-192163729D01*
X57278013Y-191954396D01*
X57268233Y-191743101D01*
X57218675Y-191537466D01*
X57175325Y-191442122D01*
X57133606Y-191350368D01*
X57131126Y-191344913D01*
X57008746Y-191172389D01*
X56855950Y-191026119D01*
X56678252Y-190911380D01*
X56618154Y-190887160D01*
X56487632Y-190834558D01*
X56487629Y-190834557D01*
X56482063Y-190832314D01*
X56274463Y-190791772D01*
X56268901Y-190791500D01*
X54912954Y-190791500D01*
X54755234Y-190806548D01*
X54552266Y-190866092D01*
X54546939Y-190868836D01*
X54546938Y-190868836D01*
X54369551Y-190960196D01*
X54369548Y-190960198D01*
X54364220Y-190962942D01*
X54197880Y-191093604D01*
X54193948Y-191098135D01*
X54193945Y-191098138D01*
X54125274Y-191177275D01*
X54059248Y-191253363D01*
X54056248Y-191258549D01*
X54056245Y-191258553D01*
X54009112Y-191340026D01*
X53953327Y-191436454D01*
X53883939Y-191636271D01*
X53853587Y-191845604D01*
X38017121Y-191845604D01*
X38037671Y-181550000D01*
X59194222Y-181550000D01*
X59214511Y-181859553D01*
X59275032Y-182163810D01*
X59374748Y-182457564D01*
X59511953Y-182735789D01*
X59684301Y-182993725D01*
X59888841Y-183226959D01*
X60122075Y-183431499D01*
X60380011Y-183603847D01*
X60383710Y-183605671D01*
X60383715Y-183605674D01*
X60526575Y-183676124D01*
X60658236Y-183741052D01*
X60662141Y-183742377D01*
X60662142Y-183742378D01*
X60948077Y-183839440D01*
X60948081Y-183839441D01*
X60951990Y-183840768D01*
X60956034Y-183841572D01*
X60956040Y-183841574D01*
X61252208Y-183900486D01*
X61252214Y-183900487D01*
X61256247Y-183901289D01*
X61260352Y-183901558D01*
X61260359Y-183901559D01*
X61561681Y-183921308D01*
X61565800Y-183921578D01*
X61569919Y-183921308D01*
X61871241Y-183901559D01*
X61871248Y-183901558D01*
X61875353Y-183901289D01*
X61879386Y-183900487D01*
X61879392Y-183900486D01*
X62175560Y-183841574D01*
X62175566Y-183841572D01*
X62179610Y-183840768D01*
X62183519Y-183839441D01*
X62183523Y-183839440D01*
X62469458Y-183742378D01*
X62469459Y-183742377D01*
X62473364Y-183741052D01*
X62605025Y-183676124D01*
X62747885Y-183605674D01*
X62747890Y-183605671D01*
X62751589Y-183603847D01*
X63009525Y-183431499D01*
X63242759Y-183226959D01*
X63447299Y-182993725D01*
X63619647Y-182735789D01*
X63756852Y-182457564D01*
X63856568Y-182163810D01*
X63917089Y-181859553D01*
X63937378Y-181550000D01*
X63917089Y-181240447D01*
X63856568Y-180936190D01*
X63756852Y-180642436D01*
X63619647Y-180364211D01*
X63447299Y-180106275D01*
X63242759Y-179873041D01*
X63009525Y-179668501D01*
X62751589Y-179496153D01*
X62747890Y-179494329D01*
X62747885Y-179494326D01*
X62533533Y-179388620D01*
X62473364Y-179358948D01*
X62416968Y-179339804D01*
X62183523Y-179260560D01*
X62183519Y-179260559D01*
X62179610Y-179259232D01*
X62175566Y-179258428D01*
X62175560Y-179258426D01*
X61879392Y-179199514D01*
X61879386Y-179199513D01*
X61875353Y-179198711D01*
X61871248Y-179198442D01*
X61871241Y-179198441D01*
X61569919Y-179178692D01*
X61565800Y-179178422D01*
X61561681Y-179178692D01*
X61260359Y-179198441D01*
X61260352Y-179198442D01*
X61256247Y-179198711D01*
X61252214Y-179199513D01*
X61252208Y-179199514D01*
X60956040Y-179258426D01*
X60956034Y-179258428D01*
X60951990Y-179259232D01*
X60948081Y-179260559D01*
X60948077Y-179260560D01*
X60714632Y-179339804D01*
X60658236Y-179358948D01*
X60598067Y-179388620D01*
X60383715Y-179494326D01*
X60383710Y-179494329D01*
X60380011Y-179496153D01*
X60122075Y-179668501D01*
X59888841Y-179873041D01*
X59684301Y-180106275D01*
X59511953Y-180364211D01*
X59374748Y-180642436D01*
X59275032Y-180936190D01*
X59214511Y-181240447D01*
X59194222Y-181550000D01*
X38037671Y-181550000D01*
X38044067Y-178345604D01*
X53853587Y-178345604D01*
X53863367Y-178556899D01*
X53912925Y-178762534D01*
X53915407Y-178767992D01*
X53915408Y-178767996D01*
X53958853Y-178863546D01*
X54000474Y-178955087D01*
X54122854Y-179127611D01*
X54275650Y-179273881D01*
X54453348Y-179388620D01*
X54458914Y-179390863D01*
X54643968Y-179465442D01*
X54643971Y-179465443D01*
X54649537Y-179467686D01*
X54857137Y-179508228D01*
X54862699Y-179508500D01*
X56218646Y-179508500D01*
X56376366Y-179493452D01*
X56579334Y-179433908D01*
X56662911Y-179390863D01*
X56762049Y-179339804D01*
X56762052Y-179339802D01*
X56767380Y-179337058D01*
X56933720Y-179206396D01*
X56937652Y-179201865D01*
X56937655Y-179201862D01*
X57068421Y-179051167D01*
X57072352Y-179046637D01*
X57075352Y-179041451D01*
X57075355Y-179041447D01*
X57175267Y-178868742D01*
X57178273Y-178863546D01*
X57247661Y-178663729D01*
X57278013Y-178454396D01*
X57268233Y-178243101D01*
X57218675Y-178037466D01*
X57175325Y-177942122D01*
X57133606Y-177850368D01*
X57131126Y-177844913D01*
X57008746Y-177672389D01*
X56855950Y-177526119D01*
X56678252Y-177411380D01*
X56618154Y-177387160D01*
X56487632Y-177334558D01*
X56487629Y-177334557D01*
X56482063Y-177332314D01*
X56274463Y-177291772D01*
X56268901Y-177291500D01*
X54912954Y-177291500D01*
X54755234Y-177306548D01*
X54552266Y-177366092D01*
X54546939Y-177368836D01*
X54546938Y-177368836D01*
X54369551Y-177460196D01*
X54369548Y-177460198D01*
X54364220Y-177462942D01*
X54197880Y-177593604D01*
X54193948Y-177598135D01*
X54193945Y-177598138D01*
X54125274Y-177677275D01*
X54059248Y-177753363D01*
X54056248Y-177758549D01*
X54056245Y-177758553D01*
X54009112Y-177840026D01*
X53953327Y-177936454D01*
X53883939Y-178136271D01*
X53853587Y-178345604D01*
X38044067Y-178345604D01*
X38050884Y-174930143D01*
X38071022Y-174862063D01*
X38124771Y-174815677D01*
X38176755Y-174804395D01*
X87525008Y-174754649D01*
X87593149Y-174774582D01*
G37*
%TD.AperFunction*%
%TD*%
%TA.AperFunction,Conductor*%
%TO.N,/Power Management/fuse1_out*%
G36*
X87593149Y-201070060D02*
G01*
X87639696Y-201123669D01*
X87651135Y-201176127D01*
X87651135Y-226024000D01*
X87631133Y-226092121D01*
X87577477Y-226138614D01*
X87525135Y-226150000D01*
X38127387Y-226150000D01*
X38059266Y-226129998D01*
X38012773Y-226076342D01*
X38001387Y-226023749D01*
X38018660Y-217369736D01*
X38020505Y-216445604D01*
X53503587Y-216445604D01*
X53513367Y-216656899D01*
X53562925Y-216862534D01*
X53565407Y-216867992D01*
X53565408Y-216867996D01*
X53608853Y-216963546D01*
X53650474Y-217055087D01*
X53772854Y-217227611D01*
X53925650Y-217373881D01*
X54103348Y-217488620D01*
X54108914Y-217490863D01*
X54293968Y-217565442D01*
X54293971Y-217565443D01*
X54299537Y-217567686D01*
X54507137Y-217608228D01*
X54512699Y-217608500D01*
X55868646Y-217608500D01*
X56026366Y-217593452D01*
X56229334Y-217533908D01*
X56312911Y-217490863D01*
X56412049Y-217439804D01*
X56412052Y-217439802D01*
X56417380Y-217437058D01*
X56583720Y-217306396D01*
X56587652Y-217301865D01*
X56587655Y-217301862D01*
X56718421Y-217151167D01*
X56722352Y-217146637D01*
X56725352Y-217141451D01*
X56725355Y-217141447D01*
X56825267Y-216968742D01*
X56828273Y-216963546D01*
X56897661Y-216763729D01*
X56928013Y-216554396D01*
X56918233Y-216343101D01*
X56868675Y-216137466D01*
X56825325Y-216042122D01*
X56783606Y-215950368D01*
X56781126Y-215944913D01*
X56658746Y-215772389D01*
X56505950Y-215626119D01*
X56328252Y-215511380D01*
X56268154Y-215487160D01*
X56137632Y-215434558D01*
X56137629Y-215434557D01*
X56132063Y-215432314D01*
X55924463Y-215391772D01*
X55918901Y-215391500D01*
X54562954Y-215391500D01*
X54405234Y-215406548D01*
X54202266Y-215466092D01*
X54196939Y-215468836D01*
X54196938Y-215468836D01*
X54019551Y-215560196D01*
X54019548Y-215560198D01*
X54014220Y-215562942D01*
X53847880Y-215693604D01*
X53843948Y-215698135D01*
X53843945Y-215698138D01*
X53775274Y-215777275D01*
X53709248Y-215853363D01*
X53706248Y-215858549D01*
X53706245Y-215858553D01*
X53659112Y-215940026D01*
X53603327Y-216036454D01*
X53533939Y-216236271D01*
X53503587Y-216445604D01*
X38020505Y-216445604D01*
X38041055Y-206150000D01*
X58844222Y-206150000D01*
X58864511Y-206459553D01*
X58925032Y-206763810D01*
X59024748Y-207057564D01*
X59161953Y-207335789D01*
X59334301Y-207593725D01*
X59538841Y-207826959D01*
X59772075Y-208031499D01*
X60030011Y-208203847D01*
X60033710Y-208205671D01*
X60033715Y-208205674D01*
X60176575Y-208276124D01*
X60308236Y-208341052D01*
X60312141Y-208342377D01*
X60312142Y-208342378D01*
X60598077Y-208439440D01*
X60598081Y-208439441D01*
X60601990Y-208440768D01*
X60606034Y-208441572D01*
X60606040Y-208441574D01*
X60902208Y-208500486D01*
X60902214Y-208500487D01*
X60906247Y-208501289D01*
X60910352Y-208501558D01*
X60910359Y-208501559D01*
X61211681Y-208521308D01*
X61215800Y-208521578D01*
X61219919Y-208521308D01*
X61521241Y-208501559D01*
X61521248Y-208501558D01*
X61525353Y-208501289D01*
X61529386Y-208500487D01*
X61529392Y-208500486D01*
X61825560Y-208441574D01*
X61825566Y-208441572D01*
X61829610Y-208440768D01*
X61833519Y-208439441D01*
X61833523Y-208439440D01*
X62119458Y-208342378D01*
X62119459Y-208342377D01*
X62123364Y-208341052D01*
X62255025Y-208276124D01*
X62397885Y-208205674D01*
X62397890Y-208205671D01*
X62401589Y-208203847D01*
X62659525Y-208031499D01*
X62892759Y-207826959D01*
X63097299Y-207593725D01*
X63269647Y-207335789D01*
X63406852Y-207057564D01*
X63506568Y-206763810D01*
X63567089Y-206459553D01*
X63587378Y-206150000D01*
X63567089Y-205840447D01*
X63506568Y-205536190D01*
X63406852Y-205242436D01*
X63269647Y-204964211D01*
X63097299Y-204706275D01*
X62892759Y-204473041D01*
X62659525Y-204268501D01*
X62401589Y-204096153D01*
X62397890Y-204094329D01*
X62397885Y-204094326D01*
X62183533Y-203988620D01*
X62123364Y-203958948D01*
X62066968Y-203939804D01*
X61833523Y-203860560D01*
X61833519Y-203860559D01*
X61829610Y-203859232D01*
X61825566Y-203858428D01*
X61825560Y-203858426D01*
X61529392Y-203799514D01*
X61529386Y-203799513D01*
X61525353Y-203798711D01*
X61521248Y-203798442D01*
X61521241Y-203798441D01*
X61219919Y-203778692D01*
X61215800Y-203778422D01*
X61211681Y-203778692D01*
X60910359Y-203798441D01*
X60910352Y-203798442D01*
X60906247Y-203798711D01*
X60902214Y-203799513D01*
X60902208Y-203799514D01*
X60606040Y-203858426D01*
X60606034Y-203858428D01*
X60601990Y-203859232D01*
X60598081Y-203860559D01*
X60598077Y-203860560D01*
X60364632Y-203939804D01*
X60308236Y-203958948D01*
X60248067Y-203988620D01*
X60033715Y-204094326D01*
X60033710Y-204094329D01*
X60030011Y-204096153D01*
X59772075Y-204268501D01*
X59538841Y-204473041D01*
X59334301Y-204706275D01*
X59161953Y-204964211D01*
X59024748Y-205242436D01*
X58925032Y-205536190D01*
X58864511Y-205840447D01*
X58844222Y-206150000D01*
X38041055Y-206150000D01*
X38047451Y-202945604D01*
X53503587Y-202945604D01*
X53513367Y-203156899D01*
X53562925Y-203362534D01*
X53565407Y-203367992D01*
X53565408Y-203367996D01*
X53608853Y-203463546D01*
X53650474Y-203555087D01*
X53772854Y-203727611D01*
X53925650Y-203873881D01*
X54103348Y-203988620D01*
X54108914Y-203990863D01*
X54293968Y-204065442D01*
X54293971Y-204065443D01*
X54299537Y-204067686D01*
X54507137Y-204108228D01*
X54512699Y-204108500D01*
X55868646Y-204108500D01*
X56026366Y-204093452D01*
X56229334Y-204033908D01*
X56312911Y-203990863D01*
X56412049Y-203939804D01*
X56412052Y-203939802D01*
X56417380Y-203937058D01*
X56583720Y-203806396D01*
X56587652Y-203801865D01*
X56587655Y-203801862D01*
X56718421Y-203651167D01*
X56722352Y-203646637D01*
X56725352Y-203641451D01*
X56725355Y-203641447D01*
X56825267Y-203468742D01*
X56828273Y-203463546D01*
X56897661Y-203263729D01*
X56928013Y-203054396D01*
X56918233Y-202843101D01*
X56868675Y-202637466D01*
X56825325Y-202542122D01*
X56783606Y-202450368D01*
X56781126Y-202444913D01*
X56658746Y-202272389D01*
X56505950Y-202126119D01*
X56328252Y-202011380D01*
X56268154Y-201987160D01*
X56137632Y-201934558D01*
X56137629Y-201934557D01*
X56132063Y-201932314D01*
X55924463Y-201891772D01*
X55918901Y-201891500D01*
X54562954Y-201891500D01*
X54405234Y-201906548D01*
X54202266Y-201966092D01*
X54196939Y-201968836D01*
X54196938Y-201968836D01*
X54019551Y-202060196D01*
X54019548Y-202060198D01*
X54014220Y-202062942D01*
X53847880Y-202193604D01*
X53843948Y-202198135D01*
X53843945Y-202198138D01*
X53775274Y-202277275D01*
X53709248Y-202353363D01*
X53706248Y-202358549D01*
X53706245Y-202358553D01*
X53659112Y-202440026D01*
X53603327Y-202536454D01*
X53533939Y-202736271D01*
X53503587Y-202945604D01*
X38047451Y-202945604D01*
X38050884Y-201225621D01*
X38071022Y-201157541D01*
X38124771Y-201111155D01*
X38176755Y-201099873D01*
X87525008Y-201050127D01*
X87593149Y-201070060D01*
G37*
%TD.AperFunction*%
%TD*%
%TA.AperFunction,Conductor*%
%TO.N,+24V*%
G36*
X171442109Y-194170032D02*
G01*
X171488608Y-194223683D01*
X171500000Y-194276038D01*
X171500000Y-219050000D01*
X175774000Y-219050000D01*
X175842121Y-219070002D01*
X175888614Y-219123658D01*
X175900000Y-219176000D01*
X175900000Y-247515500D01*
X175879998Y-247583621D01*
X175826342Y-247630114D01*
X175774000Y-247641500D01*
X112676483Y-247641500D01*
X112608362Y-247621498D01*
X112561869Y-247567842D01*
X112550483Y-247515287D01*
X112572103Y-234752846D01*
X113591500Y-234752846D01*
X113606548Y-234910566D01*
X113666092Y-235113534D01*
X113668836Y-235118861D01*
X113668836Y-235118862D01*
X113733534Y-235244480D01*
X113762942Y-235301580D01*
X113893604Y-235467920D01*
X113898135Y-235471852D01*
X113898138Y-235471855D01*
X114004834Y-235564441D01*
X114053363Y-235606552D01*
X114058549Y-235609552D01*
X114058553Y-235609555D01*
X114149096Y-235661935D01*
X114236454Y-235712473D01*
X114436271Y-235781861D01*
X114442206Y-235782722D01*
X114442208Y-235782722D01*
X114639664Y-235811352D01*
X114639667Y-235811352D01*
X114645604Y-235812213D01*
X114856899Y-235802433D01*
X114988077Y-235770819D01*
X115056701Y-235754281D01*
X115056703Y-235754280D01*
X115062534Y-235752875D01*
X115067992Y-235750393D01*
X115067996Y-235750392D01*
X115183041Y-235698084D01*
X115255087Y-235665326D01*
X115427611Y-235542946D01*
X115535433Y-235430313D01*
X115569736Y-235394480D01*
X115573881Y-235390150D01*
X115688620Y-235212452D01*
X115730801Y-235107786D01*
X115765442Y-235021832D01*
X115765443Y-235021829D01*
X115767686Y-235016263D01*
X115808228Y-234808663D01*
X115808500Y-234803101D01*
X115808500Y-234752846D01*
X127091500Y-234752846D01*
X127106548Y-234910566D01*
X127166092Y-235113534D01*
X127168836Y-235118861D01*
X127168836Y-235118862D01*
X127233534Y-235244480D01*
X127262942Y-235301580D01*
X127393604Y-235467920D01*
X127398135Y-235471852D01*
X127398138Y-235471855D01*
X127504834Y-235564441D01*
X127553363Y-235606552D01*
X127558549Y-235609552D01*
X127558553Y-235609555D01*
X127649096Y-235661935D01*
X127736454Y-235712473D01*
X127936271Y-235781861D01*
X127942206Y-235782722D01*
X127942208Y-235782722D01*
X128139664Y-235811352D01*
X128139667Y-235811352D01*
X128145604Y-235812213D01*
X128356899Y-235802433D01*
X128488077Y-235770819D01*
X128556701Y-235754281D01*
X128556703Y-235754280D01*
X128562534Y-235752875D01*
X128567992Y-235750393D01*
X128567996Y-235750392D01*
X128683041Y-235698084D01*
X128755087Y-235665326D01*
X128927611Y-235542946D01*
X129035433Y-235430313D01*
X129069736Y-235394480D01*
X129073881Y-235390150D01*
X129188620Y-235212452D01*
X129230801Y-235107786D01*
X129265442Y-235021832D01*
X129265443Y-235021829D01*
X129267686Y-235016263D01*
X129308228Y-234808663D01*
X129308500Y-234803101D01*
X129308500Y-234587046D01*
X134641500Y-234587046D01*
X134656548Y-234744766D01*
X134716092Y-234947734D01*
X134718836Y-234953061D01*
X134718836Y-234953062D01*
X134804229Y-235118862D01*
X134812942Y-235135780D01*
X134943604Y-235302120D01*
X134948135Y-235306052D01*
X134948138Y-235306055D01*
X135050039Y-235394480D01*
X135103363Y-235440752D01*
X135108549Y-235443752D01*
X135108553Y-235443755D01*
X135270665Y-235537539D01*
X135286454Y-235546673D01*
X135486271Y-235616061D01*
X135492206Y-235616922D01*
X135492208Y-235616922D01*
X135689664Y-235645552D01*
X135689667Y-235645552D01*
X135695604Y-235646413D01*
X135906899Y-235636633D01*
X136057277Y-235600392D01*
X136106701Y-235588481D01*
X136106703Y-235588480D01*
X136112534Y-235587075D01*
X136117992Y-235584593D01*
X136117996Y-235584592D01*
X136277962Y-235511859D01*
X136305087Y-235499526D01*
X136477611Y-235377146D01*
X136623881Y-235224350D01*
X136738620Y-235046652D01*
X136809074Y-234871832D01*
X136815442Y-234856032D01*
X136815443Y-234856029D01*
X136817686Y-234850463D01*
X136858228Y-234642863D01*
X136858500Y-234637301D01*
X136858500Y-234587046D01*
X148141500Y-234587046D01*
X148156548Y-234744766D01*
X148216092Y-234947734D01*
X148218836Y-234953061D01*
X148218836Y-234953062D01*
X148304229Y-235118862D01*
X148312942Y-235135780D01*
X148443604Y-235302120D01*
X148448135Y-235306052D01*
X148448138Y-235306055D01*
X148550039Y-235394480D01*
X148603363Y-235440752D01*
X148608549Y-235443752D01*
X148608553Y-235443755D01*
X148770665Y-235537539D01*
X148786454Y-235546673D01*
X148986271Y-235616061D01*
X148992206Y-235616922D01*
X148992208Y-235616922D01*
X149189664Y-235645552D01*
X149189667Y-235645552D01*
X149195604Y-235646413D01*
X149406899Y-235636633D01*
X149557277Y-235600392D01*
X149606701Y-235588481D01*
X149606703Y-235588480D01*
X149612534Y-235587075D01*
X149617992Y-235584593D01*
X149617996Y-235584592D01*
X149777962Y-235511859D01*
X149805087Y-235499526D01*
X149977611Y-235377146D01*
X150123881Y-235224350D01*
X150238620Y-235046652D01*
X150309074Y-234871832D01*
X150315442Y-234856032D01*
X150315443Y-234856029D01*
X150317686Y-234850463D01*
X150358228Y-234642863D01*
X150358500Y-234637301D01*
X150358500Y-234602846D01*
X157291500Y-234602846D01*
X157306548Y-234760566D01*
X157366092Y-234963534D01*
X157368836Y-234968861D01*
X157368836Y-234968862D01*
X157452059Y-235130449D01*
X157462942Y-235151580D01*
X157593604Y-235317920D01*
X157598135Y-235321852D01*
X157598138Y-235321855D01*
X157681831Y-235394480D01*
X157753363Y-235456552D01*
X157758549Y-235459552D01*
X157758553Y-235459555D01*
X157920665Y-235553339D01*
X157936454Y-235562473D01*
X158136271Y-235631861D01*
X158142206Y-235632722D01*
X158142208Y-235632722D01*
X158339664Y-235661352D01*
X158339667Y-235661352D01*
X158345604Y-235662213D01*
X158556899Y-235652433D01*
X158704248Y-235616922D01*
X158756701Y-235604281D01*
X158756703Y-235604280D01*
X158762534Y-235602875D01*
X158767992Y-235600393D01*
X158767996Y-235600392D01*
X158886717Y-235546412D01*
X158955087Y-235515326D01*
X159127611Y-235392946D01*
X159273881Y-235240150D01*
X159388620Y-235062452D01*
X159432705Y-234953062D01*
X159465442Y-234871832D01*
X159465443Y-234871829D01*
X159467686Y-234866263D01*
X159508228Y-234658663D01*
X159508500Y-234653101D01*
X159508500Y-234602846D01*
X170791500Y-234602846D01*
X170806548Y-234760566D01*
X170866092Y-234963534D01*
X170868836Y-234968861D01*
X170868836Y-234968862D01*
X170952059Y-235130449D01*
X170962942Y-235151580D01*
X171093604Y-235317920D01*
X171098135Y-235321852D01*
X171098138Y-235321855D01*
X171181831Y-235394480D01*
X171253363Y-235456552D01*
X171258549Y-235459552D01*
X171258553Y-235459555D01*
X171420665Y-235553339D01*
X171436454Y-235562473D01*
X171636271Y-235631861D01*
X171642206Y-235632722D01*
X171642208Y-235632722D01*
X171839664Y-235661352D01*
X171839667Y-235661352D01*
X171845604Y-235662213D01*
X172056899Y-235652433D01*
X172204248Y-235616922D01*
X172256701Y-235604281D01*
X172256703Y-235604280D01*
X172262534Y-235602875D01*
X172267992Y-235600393D01*
X172267996Y-235600392D01*
X172386717Y-235546412D01*
X172455087Y-235515326D01*
X172627611Y-235392946D01*
X172773881Y-235240150D01*
X172888620Y-235062452D01*
X172932705Y-234953062D01*
X172965442Y-234871832D01*
X172965443Y-234871829D01*
X172967686Y-234866263D01*
X173008228Y-234658663D01*
X173008500Y-234653101D01*
X173008500Y-233297154D01*
X172993452Y-233139434D01*
X172933908Y-232936466D01*
X172928731Y-232926414D01*
X172839804Y-232753751D01*
X172839802Y-232753748D01*
X172837058Y-232748420D01*
X172706396Y-232582080D01*
X172701865Y-232578148D01*
X172701862Y-232578145D01*
X172551167Y-232447379D01*
X172546637Y-232443448D01*
X172541451Y-232440448D01*
X172541447Y-232440445D01*
X172368742Y-232340533D01*
X172363546Y-232337527D01*
X172163729Y-232268139D01*
X172157794Y-232267278D01*
X172157792Y-232267278D01*
X171960336Y-232238648D01*
X171960333Y-232238648D01*
X171954396Y-232237787D01*
X171743101Y-232247567D01*
X171611923Y-232279181D01*
X171543299Y-232295719D01*
X171543297Y-232295720D01*
X171537466Y-232297125D01*
X171532008Y-232299607D01*
X171532004Y-232299608D01*
X171416959Y-232351916D01*
X171344913Y-232384674D01*
X171172389Y-232507054D01*
X171168247Y-232511381D01*
X171032114Y-232653588D01*
X171026119Y-232659850D01*
X170911380Y-232837548D01*
X170909137Y-232843114D01*
X170836308Y-233023827D01*
X170832314Y-233033737D01*
X170791772Y-233241337D01*
X170791500Y-233246899D01*
X170791500Y-234602846D01*
X159508500Y-234602846D01*
X159508500Y-233297154D01*
X159493452Y-233139434D01*
X159433908Y-232936466D01*
X159428731Y-232926414D01*
X159339804Y-232753751D01*
X159339802Y-232753748D01*
X159337058Y-232748420D01*
X159206396Y-232582080D01*
X159201865Y-232578148D01*
X159201862Y-232578145D01*
X159051167Y-232447379D01*
X159046637Y-232443448D01*
X159041451Y-232440448D01*
X159041447Y-232440445D01*
X158868742Y-232340533D01*
X158863546Y-232337527D01*
X158663729Y-232268139D01*
X158657794Y-232267278D01*
X158657792Y-232267278D01*
X158460336Y-232238648D01*
X158460333Y-232238648D01*
X158454396Y-232237787D01*
X158243101Y-232247567D01*
X158111923Y-232279181D01*
X158043299Y-232295719D01*
X158043297Y-232295720D01*
X158037466Y-232297125D01*
X158032008Y-232299607D01*
X158032004Y-232299608D01*
X157916959Y-232351916D01*
X157844913Y-232384674D01*
X157672389Y-232507054D01*
X157668247Y-232511381D01*
X157532114Y-232653588D01*
X157526119Y-232659850D01*
X157411380Y-232837548D01*
X157409137Y-232843114D01*
X157336308Y-233023827D01*
X157332314Y-233033737D01*
X157291772Y-233241337D01*
X157291500Y-233246899D01*
X157291500Y-234602846D01*
X150358500Y-234602846D01*
X150358500Y-233281354D01*
X150343452Y-233123634D01*
X150283908Y-232920666D01*
X150243966Y-232843114D01*
X150189804Y-232737951D01*
X150189802Y-232737948D01*
X150187058Y-232732620D01*
X150056396Y-232566280D01*
X150051865Y-232562348D01*
X150051862Y-232562345D01*
X149901167Y-232431579D01*
X149896637Y-232427648D01*
X149891451Y-232424648D01*
X149891447Y-232424645D01*
X149718742Y-232324733D01*
X149713546Y-232321727D01*
X149513729Y-232252339D01*
X149507794Y-232251478D01*
X149507792Y-232251478D01*
X149310336Y-232222848D01*
X149310333Y-232222848D01*
X149304396Y-232221987D01*
X149093101Y-232231767D01*
X148961923Y-232263381D01*
X148893299Y-232279919D01*
X148893297Y-232279920D01*
X148887466Y-232281325D01*
X148882008Y-232283807D01*
X148882004Y-232283808D01*
X148768185Y-232335559D01*
X148694913Y-232368874D01*
X148522389Y-232491254D01*
X148376119Y-232644050D01*
X148261380Y-232821748D01*
X148252769Y-232843114D01*
X148215148Y-232936466D01*
X148182314Y-233017937D01*
X148141772Y-233225537D01*
X148141500Y-233231099D01*
X148141500Y-234587046D01*
X136858500Y-234587046D01*
X136858500Y-233281354D01*
X136843452Y-233123634D01*
X136783908Y-232920666D01*
X136743966Y-232843114D01*
X136689804Y-232737951D01*
X136689802Y-232737948D01*
X136687058Y-232732620D01*
X136556396Y-232566280D01*
X136551865Y-232562348D01*
X136551862Y-232562345D01*
X136401167Y-232431579D01*
X136396637Y-232427648D01*
X136391451Y-232424648D01*
X136391447Y-232424645D01*
X136218742Y-232324733D01*
X136213546Y-232321727D01*
X136013729Y-232252339D01*
X136007794Y-232251478D01*
X136007792Y-232251478D01*
X135810336Y-232222848D01*
X135810333Y-232222848D01*
X135804396Y-232221987D01*
X135593101Y-232231767D01*
X135461923Y-232263381D01*
X135393299Y-232279919D01*
X135393297Y-232279920D01*
X135387466Y-232281325D01*
X135382008Y-232283807D01*
X135382004Y-232283808D01*
X135268185Y-232335559D01*
X135194913Y-232368874D01*
X135022389Y-232491254D01*
X134876119Y-232644050D01*
X134761380Y-232821748D01*
X134752769Y-232843114D01*
X134715148Y-232936466D01*
X134682314Y-233017937D01*
X134641772Y-233225537D01*
X134641500Y-233231099D01*
X134641500Y-234587046D01*
X129308500Y-234587046D01*
X129308500Y-233447154D01*
X129293452Y-233289434D01*
X129233908Y-233086466D01*
X129231164Y-233081138D01*
X129139804Y-232903751D01*
X129139802Y-232903748D01*
X129137058Y-232898420D01*
X129006396Y-232732080D01*
X129001865Y-232728148D01*
X129001862Y-232728145D01*
X128851167Y-232597379D01*
X128846637Y-232593448D01*
X128841451Y-232590448D01*
X128841447Y-232590445D01*
X128668742Y-232490533D01*
X128663546Y-232487527D01*
X128463729Y-232418139D01*
X128457794Y-232417278D01*
X128457792Y-232417278D01*
X128260336Y-232388648D01*
X128260333Y-232388648D01*
X128254396Y-232387787D01*
X128043101Y-232397567D01*
X127911923Y-232429181D01*
X127843299Y-232445719D01*
X127843297Y-232445720D01*
X127837466Y-232447125D01*
X127832008Y-232449607D01*
X127832004Y-232449608D01*
X127740410Y-232491254D01*
X127644913Y-232534674D01*
X127472389Y-232657054D01*
X127326119Y-232809850D01*
X127211380Y-232987548D01*
X127209137Y-232993114D01*
X127147760Y-233145411D01*
X127132314Y-233183737D01*
X127091772Y-233391337D01*
X127091500Y-233396899D01*
X127091500Y-234752846D01*
X115808500Y-234752846D01*
X115808500Y-233447154D01*
X115793452Y-233289434D01*
X115733908Y-233086466D01*
X115731164Y-233081138D01*
X115639804Y-232903751D01*
X115639802Y-232903748D01*
X115637058Y-232898420D01*
X115506396Y-232732080D01*
X115501865Y-232728148D01*
X115501862Y-232728145D01*
X115351167Y-232597379D01*
X115346637Y-232593448D01*
X115341451Y-232590448D01*
X115341447Y-232590445D01*
X115168742Y-232490533D01*
X115163546Y-232487527D01*
X114963729Y-232418139D01*
X114957794Y-232417278D01*
X114957792Y-232417278D01*
X114760336Y-232388648D01*
X114760333Y-232388648D01*
X114754396Y-232387787D01*
X114543101Y-232397567D01*
X114411923Y-232429181D01*
X114343299Y-232445719D01*
X114343297Y-232445720D01*
X114337466Y-232447125D01*
X114332008Y-232449607D01*
X114332004Y-232449608D01*
X114240410Y-232491254D01*
X114144913Y-232534674D01*
X113972389Y-232657054D01*
X113826119Y-232809850D01*
X113711380Y-232987548D01*
X113709137Y-232993114D01*
X113647760Y-233145411D01*
X113632314Y-233183737D01*
X113591772Y-233391337D01*
X113591500Y-233396899D01*
X113591500Y-234752846D01*
X112572103Y-234752846D01*
X112583373Y-228100000D01*
X115478422Y-228100000D01*
X115478692Y-228104119D01*
X115488880Y-228259553D01*
X115498711Y-228409553D01*
X115499513Y-228413586D01*
X115499514Y-228413592D01*
X115530173Y-228567723D01*
X115559232Y-228713810D01*
X115560559Y-228717719D01*
X115560560Y-228717723D01*
X115603922Y-228845462D01*
X115658948Y-229007564D01*
X115796153Y-229285789D01*
X115968501Y-229543725D01*
X116173041Y-229776959D01*
X116406275Y-229981499D01*
X116664211Y-230153847D01*
X116667910Y-230155671D01*
X116667915Y-230155674D01*
X116805738Y-230223640D01*
X116942436Y-230291052D01*
X116946341Y-230292377D01*
X116946342Y-230292378D01*
X117232277Y-230389440D01*
X117232281Y-230389441D01*
X117236190Y-230390768D01*
X117240234Y-230391572D01*
X117240240Y-230391574D01*
X117536408Y-230450486D01*
X117536414Y-230450487D01*
X117540447Y-230451289D01*
X117544552Y-230451558D01*
X117544559Y-230451559D01*
X117845881Y-230471308D01*
X117850000Y-230471578D01*
X117854119Y-230471308D01*
X118155441Y-230451559D01*
X118155448Y-230451558D01*
X118159553Y-230451289D01*
X118163586Y-230450487D01*
X118163592Y-230450486D01*
X118459760Y-230391574D01*
X118459766Y-230391572D01*
X118463810Y-230390768D01*
X118467719Y-230389441D01*
X118467723Y-230389440D01*
X118753658Y-230292378D01*
X118753659Y-230292377D01*
X118757564Y-230291052D01*
X118894262Y-230223640D01*
X119032085Y-230155674D01*
X119032090Y-230155671D01*
X119035789Y-230153847D01*
X119293725Y-229981499D01*
X119526959Y-229776959D01*
X119731499Y-229543725D01*
X119903847Y-229285789D01*
X120041052Y-229007564D01*
X120096078Y-228845462D01*
X120139440Y-228717723D01*
X120139441Y-228717719D01*
X120140768Y-228713810D01*
X120169827Y-228567723D01*
X120200486Y-228413592D01*
X120200487Y-228413586D01*
X120201289Y-228409553D01*
X120211121Y-228259553D01*
X120221308Y-228104119D01*
X120221578Y-228100000D01*
X120210711Y-227934200D01*
X136528422Y-227934200D01*
X136548711Y-228243753D01*
X136549513Y-228247786D01*
X136549514Y-228247792D01*
X136552657Y-228263592D01*
X136609232Y-228548010D01*
X136610559Y-228551919D01*
X136610560Y-228551923D01*
X136664139Y-228709760D01*
X136708948Y-228841764D01*
X136846153Y-229119989D01*
X137018501Y-229377925D01*
X137223041Y-229611159D01*
X137456275Y-229815699D01*
X137714211Y-229988047D01*
X137717910Y-229989871D01*
X137717915Y-229989874D01*
X137746250Y-230003847D01*
X137992436Y-230125252D01*
X137996341Y-230126577D01*
X137996342Y-230126578D01*
X138282277Y-230223640D01*
X138282281Y-230223641D01*
X138286190Y-230224968D01*
X138290234Y-230225772D01*
X138290240Y-230225774D01*
X138586408Y-230284686D01*
X138586414Y-230284687D01*
X138590447Y-230285489D01*
X138594552Y-230285758D01*
X138594559Y-230285759D01*
X138895881Y-230305508D01*
X138900000Y-230305778D01*
X138904119Y-230305508D01*
X139205441Y-230285759D01*
X139205448Y-230285758D01*
X139209553Y-230285489D01*
X139213586Y-230284687D01*
X139213592Y-230284686D01*
X139509760Y-230225774D01*
X139509766Y-230225772D01*
X139513810Y-230224968D01*
X139517719Y-230223641D01*
X139517723Y-230223640D01*
X139803658Y-230126578D01*
X139803659Y-230126577D01*
X139807564Y-230125252D01*
X140053750Y-230003847D01*
X140082085Y-229989874D01*
X140082090Y-229989871D01*
X140085789Y-229988047D01*
X140343725Y-229815699D01*
X140576959Y-229611159D01*
X140781499Y-229377925D01*
X140953847Y-229119989D01*
X141091052Y-228841764D01*
X141135861Y-228709760D01*
X141189440Y-228551923D01*
X141189441Y-228551919D01*
X141190768Y-228548010D01*
X141247343Y-228263592D01*
X141250486Y-228247792D01*
X141250487Y-228247786D01*
X141251289Y-228243753D01*
X141270542Y-227950000D01*
X159178422Y-227950000D01*
X159178692Y-227954119D01*
X159197406Y-228239641D01*
X159198711Y-228259553D01*
X159199513Y-228263586D01*
X159199514Y-228263592D01*
X159258426Y-228559760D01*
X159259232Y-228563810D01*
X159358948Y-228857564D01*
X159360772Y-228861262D01*
X159486535Y-229116285D01*
X159496153Y-229135789D01*
X159668501Y-229393725D01*
X159873041Y-229626959D01*
X160106275Y-229831499D01*
X160364211Y-230003847D01*
X160367910Y-230005671D01*
X160367915Y-230005674D01*
X160510775Y-230076124D01*
X160642436Y-230141052D01*
X160646341Y-230142377D01*
X160646342Y-230142378D01*
X160932277Y-230239440D01*
X160932281Y-230239441D01*
X160936190Y-230240768D01*
X160940234Y-230241572D01*
X160940240Y-230241574D01*
X161236408Y-230300486D01*
X161236414Y-230300487D01*
X161240447Y-230301289D01*
X161244552Y-230301558D01*
X161244559Y-230301559D01*
X161545881Y-230321308D01*
X161550000Y-230321578D01*
X161554119Y-230321308D01*
X161855441Y-230301559D01*
X161855448Y-230301558D01*
X161859553Y-230301289D01*
X161863586Y-230300487D01*
X161863592Y-230300486D01*
X162159760Y-230241574D01*
X162159766Y-230241572D01*
X162163810Y-230240768D01*
X162167719Y-230239441D01*
X162167723Y-230239440D01*
X162453658Y-230142378D01*
X162453659Y-230142377D01*
X162457564Y-230141052D01*
X162589225Y-230076124D01*
X162732085Y-230005674D01*
X162732090Y-230005671D01*
X162735789Y-230003847D01*
X162993725Y-229831499D01*
X163226959Y-229626959D01*
X163431499Y-229393725D01*
X163603847Y-229135789D01*
X163613466Y-229116285D01*
X163739228Y-228861262D01*
X163741052Y-228857564D01*
X163840768Y-228563810D01*
X163841574Y-228559760D01*
X163900486Y-228263592D01*
X163900487Y-228263586D01*
X163901289Y-228259553D01*
X163902595Y-228239641D01*
X163921308Y-227954119D01*
X163921578Y-227950000D01*
X163911390Y-227794559D01*
X163901559Y-227644559D01*
X163901558Y-227644552D01*
X163901289Y-227640447D01*
X163898965Y-227628759D01*
X163841574Y-227340240D01*
X163841572Y-227340234D01*
X163840768Y-227336190D01*
X163836780Y-227324440D01*
X163742378Y-227046342D01*
X163742377Y-227046341D01*
X163741052Y-227042436D01*
X163603847Y-226764211D01*
X163431499Y-226506275D01*
X163226959Y-226273041D01*
X162993725Y-226068501D01*
X162735789Y-225896153D01*
X162732090Y-225894329D01*
X162732085Y-225894326D01*
X162557896Y-225808426D01*
X162457564Y-225758948D01*
X162453658Y-225757622D01*
X162167723Y-225660560D01*
X162167719Y-225660559D01*
X162163810Y-225659232D01*
X162159766Y-225658428D01*
X162159760Y-225658426D01*
X161863592Y-225599514D01*
X161863586Y-225599513D01*
X161859553Y-225598711D01*
X161855448Y-225598442D01*
X161855441Y-225598441D01*
X161554119Y-225578692D01*
X161550000Y-225578422D01*
X161545881Y-225578692D01*
X161244559Y-225598441D01*
X161244552Y-225598442D01*
X161240447Y-225598711D01*
X161236414Y-225599513D01*
X161236408Y-225599514D01*
X160940240Y-225658426D01*
X160940234Y-225658428D01*
X160936190Y-225659232D01*
X160932281Y-225660559D01*
X160932277Y-225660560D01*
X160646342Y-225757622D01*
X160642436Y-225758948D01*
X160542104Y-225808426D01*
X160367915Y-225894326D01*
X160367910Y-225894329D01*
X160364211Y-225896153D01*
X160106275Y-226068501D01*
X159873041Y-226273041D01*
X159668501Y-226506275D01*
X159496153Y-226764211D01*
X159358948Y-227042436D01*
X159357623Y-227046341D01*
X159357622Y-227046342D01*
X159263221Y-227324440D01*
X159259232Y-227336190D01*
X159258428Y-227340234D01*
X159258426Y-227340240D01*
X159201036Y-227628759D01*
X159198711Y-227640447D01*
X159198442Y-227644552D01*
X159198441Y-227644559D01*
X159188610Y-227794559D01*
X159178422Y-227950000D01*
X141270542Y-227950000D01*
X141271578Y-227934200D01*
X141262156Y-227790447D01*
X141251559Y-227628759D01*
X141251558Y-227628752D01*
X141251289Y-227624647D01*
X141194717Y-227340240D01*
X141191574Y-227324440D01*
X141191572Y-227324434D01*
X141190768Y-227320390D01*
X141148660Y-227196342D01*
X141092378Y-227030542D01*
X141092377Y-227030541D01*
X141091052Y-227026636D01*
X141026124Y-226894975D01*
X140955674Y-226752115D01*
X140955671Y-226752110D01*
X140953847Y-226748411D01*
X140781499Y-226490475D01*
X140576959Y-226257241D01*
X140343725Y-226052701D01*
X140085789Y-225880353D01*
X140082090Y-225878529D01*
X140082085Y-225878526D01*
X139836914Y-225757622D01*
X139807564Y-225743148D01*
X139764183Y-225728422D01*
X139517723Y-225644760D01*
X139517719Y-225644759D01*
X139513810Y-225643432D01*
X139509766Y-225642628D01*
X139509760Y-225642626D01*
X139213592Y-225583714D01*
X139213586Y-225583713D01*
X139209553Y-225582911D01*
X139205448Y-225582642D01*
X139205441Y-225582641D01*
X138904119Y-225562892D01*
X138900000Y-225562622D01*
X138895881Y-225562892D01*
X138594559Y-225582641D01*
X138594552Y-225582642D01*
X138590447Y-225582911D01*
X138586414Y-225583713D01*
X138586408Y-225583714D01*
X138290240Y-225642626D01*
X138290234Y-225642628D01*
X138286190Y-225643432D01*
X138282281Y-225644759D01*
X138282277Y-225644760D01*
X138035817Y-225728422D01*
X137992436Y-225743148D01*
X137963086Y-225757622D01*
X137717915Y-225878526D01*
X137717910Y-225878529D01*
X137714211Y-225880353D01*
X137456275Y-226052701D01*
X137223041Y-226257241D01*
X137018501Y-226490475D01*
X136846153Y-226748411D01*
X136844329Y-226752110D01*
X136844326Y-226752115D01*
X136773876Y-226894975D01*
X136708948Y-227026636D01*
X136707623Y-227030541D01*
X136707622Y-227030542D01*
X136651341Y-227196342D01*
X136609232Y-227320390D01*
X136608428Y-227324434D01*
X136608426Y-227324440D01*
X136605284Y-227340240D01*
X136548711Y-227624647D01*
X136548442Y-227628752D01*
X136548441Y-227628759D01*
X136537844Y-227790447D01*
X136528422Y-227934200D01*
X120210711Y-227934200D01*
X120201289Y-227790447D01*
X120170649Y-227636408D01*
X120141574Y-227490240D01*
X120141572Y-227490234D01*
X120140768Y-227486190D01*
X120041052Y-227192436D01*
X119903847Y-226914211D01*
X119731499Y-226656275D01*
X119526959Y-226423041D01*
X119293725Y-226218501D01*
X119035789Y-226046153D01*
X119032090Y-226044329D01*
X119032085Y-226044326D01*
X118889225Y-225973876D01*
X118757564Y-225908948D01*
X118667944Y-225878526D01*
X118467723Y-225810560D01*
X118467719Y-225810559D01*
X118463810Y-225809232D01*
X118459766Y-225808428D01*
X118459760Y-225808426D01*
X118163592Y-225749514D01*
X118163586Y-225749513D01*
X118159553Y-225748711D01*
X118155448Y-225748442D01*
X118155441Y-225748441D01*
X117854119Y-225728692D01*
X117850000Y-225728422D01*
X117845881Y-225728692D01*
X117544559Y-225748441D01*
X117544552Y-225748442D01*
X117540447Y-225748711D01*
X117536414Y-225749513D01*
X117536408Y-225749514D01*
X117240240Y-225808426D01*
X117240234Y-225808428D01*
X117236190Y-225809232D01*
X117232281Y-225810559D01*
X117232277Y-225810560D01*
X117032056Y-225878526D01*
X116942436Y-225908948D01*
X116810775Y-225973876D01*
X116667915Y-226044326D01*
X116667910Y-226044329D01*
X116664211Y-226046153D01*
X116406275Y-226218501D01*
X116173041Y-226423041D01*
X115968501Y-226656275D01*
X115796153Y-226914211D01*
X115658948Y-227192436D01*
X115559232Y-227486190D01*
X115558428Y-227490234D01*
X115558426Y-227490240D01*
X115529352Y-227636408D01*
X115498711Y-227790447D01*
X115478422Y-228100000D01*
X112583373Y-228100000D01*
X112587082Y-225910772D01*
X112604511Y-215622514D01*
X112624629Y-215554428D01*
X112678363Y-215508026D01*
X112730208Y-215496728D01*
X115164619Y-215490870D01*
X132131886Y-215450044D01*
X132131887Y-215450044D01*
X132150000Y-215450000D01*
X132132650Y-210039903D01*
X132152433Y-209971720D01*
X132205939Y-209925055D01*
X132258649Y-209913500D01*
X134293134Y-209913500D01*
X134355316Y-209906745D01*
X134491705Y-209855615D01*
X134608261Y-209768261D01*
X134695615Y-209651705D01*
X134746745Y-209515316D01*
X134753500Y-209453134D01*
X134753500Y-205356866D01*
X134746745Y-205294684D01*
X134695615Y-205158295D01*
X134608261Y-205041739D01*
X134491705Y-204954385D01*
X134355316Y-204903255D01*
X134293134Y-204896500D01*
X132241752Y-204896500D01*
X132173631Y-204876498D01*
X132127138Y-204822842D01*
X132115753Y-204770904D01*
X132082112Y-194280791D01*
X132101895Y-194212607D01*
X132155401Y-194165942D01*
X132208097Y-194154387D01*
X171373986Y-194150038D01*
X171442109Y-194170032D01*
G37*
%TD.AperFunction*%
%TD*%
M02*
